0
SECTION
2
HEADER
9
$INSUNITS
70
4
9
$ACADVER
1
AC1014
9
$HANDSEED
5
FFFF
0
ENDSEC
0
SECTION
2
TABLES
0
TABLE
2
VPORT
5
8
100
AcDbSymbolTable
0
ENDTAB
0
TABLE
2
LTYPE
5
5
100
AcDbSymbolTable
0
LTYPE
5
14
100
AcDbSymbolTableRecord
100
AcDbLinetypeTableRecord
2
BYBLOCK
70
0
0
LTYPE
5
15
100
AcDbSymbolTableRecord
100
AcDbLinetypeTableRecord
2
BYLAYER
70
0
0
ENDTAB
0
TABLE
2
LAYER
5
2
100
AcDbSymbolTable
70
2
0
LAYER
5
50
100
AcDbSymbolTableRecord
100
AcDbLayerTableRecord
2
0
70
0
6
CONTINUOUS
0
ENDTAB
0
TABLE
2
STYLE
5
3
100
AcDbSymbolTable
70
1
0
STYLE
5
11
100
AcDbSymbolTableRecord
100
AcDbTextStyleTableRecord
2
STANDARD
70
0
0
ENDTAB
0
TABLE
2
VIEW
5
6
100
AcDbSymbolTable
70
0
0
ENDTAB
0
TABLE
2
UCS
5
7
100
AcDbSymbolTable
70
0
0
ENDTAB
0
TABLE
2
APPID
5
9
100
AcDbSymbolTable
70
2
0
APPID
5
12
100
AcDbSymbolTableRecord
100
AcDbRegAppTableRecord
2
ACAD
70
0
0
ENDTAB
0
TABLE
2
DIMSTYLE
5
A
100
AcDbSymbolTable
70
1
0
ENDTAB
0
TABLE
2
BLOCK_RECORD
5
1
100
AcDbSymbolTable
70
1
0
BLOCK_RECORD
5
1F
100
AcDbSymbolTableRecord
100
AcDbBlockTableRecord
2
*MODEL_SPACE
0
BLOCK_RECORD
5
1B
100
AcDbSymbolTableRecord
100
AcDbBlockTableRecord
2
*PAPER_SPACE
0
ENDTAB
0
ENDSEC
0
SECTION
2
BLOCKS
0
BLOCK
5
20
100
AcDbEntity
100
AcDbBlockBegin
2
*MODEL_SPACE
0
ENDBLK
5
21
100
AcDbEntity
100
AcDbBlockEnd
0
BLOCK
5
1C
100
AcDbEntity
100
AcDbBlockBegin
2
*PAPER_SPACE
0
ENDBLK
5
1D
100
AcDbEntity
100
AcDbBlockEnd
0
ENDSEC
0
SECTION
2
ENTITIES
0
LWPOLYLINE
5
100
100
AcDbEntity
8
0
100
AcDbPolyline
90
8
70
1
43
0.0
10
105
20
-30.091886726214831
10
5
20
-30.091886726214838
10
5
20
-130.09188672621485
10
105
20
-130.09188672621485
10
105
20
-30.091886726214831
10
205
20
-30.091886726214838
10
205
20
-130.09188672621485
10
105
20
-130.09188672621485
0
LINE
5
101
100
AcDbEntity
8
0
100
AcDbLine
10
104.90585946137686
20
-128.09188672621485
30
0
11
8.9058594613768811
21
-128.09188672621485
31
0
0
LINE
5
102
100
AcDbEntity
8
0
100
AcDbLine
10
8.9058594613768634
20
-44.474697498677557
30
0
11
8.9058594613768616
21
-33.974697498677557
31
0
0
LINE
5
103
100
AcDbEntity
8
0
100
AcDbLine
10
8.9058594613768616
20
-33.974697498677557
30
0
11
104.90585946137686
21
-33.974697498677564
31
0
0
LINE
5
104
100
AcDbEntity
8
0
100
AcDbLine
10
104.90585946137686
20
-33.974697498677564
30
0
11
104.90585946137686
21
-128.09188672621485
31
0
0
LINE
5
105
100
AcDbEntity
8
0
100
AcDbLine
10
9.405859461376858
20
-33.974697498677557
30
0
11
19.405859461376863
21
-33.974697498677557
31
0
0
LINE
5
106
100
AcDbEntity
8
0
100
AcDbLine
10
19.905859461376863
20
-34.474697498677557
30
0
11
19.905859461376863
21
-44.474697498677557
31
0
0
LINE
5
107
100
AcDbEntity
8
0
100
AcDbLine
10
19.405859461376863
20
-44.974697498677557
30
0
11
9.4058594613768669
21
-44.974697498677557
31
0
0
LINE
5
108
100
AcDbEntity
8
0
100
AcDbLine
10
8.9058594613768616
20
-44.974697498677557
30
0
11
8.9058594613768616
21
-34.474697498677557
31
0
0
ARC
5
109
100
AcDbEntity
8
0
100
AcDbCircle
10
9.405859461376858
20
-34.474697498677557
30
0
40
0.49999999999999822
210
0
220
-0
230
1
100
AcDbArc
50
90
51
180
0
ARC
5
110
100
AcDbEntity
8
0
100
AcDbCircle
10
19.405859461376863
20
-34.474697498677557
30
0
40
0.49999999999999822
210
0
220
0
230
1
100
AcDbArc
50
0
51
90
0
ARC
5
111
100
AcDbEntity
8
0
100
AcDbCircle
10
19.405859461376863
20
-44.474697498677557
30
0
40
0.50000000000000711
210
-0
220
0
230
1
100
AcDbArc
50
-90
51
0
0
ARC
5
112
100
AcDbEntity
8
0
100
AcDbCircle
10
9.4058594613768669
20
-44.474697498677557
30
0
40
0.50000000000000266
210
0
220
0
230
1
100
AcDbArc
50
180
51
270
0
LINE
5
113
100
AcDbEntity
8
0
100
AcDbLine
10
33.905859461376863
20
-44.974697498677557
30
0
11
33.905859461376863
21
-34.474697498677557
31
0
0
ARC
5
114
100
AcDbEntity
8
0
100
AcDbCircle
10
34.405859461376856
20
-34.474697498677557
30
0
40
0.49999999999999822
210
0
220
-0
230
1
100
AcDbArc
50
90
51
180
0
LINE
5
115
100
AcDbEntity
8
0
100
AcDbLine
10
34.405859461376856
20
-33.974697498677557
30
0
11
44.405859461376863
21
-33.974697498677557
31
0
0
ARC
5
116
100
AcDbEntity
8
0
100
AcDbCircle
10
44.405859461376863
20
-34.474697498677557
30
0
40
0.50000000000000711
210
0
220
0
230
1
100
AcDbArc
50
0
51
90
0
LINE
5
117
100
AcDbEntity
8
0
100
AcDbLine
10
44.905859461376863
20
-34.474697498677557
30
0
11
44.905859461376863
21
-44.474697498677557
31
0
0
ARC
5
118
100
AcDbEntity
8
0
100
AcDbCircle
10
44.405859461376863
20
-44.474697498677557
30
0
40
0.50000000000000711
210
-0
220
0
230
1
100
AcDbArc
50
-90
51
0
0
ARC
5
119
100
AcDbEntity
8
0
100
AcDbCircle
10
34.405859461376863
20
-44.474697498677557
30
0
40
0.49999999999999822
210
0
220
0
230
1
100
AcDbArc
50
180
51
270
0
LINE
5
120
100
AcDbEntity
8
0
100
AcDbLine
10
44.405859461376863
20
-44.974697498677557
30
0
11
34.405859461376863
21
-44.974697498677557
31
0
0
LINE
5
121
100
AcDbEntity
8
0
100
AcDbLine
10
58.90585946137687
20
-44.974697498677557
30
0
11
58.90585946137687
21
-34.474697498677557
31
0
0
ARC
5
122
100
AcDbEntity
8
0
100
AcDbCircle
10
59.405859461376863
20
-34.474697498677557
30
0
40
0.49999999999999822
210
0
220
-0
230
1
100
AcDbArc
50
90
51
180
0
LINE
5
123
100
AcDbEntity
8
0
100
AcDbLine
10
59.405859461376863
20
-33.974697498677557
30
0
11
69.405859461376863
21
-33.974697498677557
31
0
0
ARC
5
124
100
AcDbEntity
8
0
100
AcDbCircle
10
69.405859461376863
20
-34.474697498677557
30
0
40
0.50000000000000711
210
0
220
0
230
1
100
AcDbArc
50
0
51
90
0
LINE
5
125
100
AcDbEntity
8
0
100
AcDbLine
10
69.905859461376863
20
-34.474697498677557
30
0
11
69.905859461376863
21
-44.474697498677557
31
0
0
ARC
5
126
100
AcDbEntity
8
0
100
AcDbCircle
10
69.405859461376863
20
-44.474697498677557
30
0
40
0.50000000000000711
210
-0
220
0
230
1
100
AcDbArc
50
-90
51
0
0
ARC
5
127
100
AcDbEntity
8
0
100
AcDbCircle
10
59.405859461376863
20
-44.474697498677557
30
0
40
0.49999999999998934
210
0
220
0
230
1
100
AcDbArc
50
180
51
270
0
LINE
5
128
100
AcDbEntity
8
0
100
AcDbLine
10
69.405859461376863
20
-44.974697498677557
30
0
11
59.405859461376863
21
-44.974697498677557
31
0
0
LINE
5
129
100
AcDbEntity
8
0
100
AcDbLine
10
83.905859461376878
20
-44.974697498677557
30
0
11
83.905859461376878
21
-34.474697498677557
31
0
0
ARC
5
130
100
AcDbEntity
8
0
100
AcDbCircle
10
84.405859461376863
20
-34.474697498677557
30
0
40
0.49999999999999822
210
0
220
-0
230
1
100
AcDbArc
50
90
51
180
0
LINE
5
131
100
AcDbEntity
8
0
100
AcDbLine
10
84.405859461376863
20
-33.974697498677557
30
0
11
94.405859461376863
21
-33.974697498677557
31
0
0
ARC
5
132
100
AcDbEntity
8
0
100
AcDbCircle
10
94.405859461376863
20
-34.474697498677557
30
0
40
0.50000000000000711
210
0
220
0
230
1
100
AcDbArc
50
0
51
90
0
LINE
5
133
100
AcDbEntity
8
0
100
AcDbLine
10
94.905859461376863
20
-34.474697498677557
30
0
11
94.905859461376863
21
-44.474697498677557
31
0
0
ARC
5
134
100
AcDbEntity
8
0
100
AcDbCircle
10
94.405859461376863
20
-44.474697498677557
30
0
40
0.50000000000000711
210
-0
220
0
230
1
100
AcDbArc
50
-90
51
0
0
ARC
5
135
100
AcDbEntity
8
0
100
AcDbCircle
10
84.405859461376878
20
-44.474697498677557
30
0
40
0.50000000000000711
210
0
220
0
230
1
100
AcDbArc
50
180
51
270
0
LINE
5
136
100
AcDbEntity
8
0
100
AcDbLine
10
94.405859461376863
20
-44.974697498677557
30
0
11
84.405859461376878
21
-44.974697498677557
31
0
0
LINE
5
137
100
AcDbEntity
8
0
100
AcDbLine
10
8.9058594613768616
20
-57.974697498677557
30
0
11
8.9058594613768616
21
-47.47469749867755
31
0
0
ARC
5
138
100
AcDbEntity
8
0
100
AcDbCircle
10
9.405859461376858
20
-47.47469749867755
30
0
40
0.49999999999999822
210
0
220
-0
230
1
100
AcDbArc
50
90
51
180
0
LINE
5
139
100
AcDbEntity
8
0
100
AcDbLine
10
9.405859461376858
20
-46.974697498677557
30
0
11
19.405859461376863
21
-46.974697498677557
31
0
0
ARC
5
140
100
AcDbEntity
8
0
100
AcDbCircle
10
19.405859461376863
20
-47.47469749867755
30
0
40
0.49999999999999822
210
0
220
0
230
1
100
AcDbArc
50
0
51
90
0
LINE
5
141
100
AcDbEntity
8
0
100
AcDbLine
10
19.905859461376863
20
-47.47469749867755
30
0
11
19.905859461376863
21
-57.47469749867755
31
0
0
ARC
5
142
100
AcDbEntity
8
0
100
AcDbCircle
10
19.405859461376863
20
-57.47469749867755
30
0
40
0.50000000000000711
210
-0
220
0
230
1
100
AcDbArc
50
-90
51
0
0
ARC
5
143
100
AcDbEntity
8
0
100
AcDbCircle
10
9.4058594613768669
20
-57.47469749867755
30
0
40
0.50000000000000266
210
0
220
0
230
1
100
AcDbArc
50
180
51
270
0
LINE
5
144
100
AcDbEntity
8
0
100
AcDbLine
10
19.405859461376863
20
-57.974697498677557
30
0
11
9.4058594613768669
21
-57.974697498677557
31
0
0
LINE
5
145
100
AcDbEntity
8
0
100
AcDbLine
10
33.905859461376863
20
-57.974697498677557
30
0
11
33.905859461376863
21
-47.47469749867755
31
0
0
ARC
5
146
100
AcDbEntity
8
0
100
AcDbCircle
10
34.405859461376856
20
-47.47469749867755
30
0
40
0.49999999999999822
210
0
220
-0
230
1
100
AcDbArc
50
90
51
180
0
LINE
5
147
100
AcDbEntity
8
0
100
AcDbLine
10
34.405859461376856
20
-46.974697498677557
30
0
11
44.405859461376863
21
-46.974697498677557
31
0
0
ARC
5
148
100
AcDbEntity
8
0
100
AcDbCircle
10
44.405859461376863
20
-47.47469749867755
30
0
40
0.50000000000000711
210
0
220
0
230
1
100
AcDbArc
50
0
51
90
0
LINE
5
149
100
AcDbEntity
8
0
100
AcDbLine
10
44.905859461376863
20
-47.47469749867755
30
0
11
44.905859461376863
21
-57.47469749867755
31
0
0
ARC
5
150
100
AcDbEntity
8
0
100
AcDbCircle
10
44.405859461376863
20
-57.47469749867755
30
0
40
0.50000000000000711
210
-0
220
0
230
1
100
AcDbArc
50
-90
51
0
0
ARC
5
151
100
AcDbEntity
8
0
100
AcDbCircle
10
34.405859461376863
20
-57.47469749867755
30
0
40
0.49999999999999822
210
0
220
0
230
1
100
AcDbArc
50
180
51
270
0
LINE
5
152
100
AcDbEntity
8
0
100
AcDbLine
10
44.405859461376863
20
-57.974697498677557
30
0
11
34.405859461376863
21
-57.974697498677557
31
0
0
LINE
5
153
100
AcDbEntity
8
0
100
AcDbLine
10
58.90585946137687
20
-57.974697498677557
30
0
11
58.90585946137687
21
-47.47469749867755
31
0
0
ARC
5
154
100
AcDbEntity
8
0
100
AcDbCircle
10
59.405859461376863
20
-47.47469749867755
30
0
40
0.49999999999999822
210
0
220
-0
230
1
100
AcDbArc
50
90
51
180
0
LINE
5
155
100
AcDbEntity
8
0
100
AcDbLine
10
59.405859461376863
20
-46.974697498677557
30
0
11
69.405859461376863
21
-46.974697498677557
31
0
0
ARC
5
156
100
AcDbEntity
8
0
100
AcDbCircle
10
69.405859461376863
20
-47.47469749867755
30
0
40
0.50000000000000711
210
0
220
0
230
1
100
AcDbArc
50
0
51
90
0
LINE
5
157
100
AcDbEntity
8
0
100
AcDbLine
10
69.905859461376863
20
-47.47469749867755
30
0
11
69.905859461376863
21
-57.47469749867755
31
0
0
ARC
5
158
100
AcDbEntity
8
0
100
AcDbCircle
10
69.405859461376863
20
-57.47469749867755
30
0
40
0.50000000000000711
210
-0
220
0
230
1
100
AcDbArc
50
-90
51
0
0
ARC
5
159
100
AcDbEntity
8
0
100
AcDbCircle
10
59.405859461376863
20
-57.47469749867755
30
0
40
0.49999999999998934
210
0
220
0
230
1
100
AcDbArc
50
180
51
270
0
LINE
5
160
100
AcDbEntity
8
0
100
AcDbLine
10
69.405859461376863
20
-57.974697498677557
30
0
11
59.405859461376863
21
-57.974697498677557
31
0
0
LINE
5
161
100
AcDbEntity
8
0
100
AcDbLine
10
83.905859461376878
20
-57.974697498677557
30
0
11
83.905859461376878
21
-47.47469749867755
31
0
0
ARC
5
162
100
AcDbEntity
8
0
100
AcDbCircle
10
84.405859461376863
20
-47.47469749867755
30
0
40
0.49999999999999822
210
0
220
-0
230
1
100
AcDbArc
50
90
51
180
0
LINE
5
163
100
AcDbEntity
8
0
100
AcDbLine
10
84.405859461376863
20
-46.974697498677557
30
0
11
94.405859461376863
21
-46.974697498677557
31
0
0
ARC
5
164
100
AcDbEntity
8
0
100
AcDbCircle
10
94.405859461376863
20
-47.47469749867755
30
0
40
0.50000000000000711
210
0
220
0
230
1
100
AcDbArc
50
0
51
90
0
LINE
5
165
100
AcDbEntity
8
0
100
AcDbLine
10
94.905859461376863
20
-47.47469749867755
30
0
11
94.905859461376863
21
-57.47469749867755
31
0
0
ARC
5
166
100
AcDbEntity
8
0
100
AcDbCircle
10
94.405859461376863
20
-57.47469749867755
30
0
40
0.50000000000000711
210
-0
220
0
230
1
100
AcDbArc
50
-90
51
0
0
ARC
5
167
100
AcDbEntity
8
0
100
AcDbCircle
10
84.405859461376878
20
-57.47469749867755
30
0
40
0.50000000000000711
210
0
220
0
230
1
100
AcDbArc
50
180
51
270
0
LINE
5
168
100
AcDbEntity
8
0
100
AcDbLine
10
94.405859461376863
20
-57.974697498677557
30
0
11
84.405859461376878
21
-57.974697498677557
31
0
0
LINE
5
169
100
AcDbEntity
8
0
100
AcDbLine
10
8.9058594613768616
20
-70.974697498677557
30
0
11
8.9058594613768616
21
-60.47469749867755
31
0
0
ARC
5
170
100
AcDbEntity
8
0
100
AcDbCircle
10
9.405859461376858
20
-60.47469749867755
30
0
40
0.49999999999999822
210
0
220
-0
230
1
100
AcDbArc
50
90
51
180
0
LINE
5
171
100
AcDbEntity
8
0
100
AcDbLine
10
9.405859461376858
20
-59.97469749867755
30
0
11
19.405859461376863
21
-59.97469749867755
31
0
0
ARC
5
172
100
AcDbEntity
8
0
100
AcDbCircle
10
19.405859461376863
20
-60.47469749867755
30
0
40
0.49999999999999822
210
0
220
0
230
1
100
AcDbArc
50
0
51
90
0
LINE
5
173
100
AcDbEntity
8
0
100
AcDbLine
10
19.905859461376863
20
-60.47469749867755
30
0
11
19.905859461376863
21
-70.474697498677557
31
0
0
ARC
5
174
100
AcDbEntity
8
0
100
AcDbCircle
10
19.405859461376863
20
-70.474697498677557
30
0
40
0.50000000000000711
210
-0
220
0
230
1
100
AcDbArc
50
-90
51
0
0
ARC
5
175
100
AcDbEntity
8
0
100
AcDbCircle
10
9.4058594613768669
20
-70.474697498677557
30
0
40
0.50000000000000266
210
0
220
0
230
1
100
AcDbArc
50
180
51
270
0
LINE
5
176
100
AcDbEntity
8
0
100
AcDbLine
10
19.405859461376863
20
-70.974697498677557
30
0
11
9.4058594613768669
21
-70.974697498677557
31
0
0
LINE
5
177
100
AcDbEntity
8
0
100
AcDbLine
10
33.905859461376863
20
-70.974697498677557
30
0
11
33.905859461376863
21
-60.47469749867755
31
0
0
ARC
5
178
100
AcDbEntity
8
0
100
AcDbCircle
10
34.405859461376856
20
-60.47469749867755
30
0
40
0.49999999999999822
210
0
220
-0
230
1
100
AcDbArc
50
90
51
180
0
LINE
5
179
100
AcDbEntity
8
0
100
AcDbLine
10
34.405859461376856
20
-59.97469749867755
30
0
11
44.405859461376863
21
-59.97469749867755
31
0
0
ARC
5
180
100
AcDbEntity
8
0
100
AcDbCircle
10
44.405859461376863
20
-60.47469749867755
30
0
40
0.50000000000000711
210
0
220
0
230
1
100
AcDbArc
50
0
51
90
0
LINE
5
181
100
AcDbEntity
8
0
100
AcDbLine
10
44.905859461376863
20
-60.47469749867755
30
0
11
44.905859461376863
21
-70.474697498677557
31
0
0
ARC
5
182
100
AcDbEntity
8
0
100
AcDbCircle
10
44.405859461376863
20
-70.474697498677557
30
0
40
0.50000000000000711
210
-0
220
0
230
1
100
AcDbArc
50
-90
51
0
0
ARC
5
183
100
AcDbEntity
8
0
100
AcDbCircle
10
34.405859461376863
20
-70.474697498677557
30
0
40
0.49999999999999822
210
0
220
0
230
1
100
AcDbArc
50
180
51
270
0
LINE
5
184
100
AcDbEntity
8
0
100
AcDbLine
10
44.405859461376863
20
-70.974697498677557
30
0
11
34.405859461376863
21
-70.974697498677557
31
0
0
LINE
5
185
100
AcDbEntity
8
0
100
AcDbLine
10
58.90585946137687
20
-70.974697498677557
30
0
11
58.90585946137687
21
-60.47469749867755
31
0
0
ARC
5
186
100
AcDbEntity
8
0
100
AcDbCircle
10
59.405859461376863
20
-60.47469749867755
30
0
40
0.49999999999999822
210
0
220
-0
230
1
100
AcDbArc
50
90
51
180
0
LINE
5
187
100
AcDbEntity
8
0
100
AcDbLine
10
59.405859461376863
20
-59.97469749867755
30
0
11
69.405859461376863
21
-59.97469749867755
31
0
0
ARC
5
188
100
AcDbEntity
8
0
100
AcDbCircle
10
69.405859461376863
20
-60.47469749867755
30
0
40
0.50000000000000711
210
0
220
0
230
1
100
AcDbArc
50
0
51
90
0
LINE
5
189
100
AcDbEntity
8
0
100
AcDbLine
10
69.905859461376863
20
-60.47469749867755
30
0
11
69.905859461376863
21
-70.474697498677557
31
0
0
ARC
5
190
100
AcDbEntity
8
0
100
AcDbCircle
10
69.405859461376863
20
-70.474697498677557
30
0
40
0.50000000000000711
210
-0
220
0
230
1
100
AcDbArc
50
-90
51
0
0
ARC
5
191
100
AcDbEntity
8
0
100
AcDbCircle
10
59.405859461376863
20
-70.474697498677557
30
0
40
0.49999999999998934
210
0
220
0
230
1
100
AcDbArc
50
180
51
270
0
LINE
5
192
100
AcDbEntity
8
0
100
AcDbLine
10
69.405859461376863
20
-70.974697498677557
30
0
11
59.405859461376863
21
-70.974697498677557
31
0
0
LINE
5
193
100
AcDbEntity
8
0
100
AcDbLine
10
83.905859461376878
20
-70.974697498677557
30
0
11
83.905859461376878
21
-60.47469749867755
31
0
0
ARC
5
194
100
AcDbEntity
8
0
100
AcDbCircle
10
84.405859461376863
20
-60.47469749867755
30
0
40
0.49999999999999822
210
0
220
-0
230
1
100
AcDbArc
50
90
51
180
0
LINE
5
195
100
AcDbEntity
8
0
100
AcDbLine
10
84.405859461376863
20
-59.97469749867755
30
0
11
94.405859461376863
21
-59.97469749867755
31
0
0
ARC
5
196
100
AcDbEntity
8
0
100
AcDbCircle
10
94.405859461376863
20
-60.47469749867755
30
0
40
0.50000000000000711
210
0
220
0
230
1
100
AcDbArc
50
0
51
90
0
LINE
5
197
100
AcDbEntity
8
0
100
AcDbLine
10
94.905859461376863
20
-60.47469749867755
30
0
11
94.905859461376863
21
-70.474697498677557
31
0
0
ARC
5
198
100
AcDbEntity
8
0
100
AcDbCircle
10
94.405859461376863
20
-70.474697498677557
30
0
40
0.50000000000000711
210
-0
220
0
230
1
100
AcDbArc
50
-90
51
0
0
ARC
5
199
100
AcDbEntity
8
0
100
AcDbCircle
10
84.405859461376878
20
-70.474697498677557
30
0
40
0.50000000000000711
210
0
220
0
230
1
100
AcDbArc
50
180
51
270
0
LINE
5
200
100
AcDbEntity
8
0
100
AcDbLine
10
94.405859461376863
20
-70.974697498677557
30
0
11
84.405859461376878
21
-70.974697498677557
31
0
0
LINE
5
201
100
AcDbEntity
8
0
100
AcDbLine
10
8.9058594613768616
20
-83.974697498677557
30
0
11
8.9058594613768616
21
-73.474697498677543
31
0
0
ARC
5
202
100
AcDbEntity
8
0
100
AcDbCircle
10
9.405859461376858
20
-73.474697498677543
30
0
40
0.49999999999999822
210
0
220
-0
230
1
100
AcDbArc
50
90
51
180
0
LINE
5
203
100
AcDbEntity
8
0
100
AcDbLine
10
9.405859461376858
20
-72.974697498677557
30
0
11
19.405859461376863
21
-72.974697498677557
31
0
0
ARC
5
204
100
AcDbEntity
8
0
100
AcDbCircle
10
19.405859461376863
20
-73.474697498677543
30
0
40
0.49999999999999822
210
0
220
0
230
1
100
AcDbArc
50
0
51
90
0
LINE
5
205
100
AcDbEntity
8
0
100
AcDbLine
10
19.905859461376863
20
-73.474697498677543
30
0
11
19.905859461376863
21
-83.474697498677557
31
0
0
ARC
5
206
100
AcDbEntity
8
0
100
AcDbCircle
10
19.405859461376863
20
-83.474697498677557
30
0
40
0.50000000000000711
210
-0
220
0
230
1
100
AcDbArc
50
-90
51
0
0
ARC
5
207
100
AcDbEntity
8
0
100
AcDbCircle
10
9.4058594613768669
20
-83.474697498677557
30
0
40
0.50000000000000266
210
0
220
0
230
1
100
AcDbArc
50
180
51
270
0
LINE
5
208
100
AcDbEntity
8
0
100
AcDbLine
10
19.405859461376863
20
-83.974697498677557
30
0
11
9.4058594613768669
21
-83.974697498677557
31
0
0
LINE
5
209
100
AcDbEntity
8
0
100
AcDbLine
10
33.905859461376863
20
-83.974697498677557
30
0
11
33.905859461376863
21
-73.474697498677543
31
0
0
ARC
5
210
100
AcDbEntity
8
0
100
AcDbCircle
10
34.405859461376856
20
-73.474697498677543
30
0
40
0.49999999999999822
210
0
220
-0
230
1
100
AcDbArc
50
90
51
180
0
LINE
5
211
100
AcDbEntity
8
0
100
AcDbLine
10
34.405859461376856
20
-72.974697498677557
30
0
11
44.405859461376863
21
-72.974697498677557
31
0
0
ARC
5
212
100
AcDbEntity
8
0
100
AcDbCircle
10
44.405859461376863
20
-73.474697498677543
30
0
40
0.50000000000000711
210
0
220
0
230
1
100
AcDbArc
50
0
51
90
0
LINE
5
213
100
AcDbEntity
8
0
100
AcDbLine
10
44.905859461376863
20
-73.474697498677543
30
0
11
44.905859461376863
21
-83.474697498677557
31
0
0
ARC
5
214
100
AcDbEntity
8
0
100
AcDbCircle
10
44.405859461376863
20
-83.474697498677557
30
0
40
0.50000000000000711
210
-0
220
0
230
1
100
AcDbArc
50
-90
51
0
0
ARC
5
215
100
AcDbEntity
8
0
100
AcDbCircle
10
34.405859461376863
20
-83.474697498677557
30
0
40
0.49999999999999822
210
0
220
0
230
1
100
AcDbArc
50
180
51
270
0
LINE
5
216
100
AcDbEntity
8
0
100
AcDbLine
10
44.405859461376863
20
-83.974697498677557
30
0
11
34.405859461376863
21
-83.974697498677557
31
0
0
LINE
5
217
100
AcDbEntity
8
0
100
AcDbLine
10
58.90585946137687
20
-83.974697498677557
30
0
11
58.90585946137687
21
-73.474697498677543
31
0
0
ARC
5
218
100
AcDbEntity
8
0
100
AcDbCircle
10
59.405859461376863
20
-73.474697498677543
30
0
40
0.49999999999999822
210
0
220
-0
230
1
100
AcDbArc
50
90
51
180
0
LINE
5
219
100
AcDbEntity
8
0
100
AcDbLine
10
59.405859461376863
20
-72.974697498677557
30
0
11
69.405859461376863
21
-72.974697498677557
31
0
0
ARC
5
220
100
AcDbEntity
8
0
100
AcDbCircle
10
69.405859461376863
20
-73.474697498677543
30
0
40
0.50000000000000711
210
0
220
0
230
1
100
AcDbArc
50
0
51
90
0
LINE
5
221
100
AcDbEntity
8
0
100
AcDbLine
10
69.905859461376863
20
-73.474697498677543
30
0
11
69.905859461376863
21
-83.474697498677557
31
0
0
ARC
5
222
100
AcDbEntity
8
0
100
AcDbCircle
10
69.405859461376863
20
-83.474697498677557
30
0
40
0.50000000000000711
210
-0
220
0
230
1
100
AcDbArc
50
-90
51
0
0
ARC
5
223
100
AcDbEntity
8
0
100
AcDbCircle
10
59.405859461376863
20
-83.474697498677557
30
0
40
0.49999999999998934
210
0
220
0
230
1
100
AcDbArc
50
180
51
270
0
LINE
5
224
100
AcDbEntity
8
0
100
AcDbLine
10
69.405859461376863
20
-83.974697498677557
30
0
11
59.405859461376863
21
-83.974697498677557
31
0
0
LINE
5
225
100
AcDbEntity
8
0
100
AcDbLine
10
83.905859461376878
20
-83.974697498677557
30
0
11
83.905859461376878
21
-73.474697498677543
31
0
0
ARC
5
226
100
AcDbEntity
8
0
100
AcDbCircle
10
84.405859461376863
20
-73.474697498677543
30
0
40
0.49999999999999822
210
0
220
-0
230
1
100
AcDbArc
50
90
51
180
0
LINE
5
227
100
AcDbEntity
8
0
100
AcDbLine
10
84.405859461376863
20
-72.974697498677557
30
0
11
94.405859461376863
21
-72.974697498677557
31
0
0
ARC
5
228
100
AcDbEntity
8
0
100
AcDbCircle
10
94.405859461376863
20
-73.474697498677543
30
0
40
0.50000000000000711
210
0
220
0
230
1
100
AcDbArc
50
0
51
90
0
LINE
5
229
100
AcDbEntity
8
0
100
AcDbLine
10
94.905859461376863
20
-73.474697498677543
30
0
11
94.905859461376863
21
-83.474697498677557
31
0
0
ARC
5
230
100
AcDbEntity
8
0
100
AcDbCircle
10
94.405859461376863
20
-83.474697498677557
30
0
40
0.50000000000000711
210
-0
220
0
230
1
100
AcDbArc
50
-90
51
0
0
ARC
5
231
100
AcDbEntity
8
0
100
AcDbCircle
10
84.405859461376878
20
-83.474697498677557
30
0
40
0.50000000000000711
210
0
220
0
230
1
100
AcDbArc
50
180
51
270
0
LINE
5
232
100
AcDbEntity
8
0
100
AcDbLine
10
94.405859461376863
20
-83.974697498677557
30
0
11
84.405859461376878
21
-83.974697498677557
31
0
0
CIRCLE
5
233
100
AcDbEntity
8
0
100
AcDbCircle
10
24.945416662716244
20
-39.027089120416008
30
0
40
1.5000000000000016
210
0
220
0
230
1
0
CIRCLE
5
234
100
AcDbEntity
8
0
100
AcDbCircle
10
49.945416662716255
20
-39.027089120416008
30
0
40
1.5000000000000016
210
0
220
0
230
1
0
CIRCLE
5
235
100
AcDbEntity
8
0
100
AcDbCircle
10
74.945416662716255
20
-39.027089120416008
30
0
40
1.5000000000000016
210
0
220
0
230
1
0
CIRCLE
5
236
100
AcDbEntity
8
0
100
AcDbCircle
10
99.945416662716241
20
-39.027089120416008
30
0
40
1.5000000000000016
210
0
220
0
230
1
0
LINE
5
237
100
AcDbEntity
8
0
100
AcDbLine
10
108.90585946137688
20
-44.974697498677557
30
0
11
108.90585946137688
21
-34.474697498677557
31
0
0
ARC
5
238
100
AcDbEntity
8
0
100
AcDbCircle
10
109.40585946137686
20
-34.474697498677557
30
0
40
0.49999999999999822
210
0
220
-0
230
1
100
AcDbArc
50
90
51
180
0
LINE
5
239
100
AcDbEntity
8
0
100
AcDbLine
10
109.40585946137686
20
-33.974697498677557
30
0
11
119.40585946137686
21
-33.974697498677557
31
0
0
ARC
5
240
100
AcDbEntity
8
0
100
AcDbCircle
10
119.40585946137686
20
-34.474697498677557
30
0
40
0.50000000000000711
210
0
220
0
230
1
100
AcDbArc
50
0
51
90
0
LINE
5
241
100
AcDbEntity
8
0
100
AcDbLine
10
119.90585946137686
20
-34.474697498677557
30
0
11
119.90585946137686
21
-44.474697498677557
31
0
0
ARC
5
242
100
AcDbEntity
8
0
100
AcDbCircle
10
119.40585946137686
20
-44.474697498677557
30
0
40
0.50000000000000711
210
-0
220
0
230
1
100
AcDbArc
50
-90
51
0
0
ARC
5
243
100
AcDbEntity
8
0
100
AcDbCircle
10
109.40585946137688
20
-44.474697498677557
30
0
40
0.50000000000000711
210
0
220
0
230
1
100
AcDbArc
50
180
51
270
0
LINE
5
244
100
AcDbEntity
8
0
100
AcDbLine
10
119.40585946137686
20
-44.974697498677557
30
0
11
109.40585946137688
21
-44.974697498677557
31
0
0
CIRCLE
5
245
100
AcDbEntity
8
0
100
AcDbCircle
10
124.94541666271624
20
-39.027089120416008
30
0
40
1.5000000000000016
210
0
220
0
230
1
0
LINE
5
246
100
AcDbEntity
8
0
100
AcDbLine
10
133.90585946137688
20
-44.974697498677557
30
0
11
133.90585946137688
21
-34.474697498677557
31
0
0
ARC
5
247
100
AcDbEntity
8
0
100
AcDbCircle
10
134.40585946137685
20
-34.474697498677557
30
0
40
0.49999999999999822
210
0
220
-0
230
1
100
AcDbArc
50
90
51
180
0
LINE
5
248
100
AcDbEntity
8
0
100
AcDbLine
10
134.40585946137685
20
-33.974697498677557
30
0
11
144.40585946137685
21
-33.974697498677557
31
0
0
ARC
5
249
100
AcDbEntity
8
0
100
AcDbCircle
10
144.40585946137685
20
-34.474697498677557
30
0
40
0.50000000000000711
210
0
220
0
230
1
100
AcDbArc
50
0
51
90
0
LINE
5
250
100
AcDbEntity
8
0
100
AcDbLine
10
144.90585946137688
20
-34.474697498677557
30
0
11
144.90585946137688
21
-44.474697498677557
31
0
0
ARC
5
251
100
AcDbEntity
8
0
100
AcDbCircle
10
144.40585946137685
20
-44.474697498677557
30
0
40
0.50000000000000711
210
-0
220
0
230
1
100
AcDbArc
50
-90
51
0
0
ARC
5
252
100
AcDbEntity
8
0
100
AcDbCircle
10
134.40585946137688
20
-44.474697498677557
30
0
40
0.50000000000000711
210
0
220
0
230
1
100
AcDbArc
50
180
51
270
0
LINE
5
253
100
AcDbEntity
8
0
100
AcDbLine
10
144.40585946137685
20
-44.974697498677557
30
0
11
134.40585946137688
21
-44.974697498677557
31
0
0
CIRCLE
5
254
100
AcDbEntity
8
0
100
AcDbCircle
10
149.94541666271624
20
-39.027089120416008
30
0
40
1.5000000000000016
210
0
220
0
230
1
0
LINE
5
255
100
AcDbEntity
8
0
100
AcDbLine
10
158.90585946137688
20
-44.974697498677557
30
0
11
158.90585946137688
21
-34.474697498677557
31
0
0
ARC
5
256
100
AcDbEntity
8
0
100
AcDbCircle
10
159.40585946137685
20
-34.474697498677557
30
0
40
0.49999999999999822
210
0
220
-0
230
1
100
AcDbArc
50
90
51
180
0
LINE
5
257
100
AcDbEntity
8
0
100
AcDbLine
10
159.40585946137685
20
-33.974697498677557
30
0
11
169.40585946137685
21
-33.974697498677557
31
0
0
ARC
5
258
100
AcDbEntity
8
0
100
AcDbCircle
10
169.40585946137685
20
-34.474697498677557
30
0
40
0.50000000000000711
210
0
220
0
230
1
100
AcDbArc
50
0
51
90
0
LINE
5
259
100
AcDbEntity
8
0
100
AcDbLine
10
169.90585946137685
20
-34.474697498677557
30
0
11
169.90585946137685
21
-44.474697498677557
31
0
0
ARC
5
260
100
AcDbEntity
8
0
100
AcDbCircle
10
169.40585946137685
20
-44.474697498677557
30
0
40
0.50000000000000711
210
-0
220
0
230
1
100
AcDbArc
50
-90
51
0
0
ARC
5
261
100
AcDbEntity
8
0
100
AcDbCircle
10
159.40585946137688
20
-44.474697498677557
30
0
40
0.50000000000000711
210
0
220
0
230
1
100
AcDbArc
50
180
51
270
0
LINE
5
262
100
AcDbEntity
8
0
100
AcDbLine
10
169.40585946137685
20
-44.974697498677557
30
0
11
159.40585946137688
21
-44.974697498677557
31
0
0
CIRCLE
5
263
100
AcDbEntity
8
0
100
AcDbCircle
10
174.94541666271627
20
-39.027089120416008
30
0
40
1.5000000000000016
210
0
220
0
230
1
0
LINE
5
264
100
AcDbEntity
8
0
100
AcDbLine
10
183.90585946137685
20
-44.974697498677557
30
0
11
183.90585946137685
21
-34.474697498677557
31
0
0
ARC
5
265
100
AcDbEntity
8
0
100
AcDbCircle
10
184.40585946137685
20
-34.474697498677557
30
0
40
0.49999999999999822
210
0
220
-0
230
1
100
AcDbArc
50
90
51
180
0
LINE
5
266
100
AcDbEntity
8
0
100
AcDbLine
10
184.40585946137685
20
-33.974697498677557
30
0
11
194.40585946137685
21
-33.974697498677557
31
0
0
ARC
5
267
100
AcDbEntity
8
0
100
AcDbCircle
10
194.40585946137685
20
-34.474697498677557
30
0
40
0.50000000000000711
210
0
220
0
230
1
100
AcDbArc
50
0
51
90
0
LINE
5
268
100
AcDbEntity
8
0
100
AcDbLine
10
194.90585946137685
20
-34.474697498677557
30
0
11
194.90585946137685
21
-44.474697498677557
31
0
0
ARC
5
269
100
AcDbEntity
8
0
100
AcDbCircle
10
194.40585946137685
20
-44.474697498677557
30
0
40
0.50000000000000711
210
-0
220
0
230
1
100
AcDbArc
50
-90
51
0
0
ARC
5
270
100
AcDbEntity
8
0
100
AcDbCircle
10
184.40585946137685
20
-44.474697498677557
30
0
40
0.50000000000000711
210
0
220
0
230
1
100
AcDbArc
50
180
51
270
0
LINE
5
271
100
AcDbEntity
8
0
100
AcDbLine
10
194.40585946137685
20
-44.974697498677557
30
0
11
184.40585946137685
21
-44.974697498677557
31
0
0
CIRCLE
5
272
100
AcDbEntity
8
0
100
AcDbCircle
10
199.94541666271627
20
-39.027089120416008
30
0
40
1.5000000000000016
210
0
220
0
230
1
0
CIRCLE
5
273
100
AcDbEntity
8
0
100
AcDbCircle
10
24.945416662716244
20
-52.027089120416008
30
0
40
1.5000000000000016
210
0
220
0
230
1
0
CIRCLE
5
274
100
AcDbEntity
8
0
100
AcDbCircle
10
49.945416662716255
20
-52.027089120416008
30
0
40
1.5000000000000016
210
0
220
0
230
1
0
CIRCLE
5
275
100
AcDbEntity
8
0
100
AcDbCircle
10
74.945416662716255
20
-52.027089120416008
30
0
40
1.5000000000000016
210
0
220
0
230
1
0
CIRCLE
5
276
100
AcDbEntity
8
0
100
AcDbCircle
10
99.945416662716241
20
-52.027089120416008
30
0
40
1.5000000000000016
210
0
220
0
230
1
0
LINE
5
277
100
AcDbEntity
8
0
100
AcDbLine
10
108.90585946137688
20
-57.974697498677557
30
0
11
108.90585946137688
21
-47.47469749867755
31
0
0
ARC
5
278
100
AcDbEntity
8
0
100
AcDbCircle
10
109.40585946137686
20
-47.47469749867755
30
0
40
0.49999999999999822
210
0
220
-0
230
1
100
AcDbArc
50
90
51
180
0
LINE
5
279
100
AcDbEntity
8
0
100
AcDbLine
10
109.40585946137686
20
-46.974697498677557
30
0
11
119.40585946137686
21
-46.974697498677557
31
0
0
ARC
5
280
100
AcDbEntity
8
0
100
AcDbCircle
10
119.40585946137686
20
-47.47469749867755
30
0
40
0.50000000000000711
210
0
220
0
230
1
100
AcDbArc
50
0
51
90
0
LINE
5
281
100
AcDbEntity
8
0
100
AcDbLine
10
119.90585946137686
20
-47.47469749867755
30
0
11
119.90585946137686
21
-57.47469749867755
31
0
0
ARC
5
282
100
AcDbEntity
8
0
100
AcDbCircle
10
119.40585946137686
20
-57.47469749867755
30
0
40
0.50000000000000711
210
-0
220
0
230
1
100
AcDbArc
50
-90
51
0
0
ARC
5
283
100
AcDbEntity
8
0
100
AcDbCircle
10
109.40585946137688
20
-57.47469749867755
30
0
40
0.50000000000000711
210
0
220
0
230
1
100
AcDbArc
50
180
51
270
0
LINE
5
284
100
AcDbEntity
8
0
100
AcDbLine
10
119.40585946137686
20
-57.974697498677557
30
0
11
109.40585946137688
21
-57.974697498677557
31
0
0
CIRCLE
5
285
100
AcDbEntity
8
0
100
AcDbCircle
10
124.94541666271624
20
-52.027089120416008
30
0
40
1.5000000000000016
210
0
220
0
230
1
0
LINE
5
286
100
AcDbEntity
8
0
100
AcDbLine
10
133.90585946137688
20
-57.974697498677557
30
0
11
133.90585946137688
21
-47.47469749867755
31
0
0
ARC
5
287
100
AcDbEntity
8
0
100
AcDbCircle
10
134.40585946137685
20
-47.47469749867755
30
0
40
0.49999999999999822
210
0
220
-0
230
1
100
AcDbArc
50
90
51
180
0
LINE
5
288
100
AcDbEntity
8
0
100
AcDbLine
10
134.40585946137685
20
-46.974697498677557
30
0
11
144.40585946137685
21
-46.974697498677557
31
0
0
ARC
5
289
100
AcDbEntity
8
0
100
AcDbCircle
10
144.40585946137685
20
-47.47469749867755
30
0
40
0.50000000000000711
210
0
220
0
230
1
100
AcDbArc
50
0
51
90
0
LINE
5
290
100
AcDbEntity
8
0
100
AcDbLine
10
144.90585946137688
20
-47.47469749867755
30
0
11
144.90585946137688
21
-57.47469749867755
31
0
0
ARC
5
291
100
AcDbEntity
8
0
100
AcDbCircle
10
144.40585946137685
20
-57.47469749867755
30
0
40
0.50000000000000711
210
-0
220
0
230
1
100
AcDbArc
50
-90
51
0
0
ARC
5
292
100
AcDbEntity
8
0
100
AcDbCircle
10
134.40585946137688
20
-57.47469749867755
30
0
40
0.50000000000000711
210
0
220
0
230
1
100
AcDbArc
50
180
51
270
0
LINE
5
293
100
AcDbEntity
8
0
100
AcDbLine
10
144.40585946137685
20
-57.974697498677557
30
0
11
134.40585946137688
21
-57.974697498677557
31
0
0
CIRCLE
5
294
100
AcDbEntity
8
0
100
AcDbCircle
10
149.94541666271624
20
-52.027089120416008
30
0
40
1.5000000000000016
210
0
220
0
230
1
0
LINE
5
295
100
AcDbEntity
8
0
100
AcDbLine
10
158.90585946137688
20
-57.974697498677557
30
0
11
158.90585946137688
21
-47.47469749867755
31
0
0
ARC
5
296
100
AcDbEntity
8
0
100
AcDbCircle
10
159.40585946137685
20
-47.47469749867755
30
0
40
0.49999999999999822
210
0
220
-0
230
1
100
AcDbArc
50
90
51
180
0
LINE
5
297
100
AcDbEntity
8
0
100
AcDbLine
10
159.40585946137685
20
-46.974697498677557
30
0
11
169.40585946137685
21
-46.974697498677557
31
0
0
ARC
5
298
100
AcDbEntity
8
0
100
AcDbCircle
10
169.40585946137685
20
-47.47469749867755
30
0
40
0.50000000000000711
210
0
220
0
230
1
100
AcDbArc
50
0
51
90
0
LINE
5
299
100
AcDbEntity
8
0
100
AcDbLine
10
169.90585946137685
20
-47.47469749867755
30
0
11
169.90585946137685
21
-57.47469749867755
31
0
0
ARC
5
300
100
AcDbEntity
8
0
100
AcDbCircle
10
169.40585946137685
20
-57.47469749867755
30
0
40
0.50000000000000711
210
-0
220
0
230
1
100
AcDbArc
50
-90
51
0
0
ARC
5
301
100
AcDbEntity
8
0
100
AcDbCircle
10
159.40585946137688
20
-57.47469749867755
30
0
40
0.50000000000000711
210
0
220
0
230
1
100
AcDbArc
50
180
51
270
0
LINE
5
302
100
AcDbEntity
8
0
100
AcDbLine
10
169.40585946137685
20
-57.974697498677557
30
0
11
159.40585946137688
21
-57.974697498677557
31
0
0
CIRCLE
5
303
100
AcDbEntity
8
0
100
AcDbCircle
10
174.94541666271627
20
-52.027089120416008
30
0
40
1.5000000000000016
210
0
220
0
230
1
0
LINE
5
304
100
AcDbEntity
8
0
100
AcDbLine
10
183.90585946137685
20
-57.974697498677557
30
0
11
183.90585946137685
21
-47.47469749867755
31
0
0
ARC
5
305
100
AcDbEntity
8
0
100
AcDbCircle
10
184.40585946137685
20
-47.47469749867755
30
0
40
0.49999999999999822
210
0
220
-0
230
1
100
AcDbArc
50
90
51
180
0
LINE
5
306
100
AcDbEntity
8
0
100
AcDbLine
10
184.40585946137685
20
-46.974697498677557
30
0
11
194.40585946137685
21
-46.974697498677557
31
0
0
ARC
5
307
100
AcDbEntity
8
0
100
AcDbCircle
10
194.40585946137685
20
-47.47469749867755
30
0
40
0.50000000000000711
210
0
220
0
230
1
100
AcDbArc
50
0
51
90
0
LINE
5
308
100
AcDbEntity
8
0
100
AcDbLine
10
194.90585946137685
20
-47.47469749867755
30
0
11
194.90585946137685
21
-57.47469749867755
31
0
0
ARC
5
309
100
AcDbEntity
8
0
100
AcDbCircle
10
194.40585946137685
20
-57.47469749867755
30
0
40
0.50000000000000711
210
-0
220
0
230
1
100
AcDbArc
50
-90
51
0
0
ARC
5
310
100
AcDbEntity
8
0
100
AcDbCircle
10
184.40585946137685
20
-57.47469749867755
30
0
40
0.50000000000000711
210
0
220
0
230
1
100
AcDbArc
50
180
51
270
0
LINE
5
311
100
AcDbEntity
8
0
100
AcDbLine
10
194.40585946137685
20
-57.974697498677557
30
0
11
184.40585946137685
21
-57.974697498677557
31
0
0
CIRCLE
5
312
100
AcDbEntity
8
0
100
AcDbCircle
10
199.94541666271627
20
-52.027089120416008
30
0
40
1.5000000000000016
210
0
220
0
230
1
0
CIRCLE
5
313
100
AcDbEntity
8
0
100
AcDbCircle
10
24.945416662716244
20
-65.027089120416008
30
0
40
1.5000000000000016
210
0
220
0
230
1
0
CIRCLE
5
314
100
AcDbEntity
8
0
100
AcDbCircle
10
49.945416662716255
20
-65.027089120416008
30
0
40
1.5000000000000016
210
0
220
0
230
1
0
CIRCLE
5
315
100
AcDbEntity
8
0
100
AcDbCircle
10
74.945416662716255
20
-65.027089120416008
30
0
40
1.5000000000000016
210
0
220
0
230
1
0
CIRCLE
5
316
100
AcDbEntity
8
0
100
AcDbCircle
10
99.945416662716241
20
-65.027089120416008
30
0
40
1.5000000000000016
210
0
220
0
230
1
0
LINE
5
317
100
AcDbEntity
8
0
100
AcDbLine
10
108.90585946137688
20
-70.974697498677557
30
0
11
108.90585946137688
21
-60.47469749867755
31
0
0
ARC
5
318
100
AcDbEntity
8
0
100
AcDbCircle
10
109.40585946137686
20
-60.47469749867755
30
0
40
0.49999999999999822
210
0
220
-0
230
1
100
AcDbArc
50
90
51
180
0
LINE
5
319
100
AcDbEntity
8
0
100
AcDbLine
10
109.40585946137686
20
-59.97469749867755
30
0
11
119.40585946137686
21
-59.97469749867755
31
0
0
ARC
5
320
100
AcDbEntity
8
0
100
AcDbCircle
10
119.40585946137686
20
-60.47469749867755
30
0
40
0.50000000000000711
210
0
220
0
230
1
100
AcDbArc
50
0
51
90
0
LINE
5
321
100
AcDbEntity
8
0
100
AcDbLine
10
119.90585946137686
20
-60.47469749867755
30
0
11
119.90585946137686
21
-70.474697498677557
31
0
0
ARC
5
322
100
AcDbEntity
8
0
100
AcDbCircle
10
119.40585946137686
20
-70.474697498677557
30
0
40
0.50000000000000711
210
-0
220
0
230
1
100
AcDbArc
50
-90
51
0
0
ARC
5
323
100
AcDbEntity
8
0
100
AcDbCircle
10
109.40585946137688
20
-70.474697498677557
30
0
40
0.50000000000000711
210
0
220
0
230
1
100
AcDbArc
50
180
51
270
0
LINE
5
324
100
AcDbEntity
8
0
100
AcDbLine
10
119.40585946137686
20
-70.974697498677557
30
0
11
109.40585946137688
21
-70.974697498677557
31
0
0
CIRCLE
5
325
100
AcDbEntity
8
0
100
AcDbCircle
10
124.94541666271624
20
-65.027089120416008
30
0
40
1.5000000000000016
210
0
220
0
230
1
0
LINE
5
326
100
AcDbEntity
8
0
100
AcDbLine
10
133.90585946137688
20
-70.974697498677557
30
0
11
133.90585946137688
21
-60.47469749867755
31
0
0
ARC
5
327
100
AcDbEntity
8
0
100
AcDbCircle
10
134.40585946137685
20
-60.47469749867755
30
0
40
0.49999999999999822
210
0
220
-0
230
1
100
AcDbArc
50
90
51
180
0
LINE
5
328
100
AcDbEntity
8
0
100
AcDbLine
10
134.40585946137685
20
-59.97469749867755
30
0
11
144.40585946137685
21
-59.97469749867755
31
0
0
ARC
5
329
100
AcDbEntity
8
0
100
AcDbCircle
10
144.40585946137685
20
-60.47469749867755
30
0
40
0.50000000000000711
210
0
220
0
230
1
100
AcDbArc
50
0
51
90
0
LINE
5
330
100
AcDbEntity
8
0
100
AcDbLine
10
144.90585946137688
20
-60.47469749867755
30
0
11
144.90585946137688
21
-70.474697498677557
31
0
0
ARC
5
331
100
AcDbEntity
8
0
100
AcDbCircle
10
144.40585946137685
20
-70.474697498677557
30
0
40
0.50000000000000711
210
-0
220
0
230
1
100
AcDbArc
50
-90
51
0
0
ARC
5
332
100
AcDbEntity
8
0
100
AcDbCircle
10
134.40585946137688
20
-70.474697498677557
30
0
40
0.50000000000000711
210
0
220
0
230
1
100
AcDbArc
50
180
51
270
0
LINE
5
333
100
AcDbEntity
8
0
100
AcDbLine
10
144.40585946137685
20
-70.974697498677557
30
0
11
134.40585946137688
21
-70.974697498677557
31
0
0
CIRCLE
5
334
100
AcDbEntity
8
0
100
AcDbCircle
10
149.94541666271624
20
-65.027089120416008
30
0
40
1.5000000000000016
210
0
220
0
230
1
0
LINE
5
335
100
AcDbEntity
8
0
100
AcDbLine
10
158.90585946137688
20
-70.974697498677557
30
0
11
158.90585946137688
21
-60.47469749867755
31
0
0
ARC
5
336
100
AcDbEntity
8
0
100
AcDbCircle
10
159.40585946137685
20
-60.47469749867755
30
0
40
0.49999999999999822
210
0
220
-0
230
1
100
AcDbArc
50
90
51
180
0
LINE
5
337
100
AcDbEntity
8
0
100
AcDbLine
10
159.40585946137685
20
-59.97469749867755
30
0
11
169.40585946137685
21
-59.97469749867755
31
0
0
ARC
5
338
100
AcDbEntity
8
0
100
AcDbCircle
10
169.40585946137685
20
-60.47469749867755
30
0
40
0.50000000000000711
210
0
220
0
230
1
100
AcDbArc
50
0
51
90
0
LINE
5
339
100
AcDbEntity
8
0
100
AcDbLine
10
169.90585946137685
20
-60.47469749867755
30
0
11
169.90585946137685
21
-70.474697498677557
31
0
0
ARC
5
340
100
AcDbEntity
8
0
100
AcDbCircle
10
169.40585946137685
20
-70.474697498677557
30
0
40
0.50000000000000711
210
-0
220
0
230
1
100
AcDbArc
50
-90
51
0
0
ARC
5
341
100
AcDbEntity
8
0
100
AcDbCircle
10
159.40585946137688
20
-70.474697498677557
30
0
40
0.50000000000000711
210
0
220
0
230
1
100
AcDbArc
50
180
51
270
0
LINE
5
342
100
AcDbEntity
8
0
100
AcDbLine
10
169.40585946137685
20
-70.974697498677557
30
0
11
159.40585946137688
21
-70.974697498677557
31
0
0
CIRCLE
5
343
100
AcDbEntity
8
0
100
AcDbCircle
10
174.94541666271627
20
-65.027089120416008
30
0
40
1.5000000000000016
210
0
220
0
230
1
0
LINE
5
344
100
AcDbEntity
8
0
100
AcDbLine
10
183.90585946137685
20
-70.974697498677557
30
0
11
183.90585946137685
21
-60.47469749867755
31
0
0
ARC
5
345
100
AcDbEntity
8
0
100
AcDbCircle
10
184.40585946137685
20
-60.47469749867755
30
0
40
0.49999999999999822
210
0
220
-0
230
1
100
AcDbArc
50
90
51
180
0
LINE
5
346
100
AcDbEntity
8
0
100
AcDbLine
10
184.40585946137685
20
-59.97469749867755
30
0
11
194.40585946137685
21
-59.97469749867755
31
0
0
ARC
5
347
100
AcDbEntity
8
0
100
AcDbCircle
10
194.40585946137685
20
-60.47469749867755
30
0
40
0.50000000000000711
210
0
220
0
230
1
100
AcDbArc
50
0
51
90
0
LINE
5
348
100
AcDbEntity
8
0
100
AcDbLine
10
194.90585946137685
20
-60.47469749867755
30
0
11
194.90585946137685
21
-70.474697498677557
31
0
0
ARC
5
349
100
AcDbEntity
8
0
100
AcDbCircle
10
194.40585946137685
20
-70.474697498677557
30
0
40
0.50000000000000711
210
-0
220
0
230
1
100
AcDbArc
50
-90
51
0
0
ARC
5
350
100
AcDbEntity
8
0
100
AcDbCircle
10
184.40585946137685
20
-70.474697498677557
30
0
40
0.50000000000000711
210
0
220
0
230
1
100
AcDbArc
50
180
51
270
0
LINE
5
351
100
AcDbEntity
8
0
100
AcDbLine
10
194.40585946137685
20
-70.974697498677557
30
0
11
184.40585946137685
21
-70.974697498677557
31
0
0
CIRCLE
5
352
100
AcDbEntity
8
0
100
AcDbCircle
10
199.94541666271627
20
-65.027089120416008
30
0
40
1.5000000000000016
210
0
220
0
230
1
0
CIRCLE
5
353
100
AcDbEntity
8
0
100
AcDbCircle
10
24.945416662716244
20
-78.027089120416008
30
0
40
1.5000000000000016
210
0
220
0
230
1
0
CIRCLE
5
354
100
AcDbEntity
8
0
100
AcDbCircle
10
49.945416662716255
20
-78.027089120416008
30
0
40
1.5000000000000016
210
0
220
0
230
1
0
CIRCLE
5
355
100
AcDbEntity
8
0
100
AcDbCircle
10
74.945416662716255
20
-78.027089120416008
30
0
40
1.5000000000000016
210
0
220
0
230
1
0
CIRCLE
5
356
100
AcDbEntity
8
0
100
AcDbCircle
10
99.945416662716241
20
-78.027089120416008
30
0
40
1.5000000000000016
210
0
220
0
230
1
0
LINE
5
357
100
AcDbEntity
8
0
100
AcDbLine
10
108.90585946137688
20
-83.974697498677557
30
0
11
108.90585946137688
21
-73.474697498677543
31
0
0
ARC
5
358
100
AcDbEntity
8
0
100
AcDbCircle
10
109.40585946137686
20
-73.474697498677543
30
0
40
0.49999999999999822
210
0
220
-0
230
1
100
AcDbArc
50
90
51
180
0
LINE
5
359
100
AcDbEntity
8
0
100
AcDbLine
10
109.40585946137686
20
-72.974697498677557
30
0
11
119.40585946137686
21
-72.974697498677557
31
0
0
ARC
5
360
100
AcDbEntity
8
0
100
AcDbCircle
10
119.40585946137686
20
-73.474697498677543
30
0
40
0.50000000000000711
210
0
220
0
230
1
100
AcDbArc
50
0
51
90
0
LINE
5
361
100
AcDbEntity
8
0
100
AcDbLine
10
119.90585946137686
20
-73.474697498677543
30
0
11
119.90585946137686
21
-83.474697498677557
31
0
0
ARC
5
362
100
AcDbEntity
8
0
100
AcDbCircle
10
119.40585946137686
20
-83.474697498677557
30
0
40
0.50000000000000711
210
-0
220
0
230
1
100
AcDbArc
50
-90
51
0
0
ARC
5
363
100
AcDbEntity
8
0
100
AcDbCircle
10
109.40585946137688
20
-83.474697498677557
30
0
40
0.50000000000000711
210
0
220
0
230
1
100
AcDbArc
50
180
51
270
0
LINE
5
364
100
AcDbEntity
8
0
100
AcDbLine
10
119.40585946137686
20
-83.974697498677557
30
0
11
109.40585946137688
21
-83.974697498677557
31
0
0
CIRCLE
5
365
100
AcDbEntity
8
0
100
AcDbCircle
10
124.94541666271624
20
-78.027089120416008
30
0
40
1.5000000000000016
210
0
220
0
230
1
0
LINE
5
366
100
AcDbEntity
8
0
100
AcDbLine
10
133.90585946137688
20
-83.974697498677557
30
0
11
133.90585946137688
21
-73.474697498677543
31
0
0
ARC
5
367
100
AcDbEntity
8
0
100
AcDbCircle
10
134.40585946137685
20
-73.474697498677543
30
0
40
0.49999999999999822
210
0
220
-0
230
1
100
AcDbArc
50
90
51
180
0
LINE
5
368
100
AcDbEntity
8
0
100
AcDbLine
10
134.40585946137685
20
-72.974697498677557
30
0
11
144.40585946137685
21
-72.974697498677557
31
0
0
ARC
5
369
100
AcDbEntity
8
0
100
AcDbCircle
10
144.40585946137685
20
-73.474697498677543
30
0
40
0.50000000000000711
210
0
220
0
230
1
100
AcDbArc
50
0
51
90
0
LINE
5
370
100
AcDbEntity
8
0
100
AcDbLine
10
144.90585946137688
20
-73.474697498677543
30
0
11
144.90585946137688
21
-83.474697498677557
31
0
0
ARC
5
371
100
AcDbEntity
8
0
100
AcDbCircle
10
144.40585946137685
20
-83.474697498677557
30
0
40
0.50000000000000711
210
-0
220
0
230
1
100
AcDbArc
50
-90
51
0
0
ARC
5
372
100
AcDbEntity
8
0
100
AcDbCircle
10
134.40585946137688
20
-83.474697498677557
30
0
40
0.50000000000000711
210
0
220
0
230
1
100
AcDbArc
50
180
51
270
0
LINE
5
373
100
AcDbEntity
8
0
100
AcDbLine
10
144.40585946137685
20
-83.974697498677557
30
0
11
134.40585946137688
21
-83.974697498677557
31
0
0
CIRCLE
5
374
100
AcDbEntity
8
0
100
AcDbCircle
10
149.94541666271624
20
-78.027089120416008
30
0
40
1.5000000000000016
210
0
220
0
230
1
0
LINE
5
375
100
AcDbEntity
8
0
100
AcDbLine
10
158.90585946137688
20
-83.974697498677557
30
0
11
158.90585946137688
21
-73.474697498677543
31
0
0
ARC
5
376
100
AcDbEntity
8
0
100
AcDbCircle
10
159.40585946137685
20
-73.474697498677543
30
0
40
0.49999999999999822
210
0
220
-0
230
1
100
AcDbArc
50
90
51
180
0
LINE
5
377
100
AcDbEntity
8
0
100
AcDbLine
10
159.40585946137685
20
-72.974697498677557
30
0
11
169.40585946137685
21
-72.974697498677557
31
0
0
ARC
5
378
100
AcDbEntity
8
0
100
AcDbCircle
10
169.40585946137685
20
-73.474697498677543
30
0
40
0.50000000000000711
210
0
220
0
230
1
100
AcDbArc
50
0
51
90
0
LINE
5
379
100
AcDbEntity
8
0
100
AcDbLine
10
169.90585946137685
20
-73.474697498677543
30
0
11
169.90585946137685
21
-83.474697498677557
31
0
0
ARC
5
380
100
AcDbEntity
8
0
100
AcDbCircle
10
169.40585946137685
20
-83.474697498677557
30
0
40
0.50000000000000711
210
-0
220
0
230
1
100
AcDbArc
50
-90
51
0
0
ARC
5
381
100
AcDbEntity
8
0
100
AcDbCircle
10
159.40585946137688
20
-83.474697498677557
30
0
40
0.50000000000000711
210
0
220
0
230
1
100
AcDbArc
50
180
51
270
0
LINE
5
382
100
AcDbEntity
8
0
100
AcDbLine
10
169.40585946137685
20
-83.974697498677557
30
0
11
159.40585946137688
21
-83.974697498677557
31
0
0
CIRCLE
5
383
100
AcDbEntity
8
0
100
AcDbCircle
10
174.94541666271627
20
-78.027089120416008
30
0
40
1.5000000000000016
210
0
220
0
230
1
0
LINE
5
384
100
AcDbEntity
8
0
100
AcDbLine
10
183.90585946137685
20
-83.974697498677557
30
0
11
183.90585946137685
21
-73.474697498677543
31
0
0
ARC
5
385
100
AcDbEntity
8
0
100
AcDbCircle
10
184.40585946137685
20
-73.474697498677543
30
0
40
0.49999999999999822
210
0
220
-0
230
1
100
AcDbArc
50
90
51
180
0
LINE
5
386
100
AcDbEntity
8
0
100
AcDbLine
10
184.40585946137685
20
-72.974697498677557
30
0
11
194.40585946137685
21
-72.974697498677557
31
0
0
ARC
5
387
100
AcDbEntity
8
0
100
AcDbCircle
10
194.40585946137685
20
-73.474697498677543
30
0
40
0.50000000000000711
210
0
220
0
230
1
100
AcDbArc
50
0
51
90
0
LINE
5
388
100
AcDbEntity
8
0
100
AcDbLine
10
194.90585946137685
20
-73.474697498677543
30
0
11
194.90585946137685
21
-83.474697498677557
31
0
0
ARC
5
389
100
AcDbEntity
8
0
100
AcDbCircle
10
194.40585946137685
20
-83.474697498677557
30
0
40
0.50000000000000711
210
-0
220
0
230
1
100
AcDbArc
50
-90
51
0
0
ARC
5
390
100
AcDbEntity
8
0
100
AcDbCircle
10
184.40585946137685
20
-83.474697498677557
30
0
40
0.50000000000000711
210
0
220
0
230
1
100
AcDbArc
50
180
51
270
0
LINE
5
391
100
AcDbEntity
8
0
100
AcDbLine
10
194.40585946137685
20
-83.974697498677557
30
0
11
184.40585946137685
21
-83.974697498677557
31
0
0
CIRCLE
5
392
100
AcDbEntity
8
0
100
AcDbCircle
10
199.94541666271627
20
-78.027089120416008
30
0
40
1.5000000000000016
210
0
220
0
230
1
0
CIRCLE
5
393
100
AcDbEntity
8
0
100
AcDbCircle
10
14.532960875312344
20
-91.083177672108206
30
0
40
2.999999999999996
210
0
220
0
230
1
0
LINE
5
394
100
AcDbEntity
8
0
100
AcDbLine
10
9
20
-110.96323475235552
30
0
11
9
21
-100.46323475235552
31
0
0
ARC
5
395
100
AcDbEntity
8
0
100
AcDbCircle
10
9.4999999999999947
20
-100.46323475235552
30
0
40
0.49999999999998934
210
0
220
-0
230
1
100
AcDbArc
50
90
51
180
0
LINE
5
396
100
AcDbEntity
8
0
100
AcDbLine
10
9.4999999999999947
20
-99.963234752355532
30
0
11
19.5
21
-99.963234752355532
31
0
0
ARC
5
397
100
AcDbEntity
8
0
100
AcDbCircle
10
19.5
20
-100.46323475235552
30
0
40
0.49999999999999822
210
0
220
0
230
1
100
AcDbArc
50
0
51
90
0
LINE
5
398
100
AcDbEntity
8
0
100
AcDbLine
10
20
20
-100.46323475235552
30
0
11
20
21
-110.46323475235552
31
0
0
ARC
5
399
100
AcDbEntity
8
0
100
AcDbCircle
10
19.5
20
-110.46323475235552
30
0
40
0.50000000000000711
210
-0
220
0
230
1
100
AcDbArc
50
-90
51
0
0
LINE
5
400
100
AcDbEntity
8
0
100
AcDbLine
10
19.5
20
-110.96323475235552
30
0
11
9.5000000000000036
21
-110.96323475235552
31
0
0
ARC
5
401
100
AcDbEntity
8
0
100
AcDbCircle
10
9.5000000000000036
20
-110.46323475235552
30
0
40
0.50000000000000266
210
0
220
0
230
1
100
AcDbArc
50
180
51
270
0
CIRCLE
5
402
100
AcDbEntity
8
0
100
AcDbCircle
10
23.674661180836168
20
-105.46323475235552
30
0
40
1.5000000000000016
210
0
220
0
230
1
0
LINE
5
403
100
AcDbEntity
8
0
100
AcDbLine
10
34
20
-110.96323475235552
30
0
11
34
21
-100.46323475235552
31
0
0
ARC
5
404
100
AcDbEntity
8
0
100
AcDbCircle
10
34.499999999999993
20
-100.46323475235552
30
0
40
0.49999999999998934
210
0
220
-0
230
1
100
AcDbArc
50
90
51
180
0
LINE
5
405
100
AcDbEntity
8
0
100
AcDbLine
10
34.499999999999993
20
-99.963234752355532
30
0
11
44.5
21
-99.963234752355532
31
0
0
ARC
5
406
100
AcDbEntity
8
0
100
AcDbCircle
10
44.5
20
-100.46323475235552
30
0
40
0.49999999999999822
210
0
220
0
230
1
100
AcDbArc
50
0
51
90
0
LINE
5
407
100
AcDbEntity
8
0
100
AcDbLine
10
45
20
-100.46323475235552
30
0
11
45
21
-110.46323475235552
31
0
0
ARC
5
408
100
AcDbEntity
8
0
100
AcDbCircle
10
44.5
20
-110.46323475235552
30
0
40
0.50000000000000711
210
-0
220
0
230
1
100
AcDbArc
50
-90
51
0
0
ARC
5
409
100
AcDbEntity
8
0
100
AcDbCircle
10
34.5
20
-110.46323475235552
30
0
40
0.49999999999999822
210
0
220
0
230
1
100
AcDbArc
50
180
51
270
0
LINE
5
410
100
AcDbEntity
8
0
100
AcDbLine
10
44.5
20
-110.96323475235552
30
0
11
34.5
21
-110.96323475235552
31
0
0
LINE
5
411
100
AcDbEntity
8
0
100
AcDbLine
10
59
20
-110.96323475235552
30
0
11
59
21
-100.46323475235552
31
0
0
ARC
5
412
100
AcDbEntity
8
0
100
AcDbCircle
10
59.499999999999993
20
-100.46323475235552
30
0
40
0.49999999999998934
210
0
220
-0
230
1
100
AcDbArc
50
90
51
180
0
LINE
5
413
100
AcDbEntity
8
0
100
AcDbLine
10
59.499999999999993
20
-99.963234752355532
30
0
11
69.5
21
-99.963234752355532
31
0
0
ARC
5
414
100
AcDbEntity
8
0
100
AcDbCircle
10
69.5
20
-100.46323475235552
30
0
40
0.49999999999999822
210
0
220
0
230
1
100
AcDbArc
50
0
51
90
0
LINE
5
415
100
AcDbEntity
8
0
100
AcDbLine
10
70
20
-100.46323475235552
30
0
11
70
21
-110.46323475235552
31
0
0
ARC
5
416
100
AcDbEntity
8
0
100
AcDbCircle
10
69.5
20
-110.46323475235552
30
0
40
0.50000000000000711
210
-0
220
0
230
1
100
AcDbArc
50
-90
51
0
0
ARC
5
417
100
AcDbEntity
8
0
100
AcDbCircle
10
59.5
20
-110.46323475235552
30
0
40
0.49999999999999822
210
0
220
0
230
1
100
AcDbArc
50
180
51
270
0
LINE
5
418
100
AcDbEntity
8
0
100
AcDbLine
10
69.5
20
-110.96323475235552
30
0
11
59.5
21
-110.96323475235552
31
0
0
LINE
5
419
100
AcDbEntity
8
0
100
AcDbLine
10
84
20
-110.96323475235552
30
0
11
84
21
-100.46323475235552
31
0
0
ARC
5
420
100
AcDbEntity
8
0
100
AcDbCircle
10
84.5
20
-100.46323475235552
30
0
40
0.49999999999998934
210
0
220
-0
230
1
100
AcDbArc
50
90
51
180
0
LINE
5
421
100
AcDbEntity
8
0
100
AcDbLine
10
84.5
20
-99.963234752355532
30
0
11
94.5
21
-99.963234752355532
31
0
0
ARC
5
422
100
AcDbEntity
8
0
100
AcDbCircle
10
94.5
20
-100.46323475235552
30
0
40
0.50000000000000711
210
0
220
0
230
1
100
AcDbArc
50
0
51
90
0
LINE
5
423
100
AcDbEntity
8
0
100
AcDbLine
10
95
20
-100.46323475235552
30
0
11
95
21
-110.46323475235552
31
0
0
ARC
5
424
100
AcDbEntity
8
0
100
AcDbCircle
10
94.5
20
-110.46323475235552
30
0
40
0.50000000000000711
210
-0
220
0
230
1
100
AcDbArc
50
-90
51
0
0
ARC
5
425
100
AcDbEntity
8
0
100
AcDbCircle
10
84.500000000000014
20
-110.46323475235552
30
0
40
0.50000000000000711
210
0
220
0
230
1
100
AcDbArc
50
180
51
270
0
LINE
5
426
100
AcDbEntity
8
0
100
AcDbLine
10
94.5
20
-110.96323475235552
30
0
11
84.500000000000014
21
-110.96323475235552
31
0
0
LINE
5
427
100
AcDbEntity
8
0
100
AcDbLine
10
9
20
-125.96323475235552
30
0
11
9
21
-115.46323475235552
31
0
0
ARC
5
428
100
AcDbEntity
8
0
100
AcDbCircle
10
9.4999999999999947
20
-115.46323475235552
30
0
40
0.49999999999998934
210
0
220
-0
230
1
100
AcDbArc
50
90
51
180
0
LINE
5
429
100
AcDbEntity
8
0
100
AcDbLine
10
9.4999999999999947
20
-114.96323475235553
30
0
11
19.5
21
-114.96323475235553
31
0
0
ARC
5
430
100
AcDbEntity
8
0
100
AcDbCircle
10
19.5
20
-115.46323475235552
30
0
40
0.49999999999999822
210
0
220
0
230
1
100
AcDbArc
50
0
51
90
0
LINE
5
431
100
AcDbEntity
8
0
100
AcDbLine
10
20
20
-115.46323475235552
30
0
11
20
21
-125.46323475235552
31
0
0
ARC
5
432
100
AcDbEntity
8
0
100
AcDbCircle
10
19.5
20
-125.46323475235552
30
0
40
0.50000000000000711
210
-0
220
0
230
1
100
AcDbArc
50
-90
51
0
0
ARC
5
433
100
AcDbEntity
8
0
100
AcDbCircle
10
9.5000000000000036
20
-125.46323475235552
30
0
40
0.50000000000000266
210
0
220
0
230
1
100
AcDbArc
50
180
51
270
0
LINE
5
434
100
AcDbEntity
8
0
100
AcDbLine
10
19.5
20
-125.96323475235552
30
0
11
9.5000000000000036
21
-125.96323475235552
31
0
0
LINE
5
435
100
AcDbEntity
8
0
100
AcDbLine
10
34
20
-125.96323475235552
30
0
11
34
21
-115.46323475235552
31
0
0
ARC
5
436
100
AcDbEntity
8
0
100
AcDbCircle
10
34.499999999999993
20
-115.46323475235552
30
0
40
0.49999999999998934
210
0
220
-0
230
1
100
AcDbArc
50
90
51
180
0
LINE
5
437
100
AcDbEntity
8
0
100
AcDbLine
10
34.499999999999993
20
-114.96323475235553
30
0
11
44.5
21
-114.96323475235553
31
0
0
ARC
5
438
100
AcDbEntity
8
0
100
AcDbCircle
10
44.5
20
-115.46323475235552
30
0
40
0.49999999999999822
210
0
220
0
230
1
100
AcDbArc
50
0
51
90
0
LINE
5
439
100
AcDbEntity
8
0
100
AcDbLine
10
45
20
-115.46323475235552
30
0
11
45
21
-125.46323475235552
31
0
0
ARC
5
440
100
AcDbEntity
8
0
100
AcDbCircle
10
44.5
20
-125.46323475235552
30
0
40
0.50000000000000711
210
-0
220
0
230
1
100
AcDbArc
50
-90
51
0
0
ARC
5
441
100
AcDbEntity
8
0
100
AcDbCircle
10
34.5
20
-125.46323475235552
30
0
40
0.49999999999999822
210
0
220
0
230
1
100
AcDbArc
50
180
51
270
0
LINE
5
442
100
AcDbEntity
8
0
100
AcDbLine
10
44.5
20
-125.96323475235552
30
0
11
34.5
21
-125.96323475235552
31
0
0
LINE
5
443
100
AcDbEntity
8
0
100
AcDbLine
10
59
20
-125.96323475235552
30
0
11
59
21
-115.46323475235552
31
0
0
ARC
5
444
100
AcDbEntity
8
0
100
AcDbCircle
10
59.499999999999993
20
-115.46323475235552
30
0
40
0.49999999999998934
210
0
220
-0
230
1
100
AcDbArc
50
90
51
180
0
LINE
5
445
100
AcDbEntity
8
0
100
AcDbLine
10
59.499999999999993
20
-114.96323475235553
30
0
11
69.5
21
-114.96323475235553
31
0
0
ARC
5
446
100
AcDbEntity
8
0
100
AcDbCircle
10
69.5
20
-115.46323475235552
30
0
40
0.49999999999999822
210
0
220
0
230
1
100
AcDbArc
50
0
51
90
0
LINE
5
447
100
AcDbEntity
8
0
100
AcDbLine
10
70
20
-115.46323475235552
30
0
11
70
21
-125.46323475235552
31
0
0
ARC
5
448
100
AcDbEntity
8
0
100
AcDbCircle
10
69.5
20
-125.46323475235552
30
0
40
0.50000000000000711
210
-0
220
0
230
1
100
AcDbArc
50
-90
51
0
0
ARC
5
449
100
AcDbEntity
8
0
100
AcDbCircle
10
59.5
20
-125.46323475235552
30
0
40
0.49999999999999822
210
0
220
0
230
1
100
AcDbArc
50
180
51
270
0
LINE
5
450
100
AcDbEntity
8
0
100
AcDbLine
10
69.5
20
-125.96323475235552
30
0
11
59.5
21
-125.96323475235552
31
0
0
LINE
5
451
100
AcDbEntity
8
0
100
AcDbLine
10
84
20
-125.96323475235552
30
0
11
84
21
-115.46323475235552
31
0
0
ARC
5
452
100
AcDbEntity
8
0
100
AcDbCircle
10
84.5
20
-115.46323475235552
30
0
40
0.49999999999998934
210
0
220
-0
230
1
100
AcDbArc
50
90
51
180
0
LINE
5
453
100
AcDbEntity
8
0
100
AcDbLine
10
84.5
20
-114.96323475235553
30
0
11
94.5
21
-114.96323475235553
31
0
0
ARC
5
454
100
AcDbEntity
8
0
100
AcDbCircle
10
94.5
20
-115.46323475235552
30
0
40
0.50000000000000711
210
0
220
0
230
1
100
AcDbArc
50
0
51
90
0
LINE
5
455
100
AcDbEntity
8
0
100
AcDbLine
10
95
20
-115.46323475235552
30
0
11
95
21
-125.46323475235552
31
0
0
ARC
5
456
100
AcDbEntity
8
0
100
AcDbCircle
10
94.5
20
-125.46323475235552
30
0
40
0.50000000000000711
210
-0
220
0
230
1
100
AcDbArc
50
-90
51
0
0
ARC
5
457
100
AcDbEntity
8
0
100
AcDbCircle
10
84.500000000000014
20
-125.46323475235552
30
0
40
0.50000000000000711
210
0
220
0
230
1
100
AcDbArc
50
180
51
270
0
LINE
5
458
100
AcDbEntity
8
0
100
AcDbLine
10
94.5
20
-125.96323475235552
30
0
11
84.500000000000014
21
-125.96323475235552
31
0
0
CIRCLE
5
459
100
AcDbEntity
8
0
100
AcDbCircle
10
48.674661180836168
20
-105.46323475235552
30
0
40
1.5000000000000016
210
0
220
0
230
1
0
CIRCLE
5
460
100
AcDbEntity
8
0
100
AcDbCircle
10
73.674661180836168
20
-105.46323475235552
30
0
40
1.5000000000000016
210
0
220
0
230
1
0
CIRCLE
5
461
100
AcDbEntity
8
0
100
AcDbCircle
10
98.674661180836154
20
-105.46323475235552
30
0
40
1.5000000000000016
210
0
220
0
230
1
0
CIRCLE
5
462
100
AcDbEntity
8
0
100
AcDbCircle
10
23.674661180836168
20
-120.46323475235552
30
0
40
1.5000000000000016
210
0
220
0
230
1
0
CIRCLE
5
463
100
AcDbEntity
8
0
100
AcDbCircle
10
48.674661180836168
20
-120.46323475235552
30
0
40
1.5000000000000016
210
0
220
0
230
1
0
CIRCLE
5
464
100
AcDbEntity
8
0
100
AcDbCircle
10
73.674661180836168
20
-120.46323475235552
30
0
40
1.5000000000000016
210
0
220
0
230
1
0
CIRCLE
5
465
100
AcDbEntity
8
0
100
AcDbCircle
10
98.674661180836154
20
-120.46323475235552
30
0
40
1.5000000000000016
210
0
220
0
230
1
0
CIRCLE
5
466
100
AcDbEntity
8
0
100
AcDbCircle
10
39.532960875312341
20
-91.083177672108206
30
0
40
2.999999999999996
210
0
220
0
230
1
0
CIRCLE
5
467
100
AcDbEntity
8
0
100
AcDbCircle
10
64.532960875312341
20
-91.083177672108206
30
0
40
2.999999999999996
210
0
220
0
230
1
0
CIRCLE
5
468
100
AcDbEntity
8
0
100
AcDbCircle
10
89.532960875312341
20
-91.083177672108206
30
0
40
2.999999999999996
210
0
220
0
230
1
0
CIRCLE
5
469
100
AcDbEntity
8
0
100
AcDbCircle
10
114.53296087531234
20
-91.083177672108206
30
0
40
2.999999999999996
210
0
220
0
230
1
0
CIRCLE
5
470
100
AcDbEntity
8
0
100
AcDbCircle
10
139.53296087531234
20
-91.083177672108206
30
0
40
2.999999999999996
210
0
220
0
230
1
0
CIRCLE
5
471
100
AcDbEntity
8
0
100
AcDbCircle
10
164.53296087531237
20
-91.083177672108206
30
0
40
2.999999999999996
210
0
220
0
230
1
0
CIRCLE
5
472
100
AcDbEntity
8
0
100
AcDbCircle
10
189.53296087531237
20
-91.083177672108206
30
0
40
2.999999999999996
210
0
220
0
230
1
0
LINE
5
473
100
AcDbEntity
8
0
100
AcDbLine
10
109
20
-110.96323475235552
30
0
11
109
21
-100.46323475235552
31
0
0
ARC
5
474
100
AcDbEntity
8
0
100
AcDbCircle
10
109.5
20
-100.46323475235552
30
0
40
0.49999999999998934
210
0
220
-0
230
1
100
AcDbArc
50
90
51
180
0
LINE
5
475
100
AcDbEntity
8
0
100
AcDbLine
10
109.5
20
-99.963234752355532
30
0
11
119.5
21
-99.963234752355532
31
0
0
ARC
5
476
100
AcDbEntity
8
0
100
AcDbCircle
10
119.5
20
-100.46323475235552
30
0
40
0.50000000000000711
210
0
220
0
230
1
100
AcDbArc
50
0
51
90
0
LINE
5
477
100
AcDbEntity
8
0
100
AcDbLine
10
120
20
-100.46323475235552
30
0
11
120
21
-110.46323475235552
31
0
0
ARC
5
478
100
AcDbEntity
8
0
100
AcDbCircle
10
119.5
20
-110.46323475235552
30
0
40
0.50000000000000711
210
0
220
0
230
1
100
AcDbArc
50
-90
51
0
0
ARC
5
479
100
AcDbEntity
8
0
100
AcDbCircle
10
109.50000000000001
20
-110.46323475235552
30
0
40
0.50000000000000711
210
0
220
0
230
1
100
AcDbArc
50
180
51
270
0
LINE
5
480
100
AcDbEntity
8
0
100
AcDbLine
10
119.5
20
-110.96323475235552
30
0
11
109.50000000000001
21
-110.96323475235552
31
0
0
CIRCLE
5
481
100
AcDbEntity
8
0
100
AcDbCircle
10
123.67466118083615
20
-105.46323475235552
30
0
40
1.5000000000000016
210
0
220
0
230
1
0
LINE
5
482
100
AcDbEntity
8
0
100
AcDbLine
10
134
20
-110.96323475235552
30
0
11
134
21
-100.46323475235552
31
0
0
ARC
5
483
100
AcDbEntity
8
0
100
AcDbCircle
10
134.5
20
-100.46323475235552
30
0
40
0.49999999999998934
210
0
220
-0
230
1
100
AcDbArc
50
90
51
180
0
LINE
5
484
100
AcDbEntity
8
0
100
AcDbLine
10
134.5
20
-99.963234752355532
30
0
11
144.5
21
-99.963234752355532
31
0
0
ARC
5
485
100
AcDbEntity
8
0
100
AcDbCircle
10
144.5
20
-100.46323475235552
30
0
40
0.50000000000000711
210
0
220
0
230
1
100
AcDbArc
50
0
51
90
0
LINE
5
486
100
AcDbEntity
8
0
100
AcDbLine
10
145
20
-100.46323475235552
30
0
11
145
21
-110.46323475235552
31
0
0
ARC
5
487
100
AcDbEntity
8
0
100
AcDbCircle
10
144.5
20
-110.46323475235552
30
0
40
0.50000000000000711
210
0
220
0
230
1
100
AcDbArc
50
-90
51
0
0
ARC
5
488
100
AcDbEntity
8
0
100
AcDbCircle
10
134.5
20
-110.46323475235552
30
0
40
0.50000000000000711
210
0
220
0
230
1
100
AcDbArc
50
180
51
270
0
LINE
5
489
100
AcDbEntity
8
0
100
AcDbLine
10
144.5
20
-110.96323475235552
30
0
11
134.5
21
-110.96323475235552
31
0
0
CIRCLE
5
490
100
AcDbEntity
8
0
100
AcDbCircle
10
148.67466118083615
20
-105.46323475235552
30
0
40
1.5000000000000016
210
0
220
0
230
1
0
LINE
5
491
100
AcDbEntity
8
0
100
AcDbLine
10
159
20
-110.96323475235552
30
0
11
159
21
-100.46323475235552
31
0
0
ARC
5
492
100
AcDbEntity
8
0
100
AcDbCircle
10
159.5
20
-100.46323475235552
30
0
40
0.49999999999998934
210
0
220
-0
230
1
100
AcDbArc
50
90
51
180
0
LINE
5
493
100
AcDbEntity
8
0
100
AcDbLine
10
159.5
20
-99.963234752355532
30
0
11
169.5
21
-99.963234752355532
31
0
0
ARC
5
494
100
AcDbEntity
8
0
100
AcDbCircle
10
169.5
20
-100.46323475235552
30
0
40
0.50000000000000711
210
0
220
0
230
1
100
AcDbArc
50
0
51
90
0
LINE
5
495
100
AcDbEntity
8
0
100
AcDbLine
10
170
20
-100.46323475235552
30
0
11
170
21
-110.46323475235552
31
0
0
ARC
5
496
100
AcDbEntity
8
0
100
AcDbCircle
10
169.5
20
-110.46323475235552
30
0
40
0.50000000000000711
210
0
220
0
230
1
100
AcDbArc
50
-90
51
0
0
ARC
5
497
100
AcDbEntity
8
0
100
AcDbCircle
10
159.5
20
-110.46323475235552
30
0
40
0.50000000000000711
210
0
220
0
230
1
100
AcDbArc
50
180
51
270
0
LINE
5
498
100
AcDbEntity
8
0
100
AcDbLine
10
169.5
20
-110.96323475235552
30
0
11
159.5
21
-110.96323475235552
31
0
0
CIRCLE
5
499
100
AcDbEntity
8
0
100
AcDbCircle
10
173.67466118083615
20
-105.46323475235552
30
0
40
1.5000000000000016
210
0
220
0
230
1
0
LINE
5
500
100
AcDbEntity
8
0
100
AcDbLine
10
184
20
-110.96323475235552
30
0
11
184
21
-100.46323475235552
31
0
0
ARC
5
501
100
AcDbEntity
8
0
100
AcDbCircle
10
184.5
20
-100.46323475235552
30
0
40
0.49999999999998934
210
0
220
-0
230
1
100
AcDbArc
50
90
51
180
0
LINE
5
502
100
AcDbEntity
8
0
100
AcDbLine
10
184.5
20
-99.963234752355532
30
0
11
194.5
21
-99.963234752355532
31
0
0
ARC
5
503
100
AcDbEntity
8
0
100
AcDbCircle
10
194.5
20
-100.46323475235552
30
0
40
0.50000000000000711
210
0
220
0
230
1
100
AcDbArc
50
0
51
90
0
LINE
5
504
100
AcDbEntity
8
0
100
AcDbLine
10
195
20
-100.46323475235552
30
0
11
195
21
-110.46323475235552
31
0
0
ARC
5
505
100
AcDbEntity
8
0
100
AcDbCircle
10
194.5
20
-110.46323475235552
30
0
40
0.50000000000000711
210
0
220
0
230
1
100
AcDbArc
50
-90
51
0
0
ARC
5
506
100
AcDbEntity
8
0
100
AcDbCircle
10
184.5
20
-110.46323475235552
30
0
40
0.50000000000000711
210
0
220
0
230
1
100
AcDbArc
50
180
51
270
0
LINE
5
507
100
AcDbEntity
8
0
100
AcDbLine
10
194.5
20
-110.96323475235552
30
0
11
184.5
21
-110.96323475235552
31
0
0
CIRCLE
5
508
100
AcDbEntity
8
0
100
AcDbCircle
10
198.67466118083615
20
-105.46323475235552
30
0
40
1.5000000000000016
210
0
220
0
230
1
0
LINE
5
509
100
AcDbEntity
8
0
100
AcDbLine
10
109
20
-125.96323475235552
30
0
11
109
21
-115.46323475235552
31
0
0
ARC
5
510
100
AcDbEntity
8
0
100
AcDbCircle
10
109.5
20
-115.46323475235552
30
0
40
0.49999999999998934
210
0
220
-0
230
1
100
AcDbArc
50
90
51
180
0
LINE
5
511
100
AcDbEntity
8
0
100
AcDbLine
10
109.5
20
-114.96323475235553
30
0
11
119.5
21
-114.96323475235553
31
0
0
ARC
5
512
100
AcDbEntity
8
0
100
AcDbCircle
10
119.5
20
-115.46323475235552
30
0
40
0.50000000000000711
210
0
220
0
230
1
100
AcDbArc
50
0
51
90
0
LINE
5
513
100
AcDbEntity
8
0
100
AcDbLine
10
120
20
-115.46323475235552
30
0
11
120
21
-125.46323475235552
31
0
0
ARC
5
514
100
AcDbEntity
8
0
100
AcDbCircle
10
119.5
20
-125.46323475235552
30
0
40
0.50000000000000711
210
0
220
0
230
1
100
AcDbArc
50
-90
51
0
0
ARC
5
515
100
AcDbEntity
8
0
100
AcDbCircle
10
109.50000000000001
20
-125.46323475235552
30
0
40
0.50000000000000711
210
0
220
0
230
1
100
AcDbArc
50
180
51
270
0
LINE
5
516
100
AcDbEntity
8
0
100
AcDbLine
10
119.5
20
-125.96323475235552
30
0
11
109.50000000000001
21
-125.96323475235552
31
0
0
CIRCLE
5
517
100
AcDbEntity
8
0
100
AcDbCircle
10
123.67466118083615
20
-120.46323475235552
30
0
40
1.5000000000000016
210
0
220
0
230
1
0
LINE
5
518
100
AcDbEntity
8
0
100
AcDbLine
10
134
20
-125.96323475235552
30
0
11
134
21
-115.46323475235552
31
0
0
ARC
5
519
100
AcDbEntity
8
0
100
AcDbCircle
10
134.5
20
-115.46323475235552
30
0
40
0.49999999999998934
210
0
220
-0
230
1
100
AcDbArc
50
90
51
180
0
LINE
5
520
100
AcDbEntity
8
0
100
AcDbLine
10
134.5
20
-114.96323475235553
30
0
11
144.5
21
-114.96323475235553
31
0
0
ARC
5
521
100
AcDbEntity
8
0
100
AcDbCircle
10
144.5
20
-115.46323475235552
30
0
40
0.50000000000000711
210
0
220
0
230
1
100
AcDbArc
50
0
51
90
0
LINE
5
522
100
AcDbEntity
8
0
100
AcDbLine
10
145
20
-115.46323475235552
30
0
11
145
21
-125.46323475235552
31
0
0
ARC
5
523
100
AcDbEntity
8
0
100
AcDbCircle
10
144.5
20
-125.46323475235552
30
0
40
0.50000000000000711
210
0
220
0
230
1
100
AcDbArc
50
-90
51
0
0
ARC
5
524
100
AcDbEntity
8
0
100
AcDbCircle
10
134.5
20
-125.46323475235552
30
0
40
0.50000000000000711
210
0
220
0
230
1
100
AcDbArc
50
180
51
270
0
LINE
5
525
100
AcDbEntity
8
0
100
AcDbLine
10
144.5
20
-125.96323475235552
30
0
11
134.5
21
-125.96323475235552
31
0
0
CIRCLE
5
526
100
AcDbEntity
8
0
100
AcDbCircle
10
148.67466118083615
20
-120.46323475235552
30
0
40
1.5000000000000016
210
0
220
0
230
1
0
LINE
5
527
100
AcDbEntity
8
0
100
AcDbLine
10
159
20
-125.96323475235552
30
0
11
159
21
-115.46323475235552
31
0
0
ARC
5
528
100
AcDbEntity
8
0
100
AcDbCircle
10
159.5
20
-115.46323475235552
30
0
40
0.49999999999998934
210
0
220
-0
230
1
100
AcDbArc
50
90
51
180
0
LINE
5
529
100
AcDbEntity
8
0
100
AcDbLine
10
159.5
20
-114.96323475235553
30
0
11
169.5
21
-114.96323475235553
31
0
0
ARC
5
530
100
AcDbEntity
8
0
100
AcDbCircle
10
169.5
20
-115.46323475235552
30
0
40
0.50000000000000711
210
0
220
0
230
1
100
AcDbArc
50
0
51
90
0
LINE
5
531
100
AcDbEntity
8
0
100
AcDbLine
10
170
20
-115.46323475235552
30
0
11
170
21
-125.46323475235552
31
0
0
ARC
5
532
100
AcDbEntity
8
0
100
AcDbCircle
10
169.5
20
-125.46323475235552
30
0
40
0.50000000000000711
210
0
220
0
230
1
100
AcDbArc
50
-90
51
0
0
ARC
5
533
100
AcDbEntity
8
0
100
AcDbCircle
10
159.5
20
-125.46323475235552
30
0
40
0.50000000000000711
210
0
220
0
230
1
100
AcDbArc
50
180
51
270
0
LINE
5
534
100
AcDbEntity
8
0
100
AcDbLine
10
169.5
20
-125.96323475235552
30
0
11
159.5
21
-125.96323475235552
31
0
0
CIRCLE
5
535
100
AcDbEntity
8
0
100
AcDbCircle
10
173.67466118083615
20
-120.46323475235552
30
0
40
1.5000000000000016
210
0
220
0
230
1
0
LINE
5
536
100
AcDbEntity
8
0
100
AcDbLine
10
184
20
-125.96323475235552
30
0
11
184
21
-115.46323475235552
31
0
0
ARC
5
537
100
AcDbEntity
8
0
100
AcDbCircle
10
184.5
20
-115.46323475235552
30
0
40
0.49999999999998934
210
0
220
-0
230
1
100
AcDbArc
50
90
51
180
0
LINE
5
538
100
AcDbEntity
8
0
100
AcDbLine
10
184.5
20
-114.96323475235553
30
0
11
194.5
21
-114.96323475235553
31
0
0
ARC
5
539
100
AcDbEntity
8
0
100
AcDbCircle
10
194.5
20
-115.46323475235552
30
0
40
0.50000000000000711
210
0
220
0
230
1
100
AcDbArc
50
0
51
90
0
LINE
5
540
100
AcDbEntity
8
0
100
AcDbLine
10
195
20
-115.46323475235552
30
0
11
195
21
-125.46323475235552
31
0
0
ARC
5
541
100
AcDbEntity
8
0
100
AcDbCircle
10
194.5
20
-125.46323475235552
30
0
40
0.50000000000000711
210
0
220
0
230
1
100
AcDbArc
50
-90
51
0
0
ARC
5
542
100
AcDbEntity
8
0
100
AcDbCircle
10
184.5
20
-125.46323475235552
30
0
40
0.50000000000000711
210
0
220
0
230
1
100
AcDbArc
50
180
51
270
0
LINE
5
543
100
AcDbEntity
8
0
100
AcDbLine
10
194.5
20
-125.96323475235552
30
0
11
184.5
21
-125.96323475235552
31
0
0
CIRCLE
5
544
100
AcDbEntity
8
0
100
AcDbCircle
10
198.67466118083615
20
-120.46323475235552
30
0
40
1.5000000000000016
210
0
220
0
230
1
0
ENDSEC
0
SECTION
2
OBJECTS
0
DICTIONARY
5
C
100
AcDbDictionary
3
ACAD_GROUP
350
D
3
ACAD_MLINESTYLE
350
17
0
DICTIONARY
5
D
100
AcDbDictionary
0
DICTIONARY
5
1A
330
C
100
AcDbDictionary
0
DICTIONARY
5
17
100
AcDbDictionary
0
ENDSEC
0
EOF
