%TF.GenerationSoftware,KiCad,Pcbnew,(5.1.6)-1*%
%TF.CreationDate,2020-06-17T13:42:06+02:00*%
%TF.ProjectId,antrieb smd,616e7472-6965-4622-9073-6d642e6b6963,rev?*%
%TF.SameCoordinates,Original*%
%TF.FileFunction,Soldermask,Top*%
%TF.FilePolarity,Negative*%
%FSLAX46Y46*%
G04 Gerber Fmt 4.6, Leading zero omitted, Abs format (unit mm)*
G04 Created by KiCad (PCBNEW (5.1.6)-1) date 2020-06-17 13:42:06*
%MOMM*%
%LPD*%
G01*
G04 APERTURE LIST*
%ADD10C,2.100000*%
%ADD11C,3.300000*%
%ADD12R,2.100000X2.100000*%
%ADD13R,1.600000X1.100000*%
%ADD14R,0.950000X0.950000*%
%ADD15O,0.950000X0.950000*%
G04 APERTURE END LIST*
D10*
%TO.C,SW4*%
X106790500Y-20996500D03*
X101790500Y-20996500D03*
D11*
X109890500Y-27996500D03*
X98690500Y-27996500D03*
D10*
X106790500Y-35496500D03*
X104290500Y-35496500D03*
D12*
X101790500Y-35496500D03*
%TD*%
D10*
%TO.C,SW3*%
X81644500Y-20933000D03*
X76644500Y-20933000D03*
D11*
X84744500Y-27933000D03*
X73544500Y-27933000D03*
D10*
X81644500Y-35433000D03*
X79144500Y-35433000D03*
D12*
X76644500Y-35433000D03*
%TD*%
%TO.C,SW2*%
X51689000Y-35433000D03*
D10*
X54189000Y-35433000D03*
X56689000Y-35433000D03*
D11*
X48589000Y-27933000D03*
X59789000Y-27933000D03*
D10*
X51689000Y-20933000D03*
X56689000Y-20933000D03*
%TD*%
D13*
%TO.C,D3*%
X88482000Y-26530500D03*
X88482000Y-29730500D03*
X93382000Y-26530500D03*
X93382000Y-29730500D03*
%TD*%
%TO.C,D2*%
X64098000Y-26657500D03*
X64098000Y-29857500D03*
X68998000Y-26657500D03*
X68998000Y-29857500D03*
%TD*%
%TO.C,D1*%
X43725000Y-29730500D03*
X43725000Y-26530500D03*
X38825000Y-29730500D03*
X38825000Y-26530500D03*
%TD*%
D14*
%TO.C,J1*%
X59944500Y-42202100D03*
D15*
X60944500Y-42202100D03*
X61944500Y-42202100D03*
X62944500Y-42202100D03*
X63944500Y-42202100D03*
X64944500Y-42202100D03*
X65944500Y-42202100D03*
X66944500Y-42202100D03*
X67944500Y-42202100D03*
X68944500Y-42202100D03*
X69944500Y-42202100D03*
X70944500Y-42202100D03*
X71944500Y-42202100D03*
X72944500Y-42202100D03*
X73944500Y-42202100D03*
%TD*%
D13*
%TO.C,D4*%
X113475600Y-26060600D03*
X113475600Y-29260600D03*
X118375600Y-26060600D03*
X118375600Y-29260600D03*
%TD*%
D10*
%TO.C,SW1*%
X31670000Y-20869500D03*
X26670000Y-20869500D03*
D11*
X34770000Y-27869500D03*
X23570000Y-27869500D03*
D10*
X31670000Y-35369500D03*
X29170000Y-35369500D03*
D12*
X26670000Y-35369500D03*
%TD*%
M02*
