%TF.GenerationSoftware,KiCad,Pcbnew,(5.1.6)-1*%
%TF.CreationDate,2020-06-17T13:42:06+02:00*%
%TF.ProjectId,antrieb smd,616e7472-6965-4622-9073-6d642e6b6963,rev?*%
%TF.SameCoordinates,Original*%
%TF.FileFunction,Legend,Top*%
%TF.FilePolarity,Positive*%
%FSLAX46Y46*%
G04 Gerber Fmt 4.6, Leading zero omitted, Abs format (unit mm)*
G04 Created by KiCad (PCBNEW (5.1.6)-1) date 2020-06-17 13:42:06*
%MOMM*%
%LPD*%
G01*
G04 APERTURE LIST*
%ADD10C,0.120000*%
%ADD11C,0.150000*%
G04 APERTURE END LIST*
D10*
%TO.C,SW4*%
X107290500Y-27996500D02*
G75*
G03*
X107290500Y-27996500I-3000000J0D01*
G01*
X98390500Y-25996500D02*
X98390500Y-21896500D01*
X110190500Y-21896500D02*
X110190500Y-25996500D01*
X110190500Y-29996500D02*
X110190500Y-34096500D01*
X98390500Y-29996500D02*
X98390500Y-34096500D01*
X98390500Y-34096500D02*
X110190500Y-34096500D01*
X100490500Y-35496500D02*
X100190500Y-35796500D01*
X100190500Y-35796500D02*
X100190500Y-35196500D01*
X100190500Y-35196500D02*
X100490500Y-35496500D01*
X98390500Y-21896500D02*
X100790500Y-21896500D01*
X102990500Y-21896500D02*
X105590500Y-21896500D01*
X107790500Y-21896500D02*
X110190500Y-21896500D01*
X103790500Y-27996500D02*
X104790500Y-27996500D01*
X104290500Y-28496500D02*
X104290500Y-27496500D01*
%TO.C,SW3*%
X82144500Y-27933000D02*
G75*
G03*
X82144500Y-27933000I-3000000J0D01*
G01*
X73244500Y-25933000D02*
X73244500Y-21833000D01*
X85044500Y-21833000D02*
X85044500Y-25933000D01*
X85044500Y-29933000D02*
X85044500Y-34033000D01*
X73244500Y-29933000D02*
X73244500Y-34033000D01*
X73244500Y-34033000D02*
X85044500Y-34033000D01*
X75344500Y-35433000D02*
X75044500Y-35733000D01*
X75044500Y-35733000D02*
X75044500Y-35133000D01*
X75044500Y-35133000D02*
X75344500Y-35433000D01*
X73244500Y-21833000D02*
X75644500Y-21833000D01*
X77844500Y-21833000D02*
X80444500Y-21833000D01*
X82644500Y-21833000D02*
X85044500Y-21833000D01*
X78644500Y-27933000D02*
X79644500Y-27933000D01*
X79144500Y-28433000D02*
X79144500Y-27433000D01*
%TO.C,SW2*%
X54189000Y-28433000D02*
X54189000Y-27433000D01*
X53689000Y-27933000D02*
X54689000Y-27933000D01*
X57689000Y-21833000D02*
X60089000Y-21833000D01*
X52889000Y-21833000D02*
X55489000Y-21833000D01*
X48289000Y-21833000D02*
X50689000Y-21833000D01*
X50089000Y-35133000D02*
X50389000Y-35433000D01*
X50089000Y-35733000D02*
X50089000Y-35133000D01*
X50389000Y-35433000D02*
X50089000Y-35733000D01*
X48289000Y-34033000D02*
X60089000Y-34033000D01*
X48289000Y-29933000D02*
X48289000Y-34033000D01*
X60089000Y-29933000D02*
X60089000Y-34033000D01*
X60089000Y-21833000D02*
X60089000Y-25933000D01*
X48289000Y-25933000D02*
X48289000Y-21833000D01*
X57189000Y-27933000D02*
G75*
G03*
X57189000Y-27933000I-3000000J0D01*
G01*
%TO.C,D3*%
X87282000Y-25380500D02*
X87282000Y-26530500D01*
X94582000Y-25380500D02*
X87282000Y-25380500D01*
X94582000Y-30880500D02*
X87282000Y-30880500D01*
%TO.C,D2*%
X62898000Y-25507500D02*
X62898000Y-26657500D01*
X70198000Y-25507500D02*
X62898000Y-25507500D01*
X70198000Y-31007500D02*
X62898000Y-31007500D01*
%TO.C,D1*%
X44925000Y-30880500D02*
X37625000Y-30880500D01*
X44925000Y-25380500D02*
X37625000Y-25380500D01*
X37625000Y-25380500D02*
X37625000Y-26530500D01*
%TO.C,J1*%
X59134500Y-42202100D02*
X59134500Y-41517100D01*
X59134500Y-41517100D02*
X59944500Y-41517100D01*
X74390398Y-41682100D02*
X74754500Y-41682100D01*
X73390398Y-41682100D02*
X73498602Y-41682100D01*
X72390398Y-41682100D02*
X72498602Y-41682100D01*
X71390398Y-41682100D02*
X71498602Y-41682100D01*
X70390398Y-41682100D02*
X70498602Y-41682100D01*
X69390398Y-41682100D02*
X69498602Y-41682100D01*
X68390398Y-41682100D02*
X68498602Y-41682100D01*
X67390398Y-41682100D02*
X67498602Y-41682100D01*
X66390398Y-41682100D02*
X66498602Y-41682100D01*
X65390398Y-41682100D02*
X65498602Y-41682100D01*
X64390398Y-41682100D02*
X64498602Y-41682100D01*
X63390398Y-41682100D02*
X63498602Y-41682100D01*
X62390398Y-41682100D02*
X62498602Y-41682100D01*
X61390398Y-41682100D02*
X61498602Y-41682100D01*
X74754500Y-43302100D02*
X74754500Y-41682100D01*
X60444500Y-43302100D02*
X74754500Y-43302100D01*
X60444500Y-43302100D02*
X60444500Y-42887100D01*
%TO.C,D4*%
X112275600Y-24910600D02*
X112275600Y-26060600D01*
X119575600Y-24910600D02*
X112275600Y-24910600D01*
X119575600Y-30410600D02*
X112275600Y-30410600D01*
%TO.C,SW1*%
X32170000Y-27869500D02*
G75*
G03*
X32170000Y-27869500I-3000000J0D01*
G01*
X23270000Y-25869500D02*
X23270000Y-21769500D01*
X35070000Y-21769500D02*
X35070000Y-25869500D01*
X35070000Y-29869500D02*
X35070000Y-33969500D01*
X23270000Y-29869500D02*
X23270000Y-33969500D01*
X23270000Y-33969500D02*
X35070000Y-33969500D01*
X25370000Y-35369500D02*
X25070000Y-35669500D01*
X25070000Y-35669500D02*
X25070000Y-35069500D01*
X25070000Y-35069500D02*
X25370000Y-35369500D01*
X23270000Y-21769500D02*
X25670000Y-21769500D01*
X27870000Y-21769500D02*
X30470000Y-21769500D01*
X32670000Y-21769500D02*
X35070000Y-21769500D01*
X28670000Y-27869500D02*
X29670000Y-27869500D01*
X29170000Y-28369500D02*
X29170000Y-27369500D01*
%TO.C,SW4*%
D11*
X97495261Y-34029833D02*
X97542880Y-33886976D01*
X97542880Y-33648880D01*
X97495261Y-33553642D01*
X97447642Y-33506023D01*
X97352404Y-33458404D01*
X97257166Y-33458404D01*
X97161928Y-33506023D01*
X97114309Y-33553642D01*
X97066690Y-33648880D01*
X97019071Y-33839357D01*
X96971452Y-33934595D01*
X96923833Y-33982214D01*
X96828595Y-34029833D01*
X96733357Y-34029833D01*
X96638119Y-33982214D01*
X96590500Y-33934595D01*
X96542880Y-33839357D01*
X96542880Y-33601261D01*
X96590500Y-33458404D01*
X96542880Y-33125071D02*
X97542880Y-32886976D01*
X96828595Y-32696500D01*
X97542880Y-32506023D01*
X96542880Y-32267928D01*
X96876214Y-31458404D02*
X97542880Y-31458404D01*
X96495261Y-31696500D02*
X97209547Y-31934595D01*
X97209547Y-31315547D01*
%TO.C,SW3*%
X72349261Y-33966333D02*
X72396880Y-33823476D01*
X72396880Y-33585380D01*
X72349261Y-33490142D01*
X72301642Y-33442523D01*
X72206404Y-33394904D01*
X72111166Y-33394904D01*
X72015928Y-33442523D01*
X71968309Y-33490142D01*
X71920690Y-33585380D01*
X71873071Y-33775857D01*
X71825452Y-33871095D01*
X71777833Y-33918714D01*
X71682595Y-33966333D01*
X71587357Y-33966333D01*
X71492119Y-33918714D01*
X71444500Y-33871095D01*
X71396880Y-33775857D01*
X71396880Y-33537761D01*
X71444500Y-33394904D01*
X71396880Y-33061571D02*
X72396880Y-32823476D01*
X71682595Y-32633000D01*
X72396880Y-32442523D01*
X71396880Y-32204428D01*
X71396880Y-31918714D02*
X71396880Y-31299666D01*
X71777833Y-31633000D01*
X71777833Y-31490142D01*
X71825452Y-31394904D01*
X71873071Y-31347285D01*
X71968309Y-31299666D01*
X72206404Y-31299666D01*
X72301642Y-31347285D01*
X72349261Y-31394904D01*
X72396880Y-31490142D01*
X72396880Y-31775857D01*
X72349261Y-31871095D01*
X72301642Y-31918714D01*
%TO.C,SW2*%
X47393761Y-33966333D02*
X47441380Y-33823476D01*
X47441380Y-33585380D01*
X47393761Y-33490142D01*
X47346142Y-33442523D01*
X47250904Y-33394904D01*
X47155666Y-33394904D01*
X47060428Y-33442523D01*
X47012809Y-33490142D01*
X46965190Y-33585380D01*
X46917571Y-33775857D01*
X46869952Y-33871095D01*
X46822333Y-33918714D01*
X46727095Y-33966333D01*
X46631857Y-33966333D01*
X46536619Y-33918714D01*
X46489000Y-33871095D01*
X46441380Y-33775857D01*
X46441380Y-33537761D01*
X46489000Y-33394904D01*
X46441380Y-33061571D02*
X47441380Y-32823476D01*
X46727095Y-32633000D01*
X47441380Y-32442523D01*
X46441380Y-32204428D01*
X46536619Y-31871095D02*
X46489000Y-31823476D01*
X46441380Y-31728238D01*
X46441380Y-31490142D01*
X46489000Y-31394904D01*
X46536619Y-31347285D01*
X46631857Y-31299666D01*
X46727095Y-31299666D01*
X46869952Y-31347285D01*
X47441380Y-31918714D01*
X47441380Y-31299666D01*
%TO.C,D3*%
X90193904Y-32082880D02*
X90193904Y-31082880D01*
X90432000Y-31082880D01*
X90574857Y-31130500D01*
X90670095Y-31225738D01*
X90717714Y-31320976D01*
X90765333Y-31511452D01*
X90765333Y-31654309D01*
X90717714Y-31844785D01*
X90670095Y-31940023D01*
X90574857Y-32035261D01*
X90432000Y-32082880D01*
X90193904Y-32082880D01*
X91098666Y-31082880D02*
X91717714Y-31082880D01*
X91384380Y-31463833D01*
X91527238Y-31463833D01*
X91622476Y-31511452D01*
X91670095Y-31559071D01*
X91717714Y-31654309D01*
X91717714Y-31892404D01*
X91670095Y-31987642D01*
X91622476Y-32035261D01*
X91527238Y-32082880D01*
X91241523Y-32082880D01*
X91146285Y-32035261D01*
X91098666Y-31987642D01*
X95367714Y-30182880D02*
X94796285Y-30182880D01*
X95082000Y-30182880D02*
X95082000Y-29182880D01*
X94986761Y-29325738D01*
X94891523Y-29420976D01*
X94796285Y-29468595D01*
%TO.C,D2*%
X65809904Y-32209880D02*
X65809904Y-31209880D01*
X66048000Y-31209880D01*
X66190857Y-31257500D01*
X66286095Y-31352738D01*
X66333714Y-31447976D01*
X66381333Y-31638452D01*
X66381333Y-31781309D01*
X66333714Y-31971785D01*
X66286095Y-32067023D01*
X66190857Y-32162261D01*
X66048000Y-32209880D01*
X65809904Y-32209880D01*
X66762285Y-31305119D02*
X66809904Y-31257500D01*
X66905142Y-31209880D01*
X67143238Y-31209880D01*
X67238476Y-31257500D01*
X67286095Y-31305119D01*
X67333714Y-31400357D01*
X67333714Y-31495595D01*
X67286095Y-31638452D01*
X66714666Y-32209880D01*
X67333714Y-32209880D01*
X70983714Y-30309880D02*
X70412285Y-30309880D01*
X70698000Y-30309880D02*
X70698000Y-29309880D01*
X70602761Y-29452738D01*
X70507523Y-29547976D01*
X70412285Y-29595595D01*
%TO.C,D1*%
X40536904Y-32082880D02*
X40536904Y-31082880D01*
X40775000Y-31082880D01*
X40917857Y-31130500D01*
X41013095Y-31225738D01*
X41060714Y-31320976D01*
X41108333Y-31511452D01*
X41108333Y-31654309D01*
X41060714Y-31844785D01*
X41013095Y-31940023D01*
X40917857Y-32035261D01*
X40775000Y-32082880D01*
X40536904Y-32082880D01*
X42060714Y-32082880D02*
X41489285Y-32082880D01*
X41775000Y-32082880D02*
X41775000Y-31082880D01*
X41679761Y-31225738D01*
X41584523Y-31320976D01*
X41489285Y-31368595D01*
X45710714Y-30182880D02*
X45139285Y-30182880D01*
X45425000Y-30182880D02*
X45425000Y-29182880D01*
X45329761Y-29325738D01*
X45234523Y-29420976D01*
X45139285Y-29468595D01*
%TO.C,J1*%
X57146880Y-42825433D02*
X57861166Y-42825433D01*
X58004023Y-42873052D01*
X58099261Y-42968290D01*
X58146880Y-43111147D01*
X58146880Y-43206385D01*
X58146880Y-41825433D02*
X58146880Y-42396861D01*
X58146880Y-42111147D02*
X57146880Y-42111147D01*
X57289738Y-42206385D01*
X57384976Y-42301623D01*
X57432595Y-42396861D01*
%TO.C,D4*%
X115187504Y-31612980D02*
X115187504Y-30612980D01*
X115425600Y-30612980D01*
X115568457Y-30660600D01*
X115663695Y-30755838D01*
X115711314Y-30851076D01*
X115758933Y-31041552D01*
X115758933Y-31184409D01*
X115711314Y-31374885D01*
X115663695Y-31470123D01*
X115568457Y-31565361D01*
X115425600Y-31612980D01*
X115187504Y-31612980D01*
X116616076Y-30946314D02*
X116616076Y-31612980D01*
X116377980Y-30565361D02*
X116139885Y-31279647D01*
X116758933Y-31279647D01*
X120361314Y-29712980D02*
X119789885Y-29712980D01*
X120075600Y-29712980D02*
X120075600Y-28712980D01*
X119980361Y-28855838D01*
X119885123Y-28951076D01*
X119789885Y-28998695D01*
%TO.C,SW1*%
X22374761Y-33902833D02*
X22422380Y-33759976D01*
X22422380Y-33521880D01*
X22374761Y-33426642D01*
X22327142Y-33379023D01*
X22231904Y-33331404D01*
X22136666Y-33331404D01*
X22041428Y-33379023D01*
X21993809Y-33426642D01*
X21946190Y-33521880D01*
X21898571Y-33712357D01*
X21850952Y-33807595D01*
X21803333Y-33855214D01*
X21708095Y-33902833D01*
X21612857Y-33902833D01*
X21517619Y-33855214D01*
X21470000Y-33807595D01*
X21422380Y-33712357D01*
X21422380Y-33474261D01*
X21470000Y-33331404D01*
X21422380Y-32998071D02*
X22422380Y-32759976D01*
X21708095Y-32569500D01*
X22422380Y-32379023D01*
X21422380Y-32140928D01*
X22422380Y-31236166D02*
X22422380Y-31807595D01*
X22422380Y-31521880D02*
X21422380Y-31521880D01*
X21565238Y-31617119D01*
X21660476Y-31712357D01*
X21708095Y-31807595D01*
%TD*%
M02*
