%TF.GenerationSoftware,KiCad,Pcbnew,(5.1.6)-1*%
%TF.CreationDate,2020-06-17T13:42:06+02:00*%
%TF.ProjectId,antrieb smd,616e7472-6965-4622-9073-6d642e6b6963,rev?*%
%TF.SameCoordinates,Original*%
%TF.FileFunction,Copper,L2,Bot*%
%TF.FilePolarity,Positive*%
%FSLAX46Y46*%
G04 Gerber Fmt 4.6, Leading zero omitted, Abs format (unit mm)*
G04 Created by KiCad (PCBNEW (5.1.6)-1) date 2020-06-17 13:42:06*
%MOMM*%
%LPD*%
G01*
G04 APERTURE LIST*
%TA.AperFunction,ComponentPad*%
%ADD10C,2.000000*%
%TD*%
%TA.AperFunction,ComponentPad*%
%ADD11C,3.200000*%
%TD*%
%TA.AperFunction,ComponentPad*%
%ADD12R,2.000000X2.000000*%
%TD*%
%TA.AperFunction,ComponentPad*%
%ADD13R,0.850000X0.850000*%
%TD*%
%TA.AperFunction,ComponentPad*%
%ADD14O,0.850000X0.850000*%
%TD*%
%TA.AperFunction,Conductor*%
%ADD15C,0.500000*%
%TD*%
%TA.AperFunction,Conductor*%
%ADD16C,0.254000*%
%TD*%
G04 APERTURE END LIST*
D10*
%TO.P,SW4,S1*%
%TO.N,Net-(SW4-PadS1)*%
X106790500Y-20996500D03*
%TO.P,SW4,S2*%
%TO.N,Net-(J1-Pad12)*%
X101790500Y-20996500D03*
D11*
%TO.P,SW4,MP*%
%TO.N,N/C*%
X109890500Y-27996500D03*
X98690500Y-27996500D03*
D10*
%TO.P,SW4,B*%
%TO.N,Net-(J1-Pad11)*%
X106790500Y-35496500D03*
%TO.P,SW4,C*%
%TO.N,gnd*%
X104290500Y-35496500D03*
D12*
%TO.P,SW4,A*%
%TO.N,Net-(J1-Pad10)*%
X101790500Y-35496500D03*
%TD*%
D10*
%TO.P,SW3,S1*%
%TO.N,Net-(SW3-PadS1)*%
X81644500Y-20933000D03*
%TO.P,SW3,S2*%
%TO.N,Net-(J1-Pad9)*%
X76644500Y-20933000D03*
D11*
%TO.P,SW3,MP*%
%TO.N,N/C*%
X84744500Y-27933000D03*
X73544500Y-27933000D03*
D10*
%TO.P,SW3,B*%
%TO.N,Net-(J1-Pad8)*%
X81644500Y-35433000D03*
%TO.P,SW3,C*%
%TO.N,gnd*%
X79144500Y-35433000D03*
D12*
%TO.P,SW3,A*%
%TO.N,Net-(J1-Pad7)*%
X76644500Y-35433000D03*
%TD*%
%TO.P,SW2,A*%
%TO.N,Net-(J1-Pad4)*%
X51689000Y-35433000D03*
D10*
%TO.P,SW2,C*%
%TO.N,gnd*%
X54189000Y-35433000D03*
%TO.P,SW2,B*%
%TO.N,Net-(J1-Pad5)*%
X56689000Y-35433000D03*
D11*
%TO.P,SW2,MP*%
%TO.N,N/C*%
X48589000Y-27933000D03*
X59789000Y-27933000D03*
D10*
%TO.P,SW2,S2*%
%TO.N,Net-(J1-Pad6)*%
X51689000Y-20933000D03*
%TO.P,SW2,S1*%
%TO.N,gnd*%
X56689000Y-20933000D03*
%TD*%
D13*
%TO.P,J1,1*%
%TO.N,Net-(J1-Pad1)*%
X59944500Y-42202100D03*
D14*
%TO.P,J1,2*%
%TO.N,Net-(J1-Pad2)*%
X60944500Y-42202100D03*
%TO.P,J1,3*%
%TO.N,Net-(J1-Pad3)*%
X61944500Y-42202100D03*
%TO.P,J1,4*%
%TO.N,Net-(J1-Pad4)*%
X62944500Y-42202100D03*
%TO.P,J1,5*%
%TO.N,Net-(J1-Pad5)*%
X63944500Y-42202100D03*
%TO.P,J1,6*%
%TO.N,Net-(J1-Pad6)*%
X64944500Y-42202100D03*
%TO.P,J1,7*%
%TO.N,Net-(J1-Pad7)*%
X65944500Y-42202100D03*
%TO.P,J1,8*%
%TO.N,Net-(J1-Pad8)*%
X66944500Y-42202100D03*
%TO.P,J1,9*%
%TO.N,Net-(J1-Pad9)*%
X67944500Y-42202100D03*
%TO.P,J1,10*%
%TO.N,Net-(J1-Pad10)*%
X68944500Y-42202100D03*
%TO.P,J1,11*%
%TO.N,Net-(J1-Pad11)*%
X69944500Y-42202100D03*
%TO.P,J1,12*%
%TO.N,Net-(J1-Pad12)*%
X70944500Y-42202100D03*
%TO.P,J1,13*%
%TO.N,data*%
X71944500Y-42202100D03*
%TO.P,J1,14*%
%TO.N,5v*%
X72944500Y-42202100D03*
%TO.P,J1,15*%
%TO.N,gnd*%
X73944500Y-42202100D03*
%TD*%
D10*
%TO.P,SW1,S1*%
%TO.N,gnd*%
X31670000Y-20869500D03*
%TO.P,SW1,S2*%
%TO.N,Net-(J1-Pad3)*%
X26670000Y-20869500D03*
D11*
%TO.P,SW1,MP*%
%TO.N,N/C*%
X34770000Y-27869500D03*
X23570000Y-27869500D03*
D10*
%TO.P,SW1,B*%
%TO.N,Net-(J1-Pad2)*%
X31670000Y-35369500D03*
%TO.P,SW1,C*%
%TO.N,gnd*%
X29170000Y-35369500D03*
D12*
%TO.P,SW1,A*%
%TO.N,Net-(J1-Pad1)*%
X26670000Y-35369500D03*
%TD*%
D15*
%TO.N,Net-(J1-Pad1)*%
X32588200Y-41287700D02*
X26670000Y-35369500D01*
X59944500Y-42202100D02*
X59030100Y-41287700D01*
X59030100Y-41287700D02*
X32588200Y-41287700D01*
%TO.N,Net-(J1-Pad2)*%
X60969900Y-42176700D02*
X60944500Y-42202100D01*
X31670000Y-35369500D02*
X36407100Y-40106600D01*
X60969900Y-40627698D02*
X60969900Y-42176700D01*
X60448802Y-40106600D02*
X60969900Y-40627698D01*
X36407100Y-40106600D02*
X60448802Y-40106600D01*
%TO.N,Net-(J1-Pad3)*%
X42880898Y-39014400D02*
X26670000Y-22803502D01*
X60807600Y-39014400D02*
X42880898Y-39014400D01*
X26670000Y-22803502D02*
X26670000Y-20869500D01*
X61944500Y-42202100D02*
X61944500Y-40151300D01*
X61944500Y-40151300D02*
X60807600Y-39014400D01*
%TO.N,Net-(J1-Pad4)*%
X62944500Y-40161337D02*
X62944500Y-42202100D01*
X54924388Y-38314390D02*
X61097553Y-38314390D01*
X51689000Y-35433000D02*
X52042998Y-35433000D01*
X61097553Y-38314390D02*
X62944500Y-40161337D01*
X52042998Y-35433000D02*
X54924388Y-38314390D01*
%TO.N,Net-(J1-Pad5)*%
X63944500Y-40171375D02*
X63944500Y-42202100D01*
X56689000Y-35433000D02*
X59206125Y-35433000D01*
X59206125Y-35433000D02*
X63944500Y-40171375D01*
%TO.N,Net-(J1-Pad6)*%
X51689000Y-22867002D02*
X51689000Y-20933000D01*
X64969900Y-36147902D02*
X51689000Y-22867002D01*
X64944500Y-42202100D02*
X64969900Y-42176700D01*
X64969900Y-42176700D02*
X64969900Y-36147902D01*
%TO.N,Net-(J1-Pad7)*%
X68783200Y-35433000D02*
X76644500Y-35433000D01*
X65969900Y-38246300D02*
X68783200Y-35433000D01*
X65944500Y-42202100D02*
X65969900Y-42176700D01*
X65969900Y-42176700D02*
X65969900Y-38246300D01*
%TO.N,Net-(J1-Pad8)*%
X80194499Y-36883001D02*
X81644500Y-35433000D01*
X69111199Y-36883001D02*
X80194499Y-36883001D01*
X66944500Y-42202100D02*
X66944500Y-39049700D01*
X66944500Y-39049700D02*
X69111199Y-36883001D01*
%TO.N,Net-(J1-Pad9)*%
X76644500Y-22867002D02*
X76644500Y-20933000D01*
X67944500Y-42202100D02*
X67944500Y-40335700D01*
X83094501Y-29317003D02*
X76644500Y-22867002D01*
X70408800Y-37871400D02*
X81352102Y-37871400D01*
X67944500Y-40335700D02*
X70408800Y-37871400D01*
X81352102Y-37871400D02*
X83094501Y-36129001D01*
X83094501Y-36129001D02*
X83094501Y-29317003D01*
%TO.N,Net-(J1-Pad10)*%
X98715591Y-38571409D02*
X101790500Y-35496500D01*
X68944500Y-40733970D02*
X71107061Y-38571409D01*
X71107061Y-38571409D02*
X98715591Y-38571409D01*
X68944500Y-42202100D02*
X68944500Y-40733970D01*
%TO.N,Net-(J1-Pad11)*%
X69944500Y-40723935D02*
X71397015Y-39271420D01*
X103015580Y-39271420D02*
X105790501Y-36496499D01*
X105790501Y-36496499D02*
X106790500Y-35496500D01*
X69944500Y-42202100D02*
X69944500Y-40723935D01*
X71397015Y-39271420D02*
X103015580Y-39271420D01*
%TO.N,Net-(J1-Pad12)*%
X71372701Y-40412699D02*
X70942200Y-40843200D01*
X101790500Y-28350498D02*
X108240501Y-34800499D01*
X101790500Y-20996500D02*
X101790500Y-28350498D01*
X108240501Y-34800499D02*
X108240501Y-36192501D01*
X104020303Y-40412699D02*
X71372701Y-40412699D01*
X108240501Y-36192501D02*
X104020303Y-40412699D01*
X70942200Y-42199800D02*
X70944500Y-42202100D01*
X70942200Y-40843200D02*
X70942200Y-42199800D01*
%TD*%
D16*
%TO.N,gnd*%
G36*
X120751135Y-43142204D02*
G01*
X74071502Y-43253682D01*
X74071502Y-43094359D01*
X74234562Y-43221640D01*
X74269750Y-43210972D01*
X74460322Y-43128134D01*
X74631071Y-43009709D01*
X74775436Y-42860248D01*
X74887868Y-42685494D01*
X74964047Y-42492164D01*
X74838121Y-42329100D01*
X74071500Y-42329100D01*
X74071500Y-42349100D01*
X73996027Y-42349100D01*
X74004500Y-42306501D01*
X74004500Y-42097699D01*
X73996027Y-42055100D01*
X74071500Y-42055100D01*
X74071500Y-42075100D01*
X74838121Y-42075100D01*
X74964047Y-41912036D01*
X74887868Y-41718706D01*
X74775436Y-41543952D01*
X74631071Y-41394491D01*
X74491513Y-41297699D01*
X103976834Y-41297699D01*
X104020303Y-41301980D01*
X104063772Y-41297699D01*
X104063780Y-41297699D01*
X104193793Y-41284894D01*
X104360616Y-41234288D01*
X104514362Y-41152110D01*
X104649120Y-41041516D01*
X104676837Y-41007743D01*
X108835550Y-36849031D01*
X108869318Y-36821318D01*
X108935497Y-36740680D01*
X108979911Y-36686561D01*
X108979912Y-36686560D01*
X109062090Y-36532814D01*
X109112696Y-36365991D01*
X109125501Y-36235978D01*
X109125501Y-36235968D01*
X109129782Y-36192502D01*
X109125501Y-36149036D01*
X109125501Y-34843968D01*
X109129782Y-34800499D01*
X109125501Y-34757030D01*
X109125501Y-34757022D01*
X109112696Y-34627009D01*
X109062090Y-34460186D01*
X108979912Y-34306440D01*
X108897033Y-34205452D01*
X108897031Y-34205450D01*
X108869318Y-34171682D01*
X108835552Y-34143971D01*
X102675500Y-27983920D01*
X102675500Y-27776372D01*
X107655500Y-27776372D01*
X107655500Y-28216628D01*
X107741390Y-28648425D01*
X107909869Y-29055169D01*
X108154462Y-29421229D01*
X108465771Y-29732538D01*
X108831831Y-29977131D01*
X109238575Y-30145610D01*
X109670372Y-30231500D01*
X110110628Y-30231500D01*
X110542425Y-30145610D01*
X110949169Y-29977131D01*
X111315229Y-29732538D01*
X111626538Y-29421229D01*
X111871131Y-29055169D01*
X112039610Y-28648425D01*
X112125500Y-28216628D01*
X112125500Y-27776372D01*
X112039610Y-27344575D01*
X111871131Y-26937831D01*
X111626538Y-26571771D01*
X111315229Y-26260462D01*
X110949169Y-26015869D01*
X110542425Y-25847390D01*
X110110628Y-25761500D01*
X109670372Y-25761500D01*
X109238575Y-25847390D01*
X108831831Y-26015869D01*
X108465771Y-26260462D01*
X108154462Y-26571771D01*
X107909869Y-26937831D01*
X107741390Y-27344575D01*
X107655500Y-27776372D01*
X102675500Y-27776372D01*
X102675500Y-22371559D01*
X102832752Y-22266487D01*
X103060487Y-22038752D01*
X103239418Y-21770963D01*
X103362668Y-21473412D01*
X103425500Y-21157533D01*
X103425500Y-20835467D01*
X105155500Y-20835467D01*
X105155500Y-21157533D01*
X105218332Y-21473412D01*
X105341582Y-21770963D01*
X105520513Y-22038752D01*
X105748248Y-22266487D01*
X106016037Y-22445418D01*
X106313588Y-22568668D01*
X106629467Y-22631500D01*
X106951533Y-22631500D01*
X107267412Y-22568668D01*
X107564963Y-22445418D01*
X107832752Y-22266487D01*
X108060487Y-22038752D01*
X108239418Y-21770963D01*
X108362668Y-21473412D01*
X108425500Y-21157533D01*
X108425500Y-20835467D01*
X108362668Y-20519588D01*
X108239418Y-20222037D01*
X108060487Y-19954248D01*
X107832752Y-19726513D01*
X107564963Y-19547582D01*
X107267412Y-19424332D01*
X106951533Y-19361500D01*
X106629467Y-19361500D01*
X106313588Y-19424332D01*
X106016037Y-19547582D01*
X105748248Y-19726513D01*
X105520513Y-19954248D01*
X105341582Y-20222037D01*
X105218332Y-20519588D01*
X105155500Y-20835467D01*
X103425500Y-20835467D01*
X103362668Y-20519588D01*
X103239418Y-20222037D01*
X103060487Y-19954248D01*
X102832752Y-19726513D01*
X102564963Y-19547582D01*
X102267412Y-19424332D01*
X101951533Y-19361500D01*
X101629467Y-19361500D01*
X101313588Y-19424332D01*
X101016037Y-19547582D01*
X100748248Y-19726513D01*
X100520513Y-19954248D01*
X100341582Y-20222037D01*
X100218332Y-20519588D01*
X100155500Y-20835467D01*
X100155500Y-21157533D01*
X100218332Y-21473412D01*
X100341582Y-21770963D01*
X100520513Y-22038752D01*
X100748248Y-22266487D01*
X100905500Y-22371560D01*
X100905501Y-27675830D01*
X100839610Y-27344575D01*
X100671131Y-26937831D01*
X100426538Y-26571771D01*
X100115229Y-26260462D01*
X99749169Y-26015869D01*
X99342425Y-25847390D01*
X98910628Y-25761500D01*
X98470372Y-25761500D01*
X98038575Y-25847390D01*
X97631831Y-26015869D01*
X97265771Y-26260462D01*
X96954462Y-26571771D01*
X96709869Y-26937831D01*
X96541390Y-27344575D01*
X96455500Y-27776372D01*
X96455500Y-28216628D01*
X96541390Y-28648425D01*
X96709869Y-29055169D01*
X96954462Y-29421229D01*
X97265771Y-29732538D01*
X97631831Y-29977131D01*
X98038575Y-30145610D01*
X98470372Y-30231500D01*
X98910628Y-30231500D01*
X99342425Y-30145610D01*
X99749169Y-29977131D01*
X100115229Y-29732538D01*
X100426538Y-29421229D01*
X100671131Y-29055169D01*
X100839610Y-28648425D01*
X100903521Y-28327124D01*
X100901219Y-28350498D01*
X100918305Y-28523988D01*
X100968912Y-28690811D01*
X101051090Y-28844557D01*
X101133968Y-28945544D01*
X101133971Y-28945547D01*
X101161684Y-28979315D01*
X101195452Y-29007028D01*
X106171578Y-33983155D01*
X106016037Y-34047582D01*
X105748248Y-34226513D01*
X105520513Y-34454248D01*
X105455575Y-34551435D01*
X105425913Y-34540692D01*
X104470105Y-35496500D01*
X104484248Y-35510643D01*
X104304643Y-35690248D01*
X104290500Y-35676105D01*
X104276358Y-35690248D01*
X104096753Y-35510643D01*
X104110895Y-35496500D01*
X104096753Y-35482358D01*
X104276358Y-35302753D01*
X104290500Y-35316895D01*
X105246308Y-34361087D01*
X105150544Y-34096686D01*
X104860929Y-33955796D01*
X104549392Y-33874116D01*
X104227905Y-33854782D01*
X103908825Y-33898539D01*
X103604412Y-34003705D01*
X103430456Y-34096686D01*
X103376476Y-34245723D01*
X103321037Y-34142006D01*
X103241685Y-34045315D01*
X103144994Y-33965963D01*
X103034680Y-33906998D01*
X102914982Y-33870688D01*
X102790500Y-33858428D01*
X100790500Y-33858428D01*
X100666018Y-33870688D01*
X100546320Y-33906998D01*
X100436006Y-33965963D01*
X100339315Y-34045315D01*
X100259963Y-34142006D01*
X100200998Y-34252320D01*
X100164688Y-34372018D01*
X100152428Y-34496500D01*
X100152428Y-35882993D01*
X98349013Y-37686409D01*
X82788671Y-37686409D01*
X83689551Y-36785530D01*
X83723318Y-36757818D01*
X83781799Y-36686560D01*
X83833911Y-36623061D01*
X83833912Y-36623060D01*
X83916090Y-36469314D01*
X83966696Y-36302491D01*
X83979501Y-36172478D01*
X83979501Y-36172468D01*
X83983782Y-36129002D01*
X83979501Y-36085536D01*
X83979501Y-30035273D01*
X84092575Y-30082110D01*
X84524372Y-30168000D01*
X84964628Y-30168000D01*
X85396425Y-30082110D01*
X85803169Y-29913631D01*
X86169229Y-29669038D01*
X86480538Y-29357729D01*
X86725131Y-28991669D01*
X86893610Y-28584925D01*
X86979500Y-28153128D01*
X86979500Y-27712872D01*
X86893610Y-27281075D01*
X86725131Y-26874331D01*
X86480538Y-26508271D01*
X86169229Y-26196962D01*
X85803169Y-25952369D01*
X85396425Y-25783890D01*
X84964628Y-25698000D01*
X84524372Y-25698000D01*
X84092575Y-25783890D01*
X83685831Y-25952369D01*
X83319771Y-26196962D01*
X83008462Y-26508271D01*
X82763869Y-26874331D01*
X82595390Y-27281075D01*
X82548066Y-27518989D01*
X77529500Y-22500424D01*
X77529500Y-22308059D01*
X77686752Y-22202987D01*
X77914487Y-21975252D01*
X78093418Y-21707463D01*
X78216668Y-21409912D01*
X78279500Y-21094033D01*
X78279500Y-20771967D01*
X80009500Y-20771967D01*
X80009500Y-21094033D01*
X80072332Y-21409912D01*
X80195582Y-21707463D01*
X80374513Y-21975252D01*
X80602248Y-22202987D01*
X80870037Y-22381918D01*
X81167588Y-22505168D01*
X81483467Y-22568000D01*
X81805533Y-22568000D01*
X82121412Y-22505168D01*
X82418963Y-22381918D01*
X82686752Y-22202987D01*
X82914487Y-21975252D01*
X83093418Y-21707463D01*
X83216668Y-21409912D01*
X83279500Y-21094033D01*
X83279500Y-20771967D01*
X83216668Y-20456088D01*
X83093418Y-20158537D01*
X82914487Y-19890748D01*
X82686752Y-19663013D01*
X82418963Y-19484082D01*
X82121412Y-19360832D01*
X81805533Y-19298000D01*
X81483467Y-19298000D01*
X81167588Y-19360832D01*
X80870037Y-19484082D01*
X80602248Y-19663013D01*
X80374513Y-19890748D01*
X80195582Y-20158537D01*
X80072332Y-20456088D01*
X80009500Y-20771967D01*
X78279500Y-20771967D01*
X78216668Y-20456088D01*
X78093418Y-20158537D01*
X77914487Y-19890748D01*
X77686752Y-19663013D01*
X77418963Y-19484082D01*
X77121412Y-19360832D01*
X76805533Y-19298000D01*
X76483467Y-19298000D01*
X76167588Y-19360832D01*
X75870037Y-19484082D01*
X75602248Y-19663013D01*
X75374513Y-19890748D01*
X75195582Y-20158537D01*
X75072332Y-20456088D01*
X75009500Y-20771967D01*
X75009500Y-21094033D01*
X75072332Y-21409912D01*
X75195582Y-21707463D01*
X75374513Y-21975252D01*
X75602248Y-22202987D01*
X75759500Y-22308060D01*
X75759500Y-22823533D01*
X75755219Y-22867002D01*
X75759500Y-22910471D01*
X75759500Y-22910478D01*
X75772305Y-23040491D01*
X75822911Y-23207314D01*
X75905089Y-23361060D01*
X76015683Y-23495819D01*
X76049456Y-23523536D01*
X82209502Y-29683583D01*
X82209501Y-33897320D01*
X82121412Y-33860832D01*
X81805533Y-33798000D01*
X81483467Y-33798000D01*
X81167588Y-33860832D01*
X80870037Y-33984082D01*
X80602248Y-34163013D01*
X80374513Y-34390748D01*
X80309575Y-34487935D01*
X80279913Y-34477192D01*
X79324105Y-35433000D01*
X79338248Y-35447143D01*
X79158643Y-35626748D01*
X79144500Y-35612605D01*
X79130358Y-35626748D01*
X78950753Y-35447143D01*
X78964895Y-35433000D01*
X78950753Y-35418858D01*
X79130358Y-35239253D01*
X79144500Y-35253395D01*
X80100308Y-34297587D01*
X80004544Y-34033186D01*
X79714929Y-33892296D01*
X79403392Y-33810616D01*
X79081905Y-33791282D01*
X78762825Y-33835039D01*
X78458412Y-33940205D01*
X78284456Y-34033186D01*
X78230476Y-34182223D01*
X78175037Y-34078506D01*
X78095685Y-33981815D01*
X77998994Y-33902463D01*
X77888680Y-33843498D01*
X77768982Y-33807188D01*
X77644500Y-33794928D01*
X75644500Y-33794928D01*
X75520018Y-33807188D01*
X75400320Y-33843498D01*
X75290006Y-33902463D01*
X75193315Y-33981815D01*
X75113963Y-34078506D01*
X75054998Y-34188820D01*
X75018688Y-34308518D01*
X75006428Y-34433000D01*
X75006428Y-34548000D01*
X68826666Y-34548000D01*
X68783199Y-34543719D01*
X68739733Y-34548000D01*
X68739723Y-34548000D01*
X68609710Y-34560805D01*
X68442887Y-34611411D01*
X68289141Y-34693589D01*
X68289139Y-34693590D01*
X68289140Y-34693590D01*
X68188153Y-34776468D01*
X68188151Y-34776470D01*
X68154383Y-34804183D01*
X68126670Y-34837951D01*
X65854900Y-37109722D01*
X65854900Y-36191371D01*
X65859181Y-36147902D01*
X65854900Y-36104433D01*
X65854900Y-36104425D01*
X65842095Y-35974412D01*
X65791489Y-35807589D01*
X65709311Y-35653843D01*
X65598717Y-35519085D01*
X65564949Y-35491372D01*
X60203011Y-30129434D01*
X60440925Y-30082110D01*
X60847669Y-29913631D01*
X61213729Y-29669038D01*
X61525038Y-29357729D01*
X61769631Y-28991669D01*
X61938110Y-28584925D01*
X62024000Y-28153128D01*
X62024000Y-27712872D01*
X71309500Y-27712872D01*
X71309500Y-28153128D01*
X71395390Y-28584925D01*
X71563869Y-28991669D01*
X71808462Y-29357729D01*
X72119771Y-29669038D01*
X72485831Y-29913631D01*
X72892575Y-30082110D01*
X73324372Y-30168000D01*
X73764628Y-30168000D01*
X74196425Y-30082110D01*
X74603169Y-29913631D01*
X74969229Y-29669038D01*
X75280538Y-29357729D01*
X75525131Y-28991669D01*
X75693610Y-28584925D01*
X75779500Y-28153128D01*
X75779500Y-27712872D01*
X75693610Y-27281075D01*
X75525131Y-26874331D01*
X75280538Y-26508271D01*
X74969229Y-26196962D01*
X74603169Y-25952369D01*
X74196425Y-25783890D01*
X73764628Y-25698000D01*
X73324372Y-25698000D01*
X72892575Y-25783890D01*
X72485831Y-25952369D01*
X72119771Y-26196962D01*
X71808462Y-26508271D01*
X71563869Y-26874331D01*
X71395390Y-27281075D01*
X71309500Y-27712872D01*
X62024000Y-27712872D01*
X61938110Y-27281075D01*
X61769631Y-26874331D01*
X61525038Y-26508271D01*
X61213729Y-26196962D01*
X60847669Y-25952369D01*
X60440925Y-25783890D01*
X60009128Y-25698000D01*
X59568872Y-25698000D01*
X59137075Y-25783890D01*
X58730331Y-25952369D01*
X58364271Y-26196962D01*
X58052962Y-26508271D01*
X57808369Y-26874331D01*
X57639890Y-27281075D01*
X57592566Y-27518989D01*
X52574000Y-22500424D01*
X52574000Y-22308059D01*
X52731252Y-22202987D01*
X52865826Y-22068413D01*
X55733192Y-22068413D01*
X55828956Y-22332814D01*
X56118571Y-22473704D01*
X56430108Y-22555384D01*
X56751595Y-22574718D01*
X57070675Y-22530961D01*
X57375088Y-22425795D01*
X57549044Y-22332814D01*
X57644808Y-22068413D01*
X56689000Y-21112605D01*
X55733192Y-22068413D01*
X52865826Y-22068413D01*
X52958987Y-21975252D01*
X53137918Y-21707463D01*
X53261168Y-21409912D01*
X53324000Y-21094033D01*
X53324000Y-20995595D01*
X55047282Y-20995595D01*
X55091039Y-21314675D01*
X55196205Y-21619088D01*
X55289186Y-21793044D01*
X55553587Y-21888808D01*
X56509395Y-20933000D01*
X56868605Y-20933000D01*
X57824413Y-21888808D01*
X58088814Y-21793044D01*
X58229704Y-21503429D01*
X58311384Y-21191892D01*
X58330718Y-20870405D01*
X58286961Y-20551325D01*
X58181795Y-20246912D01*
X58088814Y-20072956D01*
X57824413Y-19977192D01*
X56868605Y-20933000D01*
X56509395Y-20933000D01*
X55553587Y-19977192D01*
X55289186Y-20072956D01*
X55148296Y-20362571D01*
X55066616Y-20674108D01*
X55047282Y-20995595D01*
X53324000Y-20995595D01*
X53324000Y-20771967D01*
X53261168Y-20456088D01*
X53137918Y-20158537D01*
X52958987Y-19890748D01*
X52865826Y-19797587D01*
X55733192Y-19797587D01*
X56689000Y-20753395D01*
X57644808Y-19797587D01*
X57549044Y-19533186D01*
X57259429Y-19392296D01*
X56947892Y-19310616D01*
X56626405Y-19291282D01*
X56307325Y-19335039D01*
X56002912Y-19440205D01*
X55828956Y-19533186D01*
X55733192Y-19797587D01*
X52865826Y-19797587D01*
X52731252Y-19663013D01*
X52463463Y-19484082D01*
X52165912Y-19360832D01*
X51850033Y-19298000D01*
X51527967Y-19298000D01*
X51212088Y-19360832D01*
X50914537Y-19484082D01*
X50646748Y-19663013D01*
X50419013Y-19890748D01*
X50240082Y-20158537D01*
X50116832Y-20456088D01*
X50054000Y-20771967D01*
X50054000Y-21094033D01*
X50116832Y-21409912D01*
X50240082Y-21707463D01*
X50419013Y-21975252D01*
X50646748Y-22202987D01*
X50804000Y-22308060D01*
X50804000Y-22823533D01*
X50799719Y-22867002D01*
X50804000Y-22910471D01*
X50804000Y-22910478D01*
X50816805Y-23040491D01*
X50867411Y-23207314D01*
X50949589Y-23361060D01*
X51060183Y-23495819D01*
X51093956Y-23523536D01*
X64084901Y-36514482D01*
X64084901Y-39060197D01*
X59862659Y-34837956D01*
X59834942Y-34804183D01*
X59700184Y-34693589D01*
X59546438Y-34611411D01*
X59379615Y-34560805D01*
X59249602Y-34548000D01*
X59249594Y-34548000D01*
X59206125Y-34543719D01*
X59162656Y-34548000D01*
X58064059Y-34548000D01*
X57958987Y-34390748D01*
X57731252Y-34163013D01*
X57463463Y-33984082D01*
X57165912Y-33860832D01*
X56850033Y-33798000D01*
X56527967Y-33798000D01*
X56212088Y-33860832D01*
X55914537Y-33984082D01*
X55646748Y-34163013D01*
X55419013Y-34390748D01*
X55354075Y-34487935D01*
X55324413Y-34477192D01*
X54368605Y-35433000D01*
X55324413Y-36388808D01*
X55354075Y-36378065D01*
X55419013Y-36475252D01*
X55646748Y-36702987D01*
X55914537Y-36881918D01*
X56212088Y-37005168D01*
X56527967Y-37068000D01*
X56850033Y-37068000D01*
X57165912Y-37005168D01*
X57463463Y-36881918D01*
X57731252Y-36702987D01*
X57958987Y-36475252D01*
X58064059Y-36318000D01*
X58839547Y-36318000D01*
X59950937Y-37429390D01*
X55290967Y-37429390D01*
X54809894Y-36948318D01*
X54875088Y-36925795D01*
X55049044Y-36832814D01*
X55144808Y-36568413D01*
X54189000Y-35612605D01*
X54174858Y-35626748D01*
X53995253Y-35447143D01*
X54009395Y-35433000D01*
X53995253Y-35418858D01*
X54174858Y-35239253D01*
X54189000Y-35253395D01*
X55144808Y-34297587D01*
X55049044Y-34033186D01*
X54759429Y-33892296D01*
X54447892Y-33810616D01*
X54126405Y-33791282D01*
X53807325Y-33835039D01*
X53502912Y-33940205D01*
X53328956Y-34033186D01*
X53274976Y-34182223D01*
X53219537Y-34078506D01*
X53140185Y-33981815D01*
X53043494Y-33902463D01*
X52933180Y-33843498D01*
X52813482Y-33807188D01*
X52689000Y-33794928D01*
X50689000Y-33794928D01*
X50564518Y-33807188D01*
X50444820Y-33843498D01*
X50334506Y-33902463D01*
X50237815Y-33981815D01*
X50158463Y-34078506D01*
X50099498Y-34188820D01*
X50063188Y-34308518D01*
X50050928Y-34433000D01*
X50050928Y-36433000D01*
X50063188Y-36557482D01*
X50099498Y-36677180D01*
X50158463Y-36787494D01*
X50237815Y-36884185D01*
X50334506Y-36963537D01*
X50444820Y-37022502D01*
X50564518Y-37058812D01*
X50689000Y-37071072D01*
X52429492Y-37071072D01*
X53487819Y-38129400D01*
X43247477Y-38129400D01*
X35184011Y-30065934D01*
X35421925Y-30018610D01*
X35828669Y-29850131D01*
X36194729Y-29605538D01*
X36506038Y-29294229D01*
X36750631Y-28928169D01*
X36919110Y-28521425D01*
X37005000Y-28089628D01*
X37005000Y-27712872D01*
X46354000Y-27712872D01*
X46354000Y-28153128D01*
X46439890Y-28584925D01*
X46608369Y-28991669D01*
X46852962Y-29357729D01*
X47164271Y-29669038D01*
X47530331Y-29913631D01*
X47937075Y-30082110D01*
X48368872Y-30168000D01*
X48809128Y-30168000D01*
X49240925Y-30082110D01*
X49647669Y-29913631D01*
X50013729Y-29669038D01*
X50325038Y-29357729D01*
X50569631Y-28991669D01*
X50738110Y-28584925D01*
X50824000Y-28153128D01*
X50824000Y-27712872D01*
X50738110Y-27281075D01*
X50569631Y-26874331D01*
X50325038Y-26508271D01*
X50013729Y-26196962D01*
X49647669Y-25952369D01*
X49240925Y-25783890D01*
X48809128Y-25698000D01*
X48368872Y-25698000D01*
X47937075Y-25783890D01*
X47530331Y-25952369D01*
X47164271Y-26196962D01*
X46852962Y-26508271D01*
X46608369Y-26874331D01*
X46439890Y-27281075D01*
X46354000Y-27712872D01*
X37005000Y-27712872D01*
X37005000Y-27649372D01*
X36919110Y-27217575D01*
X36750631Y-26810831D01*
X36506038Y-26444771D01*
X36194729Y-26133462D01*
X35828669Y-25888869D01*
X35421925Y-25720390D01*
X34990128Y-25634500D01*
X34549872Y-25634500D01*
X34118075Y-25720390D01*
X33711331Y-25888869D01*
X33345271Y-26133462D01*
X33033962Y-26444771D01*
X32789369Y-26810831D01*
X32620890Y-27217575D01*
X32573566Y-27455489D01*
X27555000Y-22436924D01*
X27555000Y-22244559D01*
X27712252Y-22139487D01*
X27846826Y-22004913D01*
X30714192Y-22004913D01*
X30809956Y-22269314D01*
X31099571Y-22410204D01*
X31411108Y-22491884D01*
X31732595Y-22511218D01*
X32051675Y-22467461D01*
X32356088Y-22362295D01*
X32530044Y-22269314D01*
X32625808Y-22004913D01*
X31670000Y-21049105D01*
X30714192Y-22004913D01*
X27846826Y-22004913D01*
X27939987Y-21911752D01*
X28118918Y-21643963D01*
X28242168Y-21346412D01*
X28305000Y-21030533D01*
X28305000Y-20932095D01*
X30028282Y-20932095D01*
X30072039Y-21251175D01*
X30177205Y-21555588D01*
X30270186Y-21729544D01*
X30534587Y-21825308D01*
X31490395Y-20869500D01*
X31849605Y-20869500D01*
X32805413Y-21825308D01*
X33069814Y-21729544D01*
X33210704Y-21439929D01*
X33292384Y-21128392D01*
X33311718Y-20806905D01*
X33267961Y-20487825D01*
X33162795Y-20183412D01*
X33069814Y-20009456D01*
X32805413Y-19913692D01*
X31849605Y-20869500D01*
X31490395Y-20869500D01*
X30534587Y-19913692D01*
X30270186Y-20009456D01*
X30129296Y-20299071D01*
X30047616Y-20610608D01*
X30028282Y-20932095D01*
X28305000Y-20932095D01*
X28305000Y-20708467D01*
X28242168Y-20392588D01*
X28118918Y-20095037D01*
X27939987Y-19827248D01*
X27846826Y-19734087D01*
X30714192Y-19734087D01*
X31670000Y-20689895D01*
X32625808Y-19734087D01*
X32530044Y-19469686D01*
X32240429Y-19328796D01*
X31928892Y-19247116D01*
X31607405Y-19227782D01*
X31288325Y-19271539D01*
X30983912Y-19376705D01*
X30809956Y-19469686D01*
X30714192Y-19734087D01*
X27846826Y-19734087D01*
X27712252Y-19599513D01*
X27444463Y-19420582D01*
X27146912Y-19297332D01*
X26831033Y-19234500D01*
X26508967Y-19234500D01*
X26193088Y-19297332D01*
X25895537Y-19420582D01*
X25627748Y-19599513D01*
X25400013Y-19827248D01*
X25221082Y-20095037D01*
X25097832Y-20392588D01*
X25035000Y-20708467D01*
X25035000Y-21030533D01*
X25097832Y-21346412D01*
X25221082Y-21643963D01*
X25400013Y-21911752D01*
X25627748Y-22139487D01*
X25785000Y-22244560D01*
X25785000Y-22760033D01*
X25780719Y-22803502D01*
X25785000Y-22846971D01*
X25785000Y-22846978D01*
X25797805Y-22976991D01*
X25848411Y-23143814D01*
X25930589Y-23297560D01*
X26041183Y-23432319D01*
X26074956Y-23460036D01*
X41836519Y-39221600D01*
X36773679Y-39221600D01*
X33268103Y-35716025D01*
X33305000Y-35530533D01*
X33305000Y-35208467D01*
X33242168Y-34892588D01*
X33118918Y-34595037D01*
X32939987Y-34327248D01*
X32712252Y-34099513D01*
X32444463Y-33920582D01*
X32146912Y-33797332D01*
X31831033Y-33734500D01*
X31508967Y-33734500D01*
X31193088Y-33797332D01*
X30895537Y-33920582D01*
X30627748Y-34099513D01*
X30400013Y-34327248D01*
X30335075Y-34424435D01*
X30305413Y-34413692D01*
X29349605Y-35369500D01*
X30305413Y-36325308D01*
X30335075Y-36314565D01*
X30400013Y-36411752D01*
X30627748Y-36639487D01*
X30895537Y-36818418D01*
X31193088Y-36941668D01*
X31508967Y-37004500D01*
X31831033Y-37004500D01*
X32016525Y-36967603D01*
X35451621Y-40402700D01*
X32954779Y-40402700D01*
X29523415Y-36971336D01*
X29551675Y-36967461D01*
X29856088Y-36862295D01*
X30030044Y-36769314D01*
X30125808Y-36504913D01*
X29170000Y-35549105D01*
X29155858Y-35563248D01*
X28976253Y-35383643D01*
X28990395Y-35369500D01*
X28976253Y-35355358D01*
X29155858Y-35175753D01*
X29170000Y-35189895D01*
X30125808Y-34234087D01*
X30030044Y-33969686D01*
X29740429Y-33828796D01*
X29428892Y-33747116D01*
X29107405Y-33727782D01*
X28788325Y-33771539D01*
X28483912Y-33876705D01*
X28309956Y-33969686D01*
X28255976Y-34118723D01*
X28200537Y-34015006D01*
X28121185Y-33918315D01*
X28024494Y-33838963D01*
X27914180Y-33779998D01*
X27794482Y-33743688D01*
X27670000Y-33731428D01*
X25670000Y-33731428D01*
X25545518Y-33743688D01*
X25425820Y-33779998D01*
X25315506Y-33838963D01*
X25218815Y-33918315D01*
X25139463Y-34015006D01*
X25080498Y-34125320D01*
X25044188Y-34245018D01*
X25031928Y-34369500D01*
X25031928Y-36369500D01*
X25044188Y-36493982D01*
X25080498Y-36613680D01*
X25139463Y-36723994D01*
X25218815Y-36820685D01*
X25315506Y-36900037D01*
X25425820Y-36959002D01*
X25545518Y-36995312D01*
X25670000Y-37007572D01*
X27056494Y-37007572D01*
X31931670Y-41882749D01*
X31959383Y-41916517D01*
X31993151Y-41944230D01*
X31993153Y-41944232D01*
X32065018Y-42003210D01*
X32094141Y-42027111D01*
X32247887Y-42109289D01*
X32414710Y-42159895D01*
X32544723Y-42172700D01*
X32544731Y-42172700D01*
X32588200Y-42176981D01*
X32631669Y-42172700D01*
X58663522Y-42172700D01*
X58881428Y-42390607D01*
X58881428Y-42627100D01*
X58893688Y-42751582D01*
X58929998Y-42871280D01*
X58988963Y-42981594D01*
X59068315Y-43078285D01*
X59165006Y-43157637D01*
X59275320Y-43216602D01*
X59395018Y-43252912D01*
X59519500Y-43265172D01*
X60369500Y-43265172D01*
X60493982Y-43252912D01*
X60613680Y-43216602D01*
X60618103Y-43214238D01*
X60635309Y-43221365D01*
X60840099Y-43262100D01*
X61048901Y-43262100D01*
X61253691Y-43221365D01*
X61444500Y-43142329D01*
X61635309Y-43221365D01*
X61840099Y-43262100D01*
X62048901Y-43262100D01*
X62253691Y-43221365D01*
X62444500Y-43142329D01*
X62635309Y-43221365D01*
X62840099Y-43262100D01*
X63048901Y-43262100D01*
X63253691Y-43221365D01*
X63444500Y-43142329D01*
X63635309Y-43221365D01*
X63840099Y-43262100D01*
X64048901Y-43262100D01*
X64253691Y-43221365D01*
X64444500Y-43142329D01*
X64635309Y-43221365D01*
X64840099Y-43262100D01*
X65048901Y-43262100D01*
X65253691Y-43221365D01*
X65444500Y-43142329D01*
X65635309Y-43221365D01*
X65840099Y-43262100D01*
X66048901Y-43262100D01*
X66253691Y-43221365D01*
X66444500Y-43142329D01*
X66635309Y-43221365D01*
X66840099Y-43262100D01*
X67048901Y-43262100D01*
X67253691Y-43221365D01*
X67444500Y-43142329D01*
X67635309Y-43221365D01*
X67840099Y-43262100D01*
X68048901Y-43262100D01*
X68253691Y-43221365D01*
X68444500Y-43142329D01*
X68635309Y-43221365D01*
X68840099Y-43262100D01*
X69048901Y-43262100D01*
X69253691Y-43221365D01*
X69444500Y-43142329D01*
X69635309Y-43221365D01*
X69840099Y-43262100D01*
X70048901Y-43262100D01*
X70253691Y-43221365D01*
X70444500Y-43142329D01*
X70635309Y-43221365D01*
X70836612Y-43261406D01*
X19964400Y-43382896D01*
X19964400Y-27649372D01*
X21335000Y-27649372D01*
X21335000Y-28089628D01*
X21420890Y-28521425D01*
X21589369Y-28928169D01*
X21833962Y-29294229D01*
X22145271Y-29605538D01*
X22511331Y-29850131D01*
X22918075Y-30018610D01*
X23349872Y-30104500D01*
X23790128Y-30104500D01*
X24221925Y-30018610D01*
X24628669Y-29850131D01*
X24994729Y-29605538D01*
X25306038Y-29294229D01*
X25550631Y-28928169D01*
X25719110Y-28521425D01*
X25805000Y-28089628D01*
X25805000Y-27649372D01*
X25719110Y-27217575D01*
X25550631Y-26810831D01*
X25306038Y-26444771D01*
X24994729Y-26133462D01*
X24628669Y-25888869D01*
X24221925Y-25720390D01*
X23790128Y-25634500D01*
X23349872Y-25634500D01*
X22918075Y-25720390D01*
X22511331Y-25888869D01*
X22145271Y-26133462D01*
X21833962Y-26444771D01*
X21589369Y-26810831D01*
X21420890Y-27217575D01*
X21335000Y-27649372D01*
X19964400Y-27649372D01*
X19964400Y-15976233D01*
X120650466Y-15684866D01*
X120751135Y-43142204D01*
G37*
X120751135Y-43142204D02*
X74071502Y-43253682D01*
X74071502Y-43094359D01*
X74234562Y-43221640D01*
X74269750Y-43210972D01*
X74460322Y-43128134D01*
X74631071Y-43009709D01*
X74775436Y-42860248D01*
X74887868Y-42685494D01*
X74964047Y-42492164D01*
X74838121Y-42329100D01*
X74071500Y-42329100D01*
X74071500Y-42349100D01*
X73996027Y-42349100D01*
X74004500Y-42306501D01*
X74004500Y-42097699D01*
X73996027Y-42055100D01*
X74071500Y-42055100D01*
X74071500Y-42075100D01*
X74838121Y-42075100D01*
X74964047Y-41912036D01*
X74887868Y-41718706D01*
X74775436Y-41543952D01*
X74631071Y-41394491D01*
X74491513Y-41297699D01*
X103976834Y-41297699D01*
X104020303Y-41301980D01*
X104063772Y-41297699D01*
X104063780Y-41297699D01*
X104193793Y-41284894D01*
X104360616Y-41234288D01*
X104514362Y-41152110D01*
X104649120Y-41041516D01*
X104676837Y-41007743D01*
X108835550Y-36849031D01*
X108869318Y-36821318D01*
X108935497Y-36740680D01*
X108979911Y-36686561D01*
X108979912Y-36686560D01*
X109062090Y-36532814D01*
X109112696Y-36365991D01*
X109125501Y-36235978D01*
X109125501Y-36235968D01*
X109129782Y-36192502D01*
X109125501Y-36149036D01*
X109125501Y-34843968D01*
X109129782Y-34800499D01*
X109125501Y-34757030D01*
X109125501Y-34757022D01*
X109112696Y-34627009D01*
X109062090Y-34460186D01*
X108979912Y-34306440D01*
X108897033Y-34205452D01*
X108897031Y-34205450D01*
X108869318Y-34171682D01*
X108835552Y-34143971D01*
X102675500Y-27983920D01*
X102675500Y-27776372D01*
X107655500Y-27776372D01*
X107655500Y-28216628D01*
X107741390Y-28648425D01*
X107909869Y-29055169D01*
X108154462Y-29421229D01*
X108465771Y-29732538D01*
X108831831Y-29977131D01*
X109238575Y-30145610D01*
X109670372Y-30231500D01*
X110110628Y-30231500D01*
X110542425Y-30145610D01*
X110949169Y-29977131D01*
X111315229Y-29732538D01*
X111626538Y-29421229D01*
X111871131Y-29055169D01*
X112039610Y-28648425D01*
X112125500Y-28216628D01*
X112125500Y-27776372D01*
X112039610Y-27344575D01*
X111871131Y-26937831D01*
X111626538Y-26571771D01*
X111315229Y-26260462D01*
X110949169Y-26015869D01*
X110542425Y-25847390D01*
X110110628Y-25761500D01*
X109670372Y-25761500D01*
X109238575Y-25847390D01*
X108831831Y-26015869D01*
X108465771Y-26260462D01*
X108154462Y-26571771D01*
X107909869Y-26937831D01*
X107741390Y-27344575D01*
X107655500Y-27776372D01*
X102675500Y-27776372D01*
X102675500Y-22371559D01*
X102832752Y-22266487D01*
X103060487Y-22038752D01*
X103239418Y-21770963D01*
X103362668Y-21473412D01*
X103425500Y-21157533D01*
X103425500Y-20835467D01*
X105155500Y-20835467D01*
X105155500Y-21157533D01*
X105218332Y-21473412D01*
X105341582Y-21770963D01*
X105520513Y-22038752D01*
X105748248Y-22266487D01*
X106016037Y-22445418D01*
X106313588Y-22568668D01*
X106629467Y-22631500D01*
X106951533Y-22631500D01*
X107267412Y-22568668D01*
X107564963Y-22445418D01*
X107832752Y-22266487D01*
X108060487Y-22038752D01*
X108239418Y-21770963D01*
X108362668Y-21473412D01*
X108425500Y-21157533D01*
X108425500Y-20835467D01*
X108362668Y-20519588D01*
X108239418Y-20222037D01*
X108060487Y-19954248D01*
X107832752Y-19726513D01*
X107564963Y-19547582D01*
X107267412Y-19424332D01*
X106951533Y-19361500D01*
X106629467Y-19361500D01*
X106313588Y-19424332D01*
X106016037Y-19547582D01*
X105748248Y-19726513D01*
X105520513Y-19954248D01*
X105341582Y-20222037D01*
X105218332Y-20519588D01*
X105155500Y-20835467D01*
X103425500Y-20835467D01*
X103362668Y-20519588D01*
X103239418Y-20222037D01*
X103060487Y-19954248D01*
X102832752Y-19726513D01*
X102564963Y-19547582D01*
X102267412Y-19424332D01*
X101951533Y-19361500D01*
X101629467Y-19361500D01*
X101313588Y-19424332D01*
X101016037Y-19547582D01*
X100748248Y-19726513D01*
X100520513Y-19954248D01*
X100341582Y-20222037D01*
X100218332Y-20519588D01*
X100155500Y-20835467D01*
X100155500Y-21157533D01*
X100218332Y-21473412D01*
X100341582Y-21770963D01*
X100520513Y-22038752D01*
X100748248Y-22266487D01*
X100905500Y-22371560D01*
X100905501Y-27675830D01*
X100839610Y-27344575D01*
X100671131Y-26937831D01*
X100426538Y-26571771D01*
X100115229Y-26260462D01*
X99749169Y-26015869D01*
X99342425Y-25847390D01*
X98910628Y-25761500D01*
X98470372Y-25761500D01*
X98038575Y-25847390D01*
X97631831Y-26015869D01*
X97265771Y-26260462D01*
X96954462Y-26571771D01*
X96709869Y-26937831D01*
X96541390Y-27344575D01*
X96455500Y-27776372D01*
X96455500Y-28216628D01*
X96541390Y-28648425D01*
X96709869Y-29055169D01*
X96954462Y-29421229D01*
X97265771Y-29732538D01*
X97631831Y-29977131D01*
X98038575Y-30145610D01*
X98470372Y-30231500D01*
X98910628Y-30231500D01*
X99342425Y-30145610D01*
X99749169Y-29977131D01*
X100115229Y-29732538D01*
X100426538Y-29421229D01*
X100671131Y-29055169D01*
X100839610Y-28648425D01*
X100903521Y-28327124D01*
X100901219Y-28350498D01*
X100918305Y-28523988D01*
X100968912Y-28690811D01*
X101051090Y-28844557D01*
X101133968Y-28945544D01*
X101133971Y-28945547D01*
X101161684Y-28979315D01*
X101195452Y-29007028D01*
X106171578Y-33983155D01*
X106016037Y-34047582D01*
X105748248Y-34226513D01*
X105520513Y-34454248D01*
X105455575Y-34551435D01*
X105425913Y-34540692D01*
X104470105Y-35496500D01*
X104484248Y-35510643D01*
X104304643Y-35690248D01*
X104290500Y-35676105D01*
X104276358Y-35690248D01*
X104096753Y-35510643D01*
X104110895Y-35496500D01*
X104096753Y-35482358D01*
X104276358Y-35302753D01*
X104290500Y-35316895D01*
X105246308Y-34361087D01*
X105150544Y-34096686D01*
X104860929Y-33955796D01*
X104549392Y-33874116D01*
X104227905Y-33854782D01*
X103908825Y-33898539D01*
X103604412Y-34003705D01*
X103430456Y-34096686D01*
X103376476Y-34245723D01*
X103321037Y-34142006D01*
X103241685Y-34045315D01*
X103144994Y-33965963D01*
X103034680Y-33906998D01*
X102914982Y-33870688D01*
X102790500Y-33858428D01*
X100790500Y-33858428D01*
X100666018Y-33870688D01*
X100546320Y-33906998D01*
X100436006Y-33965963D01*
X100339315Y-34045315D01*
X100259963Y-34142006D01*
X100200998Y-34252320D01*
X100164688Y-34372018D01*
X100152428Y-34496500D01*
X100152428Y-35882993D01*
X98349013Y-37686409D01*
X82788671Y-37686409D01*
X83689551Y-36785530D01*
X83723318Y-36757818D01*
X83781799Y-36686560D01*
X83833911Y-36623061D01*
X83833912Y-36623060D01*
X83916090Y-36469314D01*
X83966696Y-36302491D01*
X83979501Y-36172478D01*
X83979501Y-36172468D01*
X83983782Y-36129002D01*
X83979501Y-36085536D01*
X83979501Y-30035273D01*
X84092575Y-30082110D01*
X84524372Y-30168000D01*
X84964628Y-30168000D01*
X85396425Y-30082110D01*
X85803169Y-29913631D01*
X86169229Y-29669038D01*
X86480538Y-29357729D01*
X86725131Y-28991669D01*
X86893610Y-28584925D01*
X86979500Y-28153128D01*
X86979500Y-27712872D01*
X86893610Y-27281075D01*
X86725131Y-26874331D01*
X86480538Y-26508271D01*
X86169229Y-26196962D01*
X85803169Y-25952369D01*
X85396425Y-25783890D01*
X84964628Y-25698000D01*
X84524372Y-25698000D01*
X84092575Y-25783890D01*
X83685831Y-25952369D01*
X83319771Y-26196962D01*
X83008462Y-26508271D01*
X82763869Y-26874331D01*
X82595390Y-27281075D01*
X82548066Y-27518989D01*
X77529500Y-22500424D01*
X77529500Y-22308059D01*
X77686752Y-22202987D01*
X77914487Y-21975252D01*
X78093418Y-21707463D01*
X78216668Y-21409912D01*
X78279500Y-21094033D01*
X78279500Y-20771967D01*
X80009500Y-20771967D01*
X80009500Y-21094033D01*
X80072332Y-21409912D01*
X80195582Y-21707463D01*
X80374513Y-21975252D01*
X80602248Y-22202987D01*
X80870037Y-22381918D01*
X81167588Y-22505168D01*
X81483467Y-22568000D01*
X81805533Y-22568000D01*
X82121412Y-22505168D01*
X82418963Y-22381918D01*
X82686752Y-22202987D01*
X82914487Y-21975252D01*
X83093418Y-21707463D01*
X83216668Y-21409912D01*
X83279500Y-21094033D01*
X83279500Y-20771967D01*
X83216668Y-20456088D01*
X83093418Y-20158537D01*
X82914487Y-19890748D01*
X82686752Y-19663013D01*
X82418963Y-19484082D01*
X82121412Y-19360832D01*
X81805533Y-19298000D01*
X81483467Y-19298000D01*
X81167588Y-19360832D01*
X80870037Y-19484082D01*
X80602248Y-19663013D01*
X80374513Y-19890748D01*
X80195582Y-20158537D01*
X80072332Y-20456088D01*
X80009500Y-20771967D01*
X78279500Y-20771967D01*
X78216668Y-20456088D01*
X78093418Y-20158537D01*
X77914487Y-19890748D01*
X77686752Y-19663013D01*
X77418963Y-19484082D01*
X77121412Y-19360832D01*
X76805533Y-19298000D01*
X76483467Y-19298000D01*
X76167588Y-19360832D01*
X75870037Y-19484082D01*
X75602248Y-19663013D01*
X75374513Y-19890748D01*
X75195582Y-20158537D01*
X75072332Y-20456088D01*
X75009500Y-20771967D01*
X75009500Y-21094033D01*
X75072332Y-21409912D01*
X75195582Y-21707463D01*
X75374513Y-21975252D01*
X75602248Y-22202987D01*
X75759500Y-22308060D01*
X75759500Y-22823533D01*
X75755219Y-22867002D01*
X75759500Y-22910471D01*
X75759500Y-22910478D01*
X75772305Y-23040491D01*
X75822911Y-23207314D01*
X75905089Y-23361060D01*
X76015683Y-23495819D01*
X76049456Y-23523536D01*
X82209502Y-29683583D01*
X82209501Y-33897320D01*
X82121412Y-33860832D01*
X81805533Y-33798000D01*
X81483467Y-33798000D01*
X81167588Y-33860832D01*
X80870037Y-33984082D01*
X80602248Y-34163013D01*
X80374513Y-34390748D01*
X80309575Y-34487935D01*
X80279913Y-34477192D01*
X79324105Y-35433000D01*
X79338248Y-35447143D01*
X79158643Y-35626748D01*
X79144500Y-35612605D01*
X79130358Y-35626748D01*
X78950753Y-35447143D01*
X78964895Y-35433000D01*
X78950753Y-35418858D01*
X79130358Y-35239253D01*
X79144500Y-35253395D01*
X80100308Y-34297587D01*
X80004544Y-34033186D01*
X79714929Y-33892296D01*
X79403392Y-33810616D01*
X79081905Y-33791282D01*
X78762825Y-33835039D01*
X78458412Y-33940205D01*
X78284456Y-34033186D01*
X78230476Y-34182223D01*
X78175037Y-34078506D01*
X78095685Y-33981815D01*
X77998994Y-33902463D01*
X77888680Y-33843498D01*
X77768982Y-33807188D01*
X77644500Y-33794928D01*
X75644500Y-33794928D01*
X75520018Y-33807188D01*
X75400320Y-33843498D01*
X75290006Y-33902463D01*
X75193315Y-33981815D01*
X75113963Y-34078506D01*
X75054998Y-34188820D01*
X75018688Y-34308518D01*
X75006428Y-34433000D01*
X75006428Y-34548000D01*
X68826666Y-34548000D01*
X68783199Y-34543719D01*
X68739733Y-34548000D01*
X68739723Y-34548000D01*
X68609710Y-34560805D01*
X68442887Y-34611411D01*
X68289141Y-34693589D01*
X68289139Y-34693590D01*
X68289140Y-34693590D01*
X68188153Y-34776468D01*
X68188151Y-34776470D01*
X68154383Y-34804183D01*
X68126670Y-34837951D01*
X65854900Y-37109722D01*
X65854900Y-36191371D01*
X65859181Y-36147902D01*
X65854900Y-36104433D01*
X65854900Y-36104425D01*
X65842095Y-35974412D01*
X65791489Y-35807589D01*
X65709311Y-35653843D01*
X65598717Y-35519085D01*
X65564949Y-35491372D01*
X60203011Y-30129434D01*
X60440925Y-30082110D01*
X60847669Y-29913631D01*
X61213729Y-29669038D01*
X61525038Y-29357729D01*
X61769631Y-28991669D01*
X61938110Y-28584925D01*
X62024000Y-28153128D01*
X62024000Y-27712872D01*
X71309500Y-27712872D01*
X71309500Y-28153128D01*
X71395390Y-28584925D01*
X71563869Y-28991669D01*
X71808462Y-29357729D01*
X72119771Y-29669038D01*
X72485831Y-29913631D01*
X72892575Y-30082110D01*
X73324372Y-30168000D01*
X73764628Y-30168000D01*
X74196425Y-30082110D01*
X74603169Y-29913631D01*
X74969229Y-29669038D01*
X75280538Y-29357729D01*
X75525131Y-28991669D01*
X75693610Y-28584925D01*
X75779500Y-28153128D01*
X75779500Y-27712872D01*
X75693610Y-27281075D01*
X75525131Y-26874331D01*
X75280538Y-26508271D01*
X74969229Y-26196962D01*
X74603169Y-25952369D01*
X74196425Y-25783890D01*
X73764628Y-25698000D01*
X73324372Y-25698000D01*
X72892575Y-25783890D01*
X72485831Y-25952369D01*
X72119771Y-26196962D01*
X71808462Y-26508271D01*
X71563869Y-26874331D01*
X71395390Y-27281075D01*
X71309500Y-27712872D01*
X62024000Y-27712872D01*
X61938110Y-27281075D01*
X61769631Y-26874331D01*
X61525038Y-26508271D01*
X61213729Y-26196962D01*
X60847669Y-25952369D01*
X60440925Y-25783890D01*
X60009128Y-25698000D01*
X59568872Y-25698000D01*
X59137075Y-25783890D01*
X58730331Y-25952369D01*
X58364271Y-26196962D01*
X58052962Y-26508271D01*
X57808369Y-26874331D01*
X57639890Y-27281075D01*
X57592566Y-27518989D01*
X52574000Y-22500424D01*
X52574000Y-22308059D01*
X52731252Y-22202987D01*
X52865826Y-22068413D01*
X55733192Y-22068413D01*
X55828956Y-22332814D01*
X56118571Y-22473704D01*
X56430108Y-22555384D01*
X56751595Y-22574718D01*
X57070675Y-22530961D01*
X57375088Y-22425795D01*
X57549044Y-22332814D01*
X57644808Y-22068413D01*
X56689000Y-21112605D01*
X55733192Y-22068413D01*
X52865826Y-22068413D01*
X52958987Y-21975252D01*
X53137918Y-21707463D01*
X53261168Y-21409912D01*
X53324000Y-21094033D01*
X53324000Y-20995595D01*
X55047282Y-20995595D01*
X55091039Y-21314675D01*
X55196205Y-21619088D01*
X55289186Y-21793044D01*
X55553587Y-21888808D01*
X56509395Y-20933000D01*
X56868605Y-20933000D01*
X57824413Y-21888808D01*
X58088814Y-21793044D01*
X58229704Y-21503429D01*
X58311384Y-21191892D01*
X58330718Y-20870405D01*
X58286961Y-20551325D01*
X58181795Y-20246912D01*
X58088814Y-20072956D01*
X57824413Y-19977192D01*
X56868605Y-20933000D01*
X56509395Y-20933000D01*
X55553587Y-19977192D01*
X55289186Y-20072956D01*
X55148296Y-20362571D01*
X55066616Y-20674108D01*
X55047282Y-20995595D01*
X53324000Y-20995595D01*
X53324000Y-20771967D01*
X53261168Y-20456088D01*
X53137918Y-20158537D01*
X52958987Y-19890748D01*
X52865826Y-19797587D01*
X55733192Y-19797587D01*
X56689000Y-20753395D01*
X57644808Y-19797587D01*
X57549044Y-19533186D01*
X57259429Y-19392296D01*
X56947892Y-19310616D01*
X56626405Y-19291282D01*
X56307325Y-19335039D01*
X56002912Y-19440205D01*
X55828956Y-19533186D01*
X55733192Y-19797587D01*
X52865826Y-19797587D01*
X52731252Y-19663013D01*
X52463463Y-19484082D01*
X52165912Y-19360832D01*
X51850033Y-19298000D01*
X51527967Y-19298000D01*
X51212088Y-19360832D01*
X50914537Y-19484082D01*
X50646748Y-19663013D01*
X50419013Y-19890748D01*
X50240082Y-20158537D01*
X50116832Y-20456088D01*
X50054000Y-20771967D01*
X50054000Y-21094033D01*
X50116832Y-21409912D01*
X50240082Y-21707463D01*
X50419013Y-21975252D01*
X50646748Y-22202987D01*
X50804000Y-22308060D01*
X50804000Y-22823533D01*
X50799719Y-22867002D01*
X50804000Y-22910471D01*
X50804000Y-22910478D01*
X50816805Y-23040491D01*
X50867411Y-23207314D01*
X50949589Y-23361060D01*
X51060183Y-23495819D01*
X51093956Y-23523536D01*
X64084901Y-36514482D01*
X64084901Y-39060197D01*
X59862659Y-34837956D01*
X59834942Y-34804183D01*
X59700184Y-34693589D01*
X59546438Y-34611411D01*
X59379615Y-34560805D01*
X59249602Y-34548000D01*
X59249594Y-34548000D01*
X59206125Y-34543719D01*
X59162656Y-34548000D01*
X58064059Y-34548000D01*
X57958987Y-34390748D01*
X57731252Y-34163013D01*
X57463463Y-33984082D01*
X57165912Y-33860832D01*
X56850033Y-33798000D01*
X56527967Y-33798000D01*
X56212088Y-33860832D01*
X55914537Y-33984082D01*
X55646748Y-34163013D01*
X55419013Y-34390748D01*
X55354075Y-34487935D01*
X55324413Y-34477192D01*
X54368605Y-35433000D01*
X55324413Y-36388808D01*
X55354075Y-36378065D01*
X55419013Y-36475252D01*
X55646748Y-36702987D01*
X55914537Y-36881918D01*
X56212088Y-37005168D01*
X56527967Y-37068000D01*
X56850033Y-37068000D01*
X57165912Y-37005168D01*
X57463463Y-36881918D01*
X57731252Y-36702987D01*
X57958987Y-36475252D01*
X58064059Y-36318000D01*
X58839547Y-36318000D01*
X59950937Y-37429390D01*
X55290967Y-37429390D01*
X54809894Y-36948318D01*
X54875088Y-36925795D01*
X55049044Y-36832814D01*
X55144808Y-36568413D01*
X54189000Y-35612605D01*
X54174858Y-35626748D01*
X53995253Y-35447143D01*
X54009395Y-35433000D01*
X53995253Y-35418858D01*
X54174858Y-35239253D01*
X54189000Y-35253395D01*
X55144808Y-34297587D01*
X55049044Y-34033186D01*
X54759429Y-33892296D01*
X54447892Y-33810616D01*
X54126405Y-33791282D01*
X53807325Y-33835039D01*
X53502912Y-33940205D01*
X53328956Y-34033186D01*
X53274976Y-34182223D01*
X53219537Y-34078506D01*
X53140185Y-33981815D01*
X53043494Y-33902463D01*
X52933180Y-33843498D01*
X52813482Y-33807188D01*
X52689000Y-33794928D01*
X50689000Y-33794928D01*
X50564518Y-33807188D01*
X50444820Y-33843498D01*
X50334506Y-33902463D01*
X50237815Y-33981815D01*
X50158463Y-34078506D01*
X50099498Y-34188820D01*
X50063188Y-34308518D01*
X50050928Y-34433000D01*
X50050928Y-36433000D01*
X50063188Y-36557482D01*
X50099498Y-36677180D01*
X50158463Y-36787494D01*
X50237815Y-36884185D01*
X50334506Y-36963537D01*
X50444820Y-37022502D01*
X50564518Y-37058812D01*
X50689000Y-37071072D01*
X52429492Y-37071072D01*
X53487819Y-38129400D01*
X43247477Y-38129400D01*
X35184011Y-30065934D01*
X35421925Y-30018610D01*
X35828669Y-29850131D01*
X36194729Y-29605538D01*
X36506038Y-29294229D01*
X36750631Y-28928169D01*
X36919110Y-28521425D01*
X37005000Y-28089628D01*
X37005000Y-27712872D01*
X46354000Y-27712872D01*
X46354000Y-28153128D01*
X46439890Y-28584925D01*
X46608369Y-28991669D01*
X46852962Y-29357729D01*
X47164271Y-29669038D01*
X47530331Y-29913631D01*
X47937075Y-30082110D01*
X48368872Y-30168000D01*
X48809128Y-30168000D01*
X49240925Y-30082110D01*
X49647669Y-29913631D01*
X50013729Y-29669038D01*
X50325038Y-29357729D01*
X50569631Y-28991669D01*
X50738110Y-28584925D01*
X50824000Y-28153128D01*
X50824000Y-27712872D01*
X50738110Y-27281075D01*
X50569631Y-26874331D01*
X50325038Y-26508271D01*
X50013729Y-26196962D01*
X49647669Y-25952369D01*
X49240925Y-25783890D01*
X48809128Y-25698000D01*
X48368872Y-25698000D01*
X47937075Y-25783890D01*
X47530331Y-25952369D01*
X47164271Y-26196962D01*
X46852962Y-26508271D01*
X46608369Y-26874331D01*
X46439890Y-27281075D01*
X46354000Y-27712872D01*
X37005000Y-27712872D01*
X37005000Y-27649372D01*
X36919110Y-27217575D01*
X36750631Y-26810831D01*
X36506038Y-26444771D01*
X36194729Y-26133462D01*
X35828669Y-25888869D01*
X35421925Y-25720390D01*
X34990128Y-25634500D01*
X34549872Y-25634500D01*
X34118075Y-25720390D01*
X33711331Y-25888869D01*
X33345271Y-26133462D01*
X33033962Y-26444771D01*
X32789369Y-26810831D01*
X32620890Y-27217575D01*
X32573566Y-27455489D01*
X27555000Y-22436924D01*
X27555000Y-22244559D01*
X27712252Y-22139487D01*
X27846826Y-22004913D01*
X30714192Y-22004913D01*
X30809956Y-22269314D01*
X31099571Y-22410204D01*
X31411108Y-22491884D01*
X31732595Y-22511218D01*
X32051675Y-22467461D01*
X32356088Y-22362295D01*
X32530044Y-22269314D01*
X32625808Y-22004913D01*
X31670000Y-21049105D01*
X30714192Y-22004913D01*
X27846826Y-22004913D01*
X27939987Y-21911752D01*
X28118918Y-21643963D01*
X28242168Y-21346412D01*
X28305000Y-21030533D01*
X28305000Y-20932095D01*
X30028282Y-20932095D01*
X30072039Y-21251175D01*
X30177205Y-21555588D01*
X30270186Y-21729544D01*
X30534587Y-21825308D01*
X31490395Y-20869500D01*
X31849605Y-20869500D01*
X32805413Y-21825308D01*
X33069814Y-21729544D01*
X33210704Y-21439929D01*
X33292384Y-21128392D01*
X33311718Y-20806905D01*
X33267961Y-20487825D01*
X33162795Y-20183412D01*
X33069814Y-20009456D01*
X32805413Y-19913692D01*
X31849605Y-20869500D01*
X31490395Y-20869500D01*
X30534587Y-19913692D01*
X30270186Y-20009456D01*
X30129296Y-20299071D01*
X30047616Y-20610608D01*
X30028282Y-20932095D01*
X28305000Y-20932095D01*
X28305000Y-20708467D01*
X28242168Y-20392588D01*
X28118918Y-20095037D01*
X27939987Y-19827248D01*
X27846826Y-19734087D01*
X30714192Y-19734087D01*
X31670000Y-20689895D01*
X32625808Y-19734087D01*
X32530044Y-19469686D01*
X32240429Y-19328796D01*
X31928892Y-19247116D01*
X31607405Y-19227782D01*
X31288325Y-19271539D01*
X30983912Y-19376705D01*
X30809956Y-19469686D01*
X30714192Y-19734087D01*
X27846826Y-19734087D01*
X27712252Y-19599513D01*
X27444463Y-19420582D01*
X27146912Y-19297332D01*
X26831033Y-19234500D01*
X26508967Y-19234500D01*
X26193088Y-19297332D01*
X25895537Y-19420582D01*
X25627748Y-19599513D01*
X25400013Y-19827248D01*
X25221082Y-20095037D01*
X25097832Y-20392588D01*
X25035000Y-20708467D01*
X25035000Y-21030533D01*
X25097832Y-21346412D01*
X25221082Y-21643963D01*
X25400013Y-21911752D01*
X25627748Y-22139487D01*
X25785000Y-22244560D01*
X25785000Y-22760033D01*
X25780719Y-22803502D01*
X25785000Y-22846971D01*
X25785000Y-22846978D01*
X25797805Y-22976991D01*
X25848411Y-23143814D01*
X25930589Y-23297560D01*
X26041183Y-23432319D01*
X26074956Y-23460036D01*
X41836519Y-39221600D01*
X36773679Y-39221600D01*
X33268103Y-35716025D01*
X33305000Y-35530533D01*
X33305000Y-35208467D01*
X33242168Y-34892588D01*
X33118918Y-34595037D01*
X32939987Y-34327248D01*
X32712252Y-34099513D01*
X32444463Y-33920582D01*
X32146912Y-33797332D01*
X31831033Y-33734500D01*
X31508967Y-33734500D01*
X31193088Y-33797332D01*
X30895537Y-33920582D01*
X30627748Y-34099513D01*
X30400013Y-34327248D01*
X30335075Y-34424435D01*
X30305413Y-34413692D01*
X29349605Y-35369500D01*
X30305413Y-36325308D01*
X30335075Y-36314565D01*
X30400013Y-36411752D01*
X30627748Y-36639487D01*
X30895537Y-36818418D01*
X31193088Y-36941668D01*
X31508967Y-37004500D01*
X31831033Y-37004500D01*
X32016525Y-36967603D01*
X35451621Y-40402700D01*
X32954779Y-40402700D01*
X29523415Y-36971336D01*
X29551675Y-36967461D01*
X29856088Y-36862295D01*
X30030044Y-36769314D01*
X30125808Y-36504913D01*
X29170000Y-35549105D01*
X29155858Y-35563248D01*
X28976253Y-35383643D01*
X28990395Y-35369500D01*
X28976253Y-35355358D01*
X29155858Y-35175753D01*
X29170000Y-35189895D01*
X30125808Y-34234087D01*
X30030044Y-33969686D01*
X29740429Y-33828796D01*
X29428892Y-33747116D01*
X29107405Y-33727782D01*
X28788325Y-33771539D01*
X28483912Y-33876705D01*
X28309956Y-33969686D01*
X28255976Y-34118723D01*
X28200537Y-34015006D01*
X28121185Y-33918315D01*
X28024494Y-33838963D01*
X27914180Y-33779998D01*
X27794482Y-33743688D01*
X27670000Y-33731428D01*
X25670000Y-33731428D01*
X25545518Y-33743688D01*
X25425820Y-33779998D01*
X25315506Y-33838963D01*
X25218815Y-33918315D01*
X25139463Y-34015006D01*
X25080498Y-34125320D01*
X25044188Y-34245018D01*
X25031928Y-34369500D01*
X25031928Y-36369500D01*
X25044188Y-36493982D01*
X25080498Y-36613680D01*
X25139463Y-36723994D01*
X25218815Y-36820685D01*
X25315506Y-36900037D01*
X25425820Y-36959002D01*
X25545518Y-36995312D01*
X25670000Y-37007572D01*
X27056494Y-37007572D01*
X31931670Y-41882749D01*
X31959383Y-41916517D01*
X31993151Y-41944230D01*
X31993153Y-41944232D01*
X32065018Y-42003210D01*
X32094141Y-42027111D01*
X32247887Y-42109289D01*
X32414710Y-42159895D01*
X32544723Y-42172700D01*
X32544731Y-42172700D01*
X32588200Y-42176981D01*
X32631669Y-42172700D01*
X58663522Y-42172700D01*
X58881428Y-42390607D01*
X58881428Y-42627100D01*
X58893688Y-42751582D01*
X58929998Y-42871280D01*
X58988963Y-42981594D01*
X59068315Y-43078285D01*
X59165006Y-43157637D01*
X59275320Y-43216602D01*
X59395018Y-43252912D01*
X59519500Y-43265172D01*
X60369500Y-43265172D01*
X60493982Y-43252912D01*
X60613680Y-43216602D01*
X60618103Y-43214238D01*
X60635309Y-43221365D01*
X60840099Y-43262100D01*
X61048901Y-43262100D01*
X61253691Y-43221365D01*
X61444500Y-43142329D01*
X61635309Y-43221365D01*
X61840099Y-43262100D01*
X62048901Y-43262100D01*
X62253691Y-43221365D01*
X62444500Y-43142329D01*
X62635309Y-43221365D01*
X62840099Y-43262100D01*
X63048901Y-43262100D01*
X63253691Y-43221365D01*
X63444500Y-43142329D01*
X63635309Y-43221365D01*
X63840099Y-43262100D01*
X64048901Y-43262100D01*
X64253691Y-43221365D01*
X64444500Y-43142329D01*
X64635309Y-43221365D01*
X64840099Y-43262100D01*
X65048901Y-43262100D01*
X65253691Y-43221365D01*
X65444500Y-43142329D01*
X65635309Y-43221365D01*
X65840099Y-43262100D01*
X66048901Y-43262100D01*
X66253691Y-43221365D01*
X66444500Y-43142329D01*
X66635309Y-43221365D01*
X66840099Y-43262100D01*
X67048901Y-43262100D01*
X67253691Y-43221365D01*
X67444500Y-43142329D01*
X67635309Y-43221365D01*
X67840099Y-43262100D01*
X68048901Y-43262100D01*
X68253691Y-43221365D01*
X68444500Y-43142329D01*
X68635309Y-43221365D01*
X68840099Y-43262100D01*
X69048901Y-43262100D01*
X69253691Y-43221365D01*
X69444500Y-43142329D01*
X69635309Y-43221365D01*
X69840099Y-43262100D01*
X70048901Y-43262100D01*
X70253691Y-43221365D01*
X70444500Y-43142329D01*
X70635309Y-43221365D01*
X70836612Y-43261406D01*
X19964400Y-43382896D01*
X19964400Y-27649372D01*
X21335000Y-27649372D01*
X21335000Y-28089628D01*
X21420890Y-28521425D01*
X21589369Y-28928169D01*
X21833962Y-29294229D01*
X22145271Y-29605538D01*
X22511331Y-29850131D01*
X22918075Y-30018610D01*
X23349872Y-30104500D01*
X23790128Y-30104500D01*
X24221925Y-30018610D01*
X24628669Y-29850131D01*
X24994729Y-29605538D01*
X25306038Y-29294229D01*
X25550631Y-28928169D01*
X25719110Y-28521425D01*
X25805000Y-28089628D01*
X25805000Y-27649372D01*
X25719110Y-27217575D01*
X25550631Y-26810831D01*
X25306038Y-26444771D01*
X24994729Y-26133462D01*
X24628669Y-25888869D01*
X24221925Y-25720390D01*
X23790128Y-25634500D01*
X23349872Y-25634500D01*
X22918075Y-25720390D01*
X22511331Y-25888869D01*
X22145271Y-26133462D01*
X21833962Y-26444771D01*
X21589369Y-26810831D01*
X21420890Y-27217575D01*
X21335000Y-27649372D01*
X19964400Y-27649372D01*
X19964400Y-15976233D01*
X120650466Y-15684866D01*
X120751135Y-43142204D01*
%TD*%
M02*
