%TF.GenerationSoftware,KiCad,Pcbnew,(5.1.6)-1*%
%TF.CreationDate,2020-06-18T14:47:13+02:00*%
%TF.ProjectId,antrieb smd,616e7472-6965-4622-9073-6d642e6b6963,rev?*%
%TF.SameCoordinates,Original*%
%TF.FileFunction,Paste,Top*%
%TF.FilePolarity,Positive*%
%FSLAX46Y46*%
G04 Gerber Fmt 4.6, Leading zero omitted, Abs format (unit mm)*
G04 Created by KiCad (PCBNEW (5.1.6)-1) date 2020-06-18 14:47:13*
%MOMM*%
%LPD*%
G01*
G04 APERTURE LIST*
%ADD10R,1.500000X1.000000*%
G04 APERTURE END LIST*
D10*
%TO.C,D1*%
X36291600Y-52054960D03*
X36291600Y-55254960D03*
X41191600Y-52054960D03*
X41191600Y-55254960D03*
%TD*%
%TO.C,D21*%
X36377960Y-133076440D03*
X36377960Y-136276440D03*
X41277960Y-133076440D03*
X41277960Y-136276440D03*
%TD*%
%TO.C,D23*%
X86377960Y-133076440D03*
X86377960Y-136276440D03*
X91277960Y-133076440D03*
X91277960Y-136276440D03*
%TD*%
%TO.C,D24*%
X111377960Y-133076440D03*
X111377960Y-136276440D03*
X116277960Y-133076440D03*
X116277960Y-136276440D03*
%TD*%
%TO.C,D22*%
X61377960Y-133076440D03*
X61377960Y-136276440D03*
X66277960Y-133076440D03*
X66277960Y-136276440D03*
%TD*%
%TO.C,D17*%
X36311920Y-117851680D03*
X36311920Y-121051680D03*
X41211920Y-117851680D03*
X41211920Y-121051680D03*
%TD*%
%TO.C,D19*%
X86311920Y-117851680D03*
X86311920Y-121051680D03*
X91211920Y-117851680D03*
X91211920Y-121051680D03*
%TD*%
%TO.C,D20*%
X111311920Y-117851680D03*
X111311920Y-121051680D03*
X116211920Y-117851680D03*
X116211920Y-121051680D03*
%TD*%
%TO.C,D18*%
X61311920Y-117851680D03*
X61311920Y-121051680D03*
X66211920Y-117851680D03*
X66211920Y-121051680D03*
%TD*%
%TO.C,D16*%
X116191600Y-94254960D03*
X116191600Y-91054960D03*
X111291600Y-94254960D03*
X111291600Y-91054960D03*
%TD*%
%TO.C,D15*%
X91191600Y-94254960D03*
X91191600Y-91054960D03*
X86291600Y-94254960D03*
X86291600Y-91054960D03*
%TD*%
%TO.C,D14*%
X66191600Y-94254960D03*
X66191600Y-91054960D03*
X61291600Y-94254960D03*
X61291600Y-91054960D03*
%TD*%
%TO.C,D13*%
X41191600Y-94254960D03*
X41191600Y-91054960D03*
X36291600Y-94254960D03*
X36291600Y-91054960D03*
%TD*%
%TO.C,D12*%
X116191600Y-81254960D03*
X116191600Y-78054960D03*
X111291600Y-81254960D03*
X111291600Y-78054960D03*
%TD*%
%TO.C,D11*%
X91191600Y-81254960D03*
X91191600Y-78054960D03*
X86291600Y-81254960D03*
X86291600Y-78054960D03*
%TD*%
%TO.C,D10*%
X66191600Y-81254960D03*
X66191600Y-78054960D03*
X61291600Y-81254960D03*
X61291600Y-78054960D03*
%TD*%
%TO.C,D9*%
X41191600Y-81254960D03*
X41191600Y-78054960D03*
X36291600Y-81254960D03*
X36291600Y-78054960D03*
%TD*%
%TO.C,D8*%
X116191600Y-68254960D03*
X116191600Y-65054960D03*
X111291600Y-68254960D03*
X111291600Y-65054960D03*
%TD*%
%TO.C,D7*%
X91191600Y-68254960D03*
X91191600Y-65054960D03*
X86291600Y-68254960D03*
X86291600Y-65054960D03*
%TD*%
%TO.C,D6*%
X66191600Y-68254960D03*
X66191600Y-65054960D03*
X61291600Y-68254960D03*
X61291600Y-65054960D03*
%TD*%
%TO.C,D5*%
X41191600Y-68254960D03*
X41191600Y-65054960D03*
X36291600Y-68254960D03*
X36291600Y-65054960D03*
%TD*%
%TO.C,D4*%
X116191600Y-55254960D03*
X116191600Y-52054960D03*
X111291600Y-55254960D03*
X111291600Y-52054960D03*
%TD*%
%TO.C,D3*%
X91191600Y-55254960D03*
X91191600Y-52054960D03*
X86291600Y-55254960D03*
X86291600Y-52054960D03*
%TD*%
%TO.C,D2*%
X66191600Y-55254960D03*
X66191600Y-52054960D03*
X61291600Y-55254960D03*
X61291600Y-52054960D03*
%TD*%
%TO.C,D49*%
X30899520Y-107264000D03*
X30899520Y-104064000D03*
X25999520Y-107264000D03*
X25999520Y-104064000D03*
%TD*%
%TO.C,D50*%
X51001586Y-104064000D03*
X51001586Y-107264000D03*
X55901586Y-104064000D03*
X55901586Y-107264000D03*
%TD*%
%TO.C,D51*%
X80903652Y-107264000D03*
X80903652Y-104064000D03*
X76003652Y-107264000D03*
X76003652Y-104064000D03*
%TD*%
%TO.C,D52*%
X101005720Y-104064000D03*
X101005720Y-107264000D03*
X105905720Y-104064000D03*
X105905720Y-107264000D03*
%TD*%
M02*
