%TF.GenerationSoftware,KiCad,Pcbnew,(5.1.6)-1*%
%TF.CreationDate,2020-06-18T14:47:13+02:00*%
%TF.ProjectId,antrieb smd,616e7472-6965-4622-9073-6d642e6b6963,rev?*%
%TF.SameCoordinates,Original*%
%TF.FileFunction,Soldermask,Bot*%
%TF.FilePolarity,Negative*%
%FSLAX46Y46*%
G04 Gerber Fmt 4.6, Leading zero omitted, Abs format (unit mm)*
G04 Created by KiCad (PCBNEW (5.1.6)-1) date 2020-06-18 14:47:13*
%MOMM*%
%LPD*%
G01*
G04 APERTURE LIST*
%ADD10O,0.950000X0.950000*%
%ADD11R,0.950000X0.950000*%
%ADD12R,1.700000X1.700000*%
%ADD13O,1.700000X1.700000*%
%ADD14C,1.800000*%
G04 APERTURE END LIST*
D10*
%TO.C,J1*%
X63158600Y-45821600D03*
X64158600Y-45821600D03*
X65158600Y-45821600D03*
X66158600Y-45821600D03*
X67158600Y-45821600D03*
X68158600Y-45821600D03*
X69158600Y-45821600D03*
X70158600Y-45821600D03*
X71158600Y-45821600D03*
X72158600Y-45821600D03*
X73158600Y-45821600D03*
X74158600Y-45821600D03*
D11*
X75158600Y-45821600D03*
%TD*%
D12*
%TO.C,D45*%
X24312600Y-127815600D03*
D13*
X31932600Y-127815600D03*
%TD*%
D12*
%TO.C,D46*%
X49312600Y-127815600D03*
D13*
X56932600Y-127815600D03*
%TD*%
D12*
%TO.C,D47*%
X74312600Y-127815600D03*
D13*
X81932600Y-127815600D03*
%TD*%
D12*
%TO.C,D48*%
X99312600Y-127815600D03*
D13*
X106932600Y-127815600D03*
%TD*%
D12*
%TO.C,D44*%
X99312600Y-112815600D03*
D13*
X106932600Y-112815600D03*
%TD*%
D12*
%TO.C,D43*%
X74312600Y-112815600D03*
D13*
X81932600Y-112815600D03*
%TD*%
D12*
%TO.C,D42*%
X49312600Y-112815600D03*
D13*
X56932600Y-112815600D03*
%TD*%
%TO.C,D41*%
X31932600Y-112815600D03*
D12*
X24312600Y-112815600D03*
%TD*%
%TO.C,D40*%
X99447600Y-99775600D03*
D13*
X107067600Y-99775600D03*
%TD*%
D12*
%TO.C,D39*%
X74312600Y-99775600D03*
D13*
X81932600Y-99775600D03*
%TD*%
D12*
%TO.C,D38*%
X49312600Y-99775600D03*
D13*
X56932600Y-99775600D03*
%TD*%
D12*
%TO.C,D37*%
X24312600Y-99775600D03*
D13*
X31932600Y-99775600D03*
%TD*%
D12*
%TO.C,D36*%
X99312600Y-86775600D03*
D13*
X106932600Y-86775600D03*
%TD*%
D12*
%TO.C,D35*%
X74312600Y-86775600D03*
D13*
X81932600Y-86775600D03*
%TD*%
D12*
%TO.C,D34*%
X49312600Y-86775600D03*
D13*
X56932600Y-86775600D03*
%TD*%
D12*
%TO.C,D33*%
X24312600Y-86775600D03*
D13*
X31932600Y-86775600D03*
%TD*%
D12*
%TO.C,D32*%
X99312600Y-73775600D03*
D13*
X106932600Y-73775600D03*
%TD*%
D12*
%TO.C,D31*%
X74312600Y-73775600D03*
D13*
X81932600Y-73775600D03*
%TD*%
D12*
%TO.C,D30*%
X49312600Y-73775600D03*
D13*
X56932600Y-73775600D03*
%TD*%
D12*
%TO.C,D29*%
X24312600Y-73775600D03*
D13*
X31932600Y-73775600D03*
%TD*%
D12*
%TO.C,D28*%
X99312600Y-60775600D03*
D13*
X106932600Y-60775600D03*
%TD*%
D12*
%TO.C,D27*%
X74312600Y-60775600D03*
D13*
X81932600Y-60775600D03*
%TD*%
D12*
%TO.C,D26*%
X49312600Y-60775600D03*
D13*
X56932600Y-60775600D03*
%TD*%
%TO.C,D25*%
X31932600Y-60775600D03*
D12*
X24312600Y-60775600D03*
%TD*%
D14*
%TO.C,SW21*%
X24918920Y-133048300D03*
X31418920Y-133048300D03*
X24918920Y-137548300D03*
X31418920Y-137548300D03*
%TD*%
%TO.C,SW23*%
X74918920Y-133048300D03*
X81418920Y-133048300D03*
X74918920Y-137548300D03*
X81418920Y-137548300D03*
%TD*%
%TO.C,SW24*%
X99918920Y-133048300D03*
X106418920Y-133048300D03*
X99918920Y-137548300D03*
X106418920Y-137548300D03*
%TD*%
%TO.C,SW22*%
X49918920Y-133048300D03*
X56418920Y-133048300D03*
X49918920Y-137548300D03*
X56418920Y-137548300D03*
%TD*%
%TO.C,SW17*%
X24878280Y-118041980D03*
X31378280Y-118041980D03*
X24878280Y-122541980D03*
X31378280Y-122541980D03*
%TD*%
%TO.C,SW19*%
X74878280Y-118041980D03*
X81378280Y-118041980D03*
X74878280Y-122541980D03*
X81378280Y-122541980D03*
%TD*%
%TO.C,SW20*%
X99878280Y-118041980D03*
X106378280Y-118041980D03*
X99878280Y-122541980D03*
X106378280Y-122541980D03*
%TD*%
%TO.C,SW18*%
X49878280Y-118041980D03*
X56378280Y-118041980D03*
X49878280Y-122541980D03*
X56378280Y-122541980D03*
%TD*%
%TO.C,SW16*%
X106332560Y-95526820D03*
X99832560Y-95526820D03*
X106332560Y-91026820D03*
X99832560Y-91026820D03*
%TD*%
%TO.C,SW15*%
X81332560Y-95526820D03*
X74832560Y-95526820D03*
X81332560Y-91026820D03*
X74832560Y-91026820D03*
%TD*%
%TO.C,SW14*%
X56332560Y-95526820D03*
X49832560Y-95526820D03*
X56332560Y-91026820D03*
X49832560Y-91026820D03*
%TD*%
%TO.C,SW13*%
X31332560Y-95526820D03*
X24832560Y-95526820D03*
X31332560Y-91026820D03*
X24832560Y-91026820D03*
%TD*%
%TO.C,SW12*%
X106332560Y-82526820D03*
X99832560Y-82526820D03*
X106332560Y-78026820D03*
X99832560Y-78026820D03*
%TD*%
%TO.C,SW11*%
X81332560Y-82526820D03*
X74832560Y-82526820D03*
X81332560Y-78026820D03*
X74832560Y-78026820D03*
%TD*%
%TO.C,SW10*%
X56332560Y-82526820D03*
X49832560Y-82526820D03*
X56332560Y-78026820D03*
X49832560Y-78026820D03*
%TD*%
%TO.C,SW9*%
X31332560Y-82526820D03*
X24832560Y-82526820D03*
X31332560Y-78026820D03*
X24832560Y-78026820D03*
%TD*%
%TO.C,SW8*%
X106332560Y-69526820D03*
X99832560Y-69526820D03*
X106332560Y-65026820D03*
X99832560Y-65026820D03*
%TD*%
%TO.C,SW7*%
X81332560Y-69526820D03*
X74832560Y-69526820D03*
X81332560Y-65026820D03*
X74832560Y-65026820D03*
%TD*%
%TO.C,SW6*%
X56332560Y-69526820D03*
X49832560Y-69526820D03*
X56332560Y-65026820D03*
X49832560Y-65026820D03*
%TD*%
%TO.C,SW5*%
X31332560Y-69526820D03*
X24832560Y-69526820D03*
X31332560Y-65026820D03*
X24832560Y-65026820D03*
%TD*%
%TO.C,SW4*%
X106332560Y-56526820D03*
X99832560Y-56526820D03*
X106332560Y-52026820D03*
X99832560Y-52026820D03*
%TD*%
%TO.C,SW3*%
X81332560Y-56526820D03*
X74832560Y-56526820D03*
X81332560Y-52026820D03*
X74832560Y-52026820D03*
%TD*%
%TO.C,SW2*%
X56332560Y-56526820D03*
X49832560Y-56526820D03*
X56332560Y-52026820D03*
X49832560Y-52026820D03*
%TD*%
%TO.C,SW1*%
X24832560Y-52026820D03*
X31332560Y-52026820D03*
X24832560Y-56526820D03*
X31332560Y-56526820D03*
%TD*%
M02*
