M48
; DRILL file {KiCad (5.1.6)-1} date 06/18/20 14:47:20
; FORMAT={-:-/ absolute / inch / decimal}
; #@! TF.CreationDate,2020-06-18T14:47:20+02:00
; #@! TF.GenerationSoftware,Kicad,Pcbnew,(5.1.6)-1
; #@! TF.FileFunction,Plated,1,2,PTH
FMAT,2
INCH
T1C0.0157
T2C0.0197
T3C0.0315
T4C0.0394
%
G90
G05
T1
X1.3241Y-1.9305
X1.359Y-3.584
X1.519Y-2.384
X1.6458Y-2.8506
X2.509Y-4.184
X2.509Y-4.644
X2.509Y-5.244
X2.519Y-3.644
X2.599Y-3.364
X2.7256Y-3.9306
X2.7256Y-3.9306
X3.459Y-4.444
X3.529Y-4.184
X3.599Y-4.904
X3.719Y-2.384
X3.719Y-2.564
X4.0473Y-4.0317
X4.239Y-1.844
X4.4017Y-4.1892
X4.4017Y-4.386
X4.4653Y-2.114
X4.4653Y-2.439
X4.4653Y-2.614
X4.4653Y-2.914
X4.4653Y-2.914
X4.4804Y-4.701
X4.4804Y-4.9766
X4.4903Y-3.139
X4.4903Y-3.139
X4.4903Y-3.414
X4.4903Y-3.664
T2
X2.4866Y-1.804
X2.5259Y-1.804
X2.5653Y-1.804
X2.6047Y-1.804
X2.644Y-1.804
X2.6834Y-1.804
X2.7228Y-1.804
X2.7621Y-1.804
X2.8015Y-1.804
X2.8409Y-1.804
X2.8803Y-1.804
X2.9196Y-1.804
X2.959Y-1.804
T3
X1.9414Y-3.4164
X2.2414Y-3.4164
X2.9257Y-2.3927
X3.2257Y-2.3927
X1.9414Y-5.0321
X2.2414Y-5.0321
X2.9257Y-3.4164
X3.2257Y-3.4164
X0.9572Y-3.9282
X1.2572Y-3.9282
X0.9572Y-2.9046
X1.2572Y-2.9046
X1.9414Y-3.9282
X2.2414Y-3.9282
X0.9572Y-5.0321
X1.2572Y-5.0321
X2.9257Y-2.9046
X3.2257Y-2.9046
X3.9099Y-2.9046
X4.2099Y-2.9046
X3.9153Y-3.9282
X4.2153Y-3.9282
X3.9099Y-3.4164
X4.2099Y-3.4164
X0.9572Y-2.3927
X1.2572Y-2.3927
X0.9572Y-4.4416
X1.2572Y-4.4416
X0.9572Y-3.4164
X1.2572Y-3.4164
X1.9414Y-2.9046
X2.2414Y-2.9046
X2.9257Y-4.4416
X3.2257Y-4.4416
X2.9257Y-5.0321
X3.2257Y-5.0321
X1.9414Y-2.3927
X2.2414Y-2.3927
X3.9099Y-5.0321
X4.2099Y-5.0321
X1.9414Y-4.4416
X2.2414Y-4.4416
X3.9099Y-2.3927
X4.2099Y-2.3927
X3.9099Y-4.4416
X4.2099Y-4.4416
X2.9257Y-3.9282
X3.2257Y-3.9282
T4
X3.9304Y-3.5837
X3.9304Y-3.7609
X4.1863Y-3.5837
X4.1863Y-3.7609
X2.9462Y-3.0719
X2.9462Y-3.2491
X3.2021Y-3.0719
X3.2021Y-3.2491
X0.9777Y-3.5837
X0.9777Y-3.7609
X1.2336Y-3.5837
X1.2336Y-3.7609
X2.9496Y-5.2381
X2.9496Y-5.4153
X3.2055Y-5.2381
X3.2055Y-5.4153
X1.9619Y-3.0719
X1.9619Y-3.2491
X2.2178Y-3.0719
X2.2178Y-3.2491
X3.9304Y-2.5601
X3.9304Y-2.7373
X4.1863Y-2.5601
X4.1863Y-2.7373
X2.9462Y-2.5601
X2.9462Y-2.7373
X3.2021Y-2.5601
X3.2021Y-2.7373
X2.9462Y-2.0483
X2.9462Y-2.2255
X3.2021Y-2.0483
X3.2021Y-2.2255
X1.9653Y-5.2381
X1.9653Y-5.4153
X2.2212Y-5.2381
X2.2212Y-5.4153
X1.9619Y-3.5837
X1.9619Y-3.7609
X2.2178Y-3.5837
X2.2178Y-3.7609
X0.9777Y-2.0483
X0.9777Y-2.2255
X1.2336Y-2.0483
X1.2336Y-2.2255
X3.9304Y-2.0483
X3.9304Y-2.2255
X4.1863Y-2.0483
X4.1863Y-2.2255
X3.9304Y-3.0719
X3.9304Y-3.2491
X4.1863Y-3.0719
X4.1863Y-3.2491
X0.9777Y-2.5601
X0.9777Y-2.7373
X1.2336Y-2.5601
X1.2336Y-2.7373
X1.9619Y-2.5601
X1.9619Y-2.7373
X2.2178Y-2.5601
X2.2178Y-2.7373
X0.9811Y-5.2381
X0.9811Y-5.4153
X1.237Y-5.2381
X1.237Y-5.4153
X1.9637Y-4.6473
X1.9637Y-4.8245
X2.2196Y-4.6473
X2.2196Y-4.8245
X2.9462Y-3.5837
X2.9462Y-3.7609
X3.2021Y-3.5837
X3.2021Y-3.7609
X0.9777Y-3.0719
X0.9777Y-3.2491
X1.2336Y-3.0719
X1.2336Y-3.2491
X3.9338Y-5.2381
X3.9338Y-5.4153
X4.1897Y-5.2381
X4.1897Y-5.4153
X2.948Y-4.6473
X2.948Y-4.8245
X3.2039Y-4.6473
X3.2039Y-4.8245
X0.9795Y-4.6473
X0.9795Y-4.8245
X1.2354Y-4.6473
X1.2354Y-4.8245
X1.9619Y-2.0483
X1.9619Y-2.2255
X2.2178Y-2.0483
X2.2178Y-2.2255
X3.9322Y-4.6473
X3.9322Y-4.8245
X4.1881Y-4.6473
X4.1881Y-4.8245
T0
M30
